<?xml version="1.0" encoding="utf-8"?>
<!-- Generator: Adobe Illustrator 28.0.0, SVG Export Plug-In . SVG Version: 6.00 Build 0)  -->
<svg version="1.1" id="_レイヤー_1" xmlns="http://www.w3.org/2000/svg" xmlns:xlink="http://www.w3.org/1999/xlink" x="0px"
	 y="0px" viewBox="0 0 245 316.1" style="enable-background:new 0 0 245 316.1;" xml:space="preserve">
<style type="text/css">
	.st0{fill:#CA3211;}
	.st1{fill:#AF541B;}
	.st2{fill:#5B2418;}
	.st3{fill:#020100;}
	.st4{fill:#B96420;}
	.st5{fill:#C47525;}
	.st6{fill:#DC9538;}
	.st7{fill:#975624;}
	.st8{fill:#6F3A2B;}
	.st9{fill:#AE541B;}
	.st10{fill:#060606;}
</style>
<path class="st0" d="M161.2,224.1c-0.5-0.1-1.1-0.1-1.5,0.1c-2.2,1-4.5,0.9-6.8,1c-0.3,0-0.7,0-0.9,0.1c-3.4,1.3-6.9,0.9-10.4,1
	c-0.7,0-1.4,0-2,0.3c-1.9,0.8-3.9,0.5-5.8,0.5c-0.5,0-0.9-0.1-1.4-0.3c-0.4-0.2-0.9-0.4-1.2-0.4c-1.7,0.3-3.4,0.3-5.1,0.1
	c-1.6,0.2-3.2,0.3-4.9-0.1c-1.9-0.6-3.8-0.8-5.8-1.3c-3-0.7-6-0.8-8.9-1.4c-2.1-0.4-4.2-0.7-6.2-1.6c-0.5-0.2-1.2-0.3-1.8-0.3
	c-2.3,0.2-4.4-0.7-6.5-1.3c-1.3,0-2.4-0.6-3.3-1.5c-2.5-0.5-5-1-7.3-2.1c-3.6-1.7-7.5-2.8-10.7-5.4c-1.8-1.5-3.6-3-5.4-4.5
	c-1.3-1.1-2.3-2.9-3.6-4.3c-4.9-5.2-8.2-11.3-10.9-17.7c-1.5-3.6-3.5-7-4.4-10.8c-0.4-1.8-0.3-3.6-0.5-5.4c0-0.4-0.1-0.9-0.3-1.3
	c-0.5-1.4-0.9-2.7-0.7-4.2c0.1-1-0.1-2-0.5-2.9c-0.8-1.8-0.5-3.6-0.3-5.4c0.1-0.5,0.3-0.8,0.8-0.9c0.6,0,0.8,0.5,1,0.9
	c0.6,1.4,1.5,2.4,2.8,3.2c1.2,0.8,2.4,1.7,3.4,2.8c1.2,1.3,2.8,2.2,4.2,3.4c3.9,3.5,8.7,5.5,13.5,7.4c2.1,0.8,4.2,1.6,6.4,2.4
	c2.1,0.8,4.3,1.3,6.5,1.7c0.7,0.1,1.3,0.2,2,0.5c0.8,0.4,1.6,0.5,2.4,0.5c2.2-0.1,4.5,0.3,6.7,0.3c1.2,0,2.4,0.5,3.6,0.7
	c2,0.3,4.1,0.2,6.1,0.2c1,0,1.9,0.1,2.8,0.5c0.8,0.3,1.7,0.5,2.6,0.5c6.6,0.2,13.1,0.4,19.7,0.2c4.2-0.1,8.5-0.2,12.7-0.2
	c0.7,0,1.4-0.2,2.1-0.4c0.9-0.3,1.8-0.5,2.7-0.5c3.3,0.1,6.4-1,9.5-1.9c4.3-1.3,8.5-3,12.9-4.2c4-1.1,7.7-2.8,11.6-4.3
	c2.2-0.9,4.2-2.1,5.9-3.8c1.1-1.1,2.6-1.8,3.8-3c3.8-4.2,7-8.9,10.1-13.6c0.3-0.5,0.5-1.2,1.3-1.2c0.4,0.6,0.4,1.4,0.4,2.1
	c0,1,0.1,1.9,0.6,2.8c0.2,0.3,0.3,0.6,0.2,0.9c-0.2,1.8,0.4,3.7-0.4,5.4c0,0,0,0.1,0,0.1c1.3,3-1.1,5.9-0.5,8.9c0,0.2,0,0.5-0.1,0.7
	c-1.1,1.9-1,4.1-1.1,6.2c0,0.2,0,0.4-0.1,0.6c-1.1,1.7-0.7,3.7-0.9,5.6c-0.2,2.1-1,4.1-1.7,6.1c-2,5.2-3.4,10.6-5.8,15.6
	c-3.2,6.8-7.2,12.9-14.1,16.5c-3.6,1.9-7.2,3.9-11.1,5c-0.4,0.1-0.8,0.1-0.9,0.7C164.2,223.3,162.8,224.2,161.2,224.1L161.2,224.1z"
	/>
<path d="M201.1,146.1c-1.5,2.1-3.1,4.3-4.5,6.5c-1.4,2.1-2.7,4.1-4.5,5.9c-1.3,1.2-2.1,2.8-3.5,4c-4.2,3.7-9.1,6.1-14.3,8
	c-4.9,1.8-9.9,3-14.7,4.8c-3.1,1.2-6.4,2-9.6,2.8c-1.7,0.4-3.6,0.3-5.3,0.5c-9.9,1.5-19.8,0.7-29.7,0.9c-2.3,0.1-4.5-0.1-6.8-0.2
	c-0.3,0-0.6,0-0.8-0.1c-2.2-1-4.5-0.7-6.8-0.8c-1.8-0.1-3.5-0.2-5.2-0.6c-2.1-0.6-4.4-0.4-6.5-0.5c-1.6-0.1-3.2-0.4-4.8-0.8
	c-2.1-0.5-4.2-1.1-6.3-1.5c-0.3-0.1-0.6,0-0.8-0.2c-4.3-2-8.9-3.2-13.2-5.3c-4.7-2.3-8.5-5.5-12.3-8.9c-0.4-0.3-0.7-0.7-1.1-0.9
	c-2.2-1.5-4.2-3.1-5.3-5.7c-0.9-1.5-2.2-2.6-3.2-4c-0.3-0.4-0.8-0.8-0.9-1.2c-0.5-1.6-1.7-1.6-3-1.7c-3-0.1-5.9,0.3-8.6,1.5
	c-1.4,0.6-2.8,0.7-4.2,0.7c-1.5,0-3,0.1-4.4,0.1c-0.5,0-0.8-0.1-1-0.6c-1.1-1.7-1.7-3.4-1.6-5.5c0.1-3.1-0.1-6.3,0.9-9.4
	c0.2-0.7,0.2-1.5,0.2-2.2c0-2.1,0.9-4.1,1-6.2c0.2-2.8,1.4-5.2,2.3-7.7c0.4-1.1,1-2.1,1.6-3c0.5-0.8,1.1-1.2,2.2-0.9
	c2.8,0.7,5.5,1.6,8.3,2.1c0.9,0.2,1.8,0.7,2.6,1.2c2.1,1.1,4.3,2.1,6.4,3.2c0.9,0.5,1.5,0.3,2.1-0.4c0.3-0.4,0.7-0.8,0.9-1.2
	c3.1-5.7,6.9-11,11-16c2.8-3.5,6-6.9,10-9.1c0.1,0,0.2-0.1,0.2-0.1c0.4,0.7,0.1,1.3-0.2,1.9c-0.8,1.9-1,4-1.9,5.9
	c-0.3,0.6-0.1,1.3-0.2,2c-0.1,1.5,0.2,2.9-0.2,4.4c-1.8,3-3.6,5.9-5.7,8.7c-1.9,2.6-3.5,5.4-4.1,8.5c-0.5,2.2-1,4.4-1,6.7
	c0,3,0.2,6.1-0.2,9.1c-0.1,0.4,0,0.8,0.1,1.2c0.3,1.8,0.9,3.6,1.3,5.4c0.2,0.9,0.6,1.9,1.3,2.6c2.7,2.8,5.3,5.7,8.3,8.2
	c3.5,2.8,7.4,5,11.8,6.1c0.9,0.2,1.7,0.6,2.6,1c2.7,1.3,5.7,2,8.5,2.9c2.8,0.9,5.7,1.1,8.6,1c0.3,0,0.7,0,0.9,0.1
	c2.6,0.9,5.3,0.9,7.9,0.8c1.8,0,3.3,0.9,5.1,0.9c0.7,0,1.3,0.1,2,0.1c8.6,0,17.1,0,25.7,0c0.3,0,0.6,0.1,1,0c4-1,8.2-0.8,12.1-2.3
	c4.4-1.7,9-2.4,13.3-4.3c2.8-1.2,5.7-1.9,8.4-3.2c3.1-1.5,6.2-3,8.3-5.9c1.9-2.7,4.1-5.2,5.9-8c1.2-2,2.4-4.1,3.4-6.1
	c1.9-3.7,3.3-7.7,2.4-11.9c-0.5-2.3-0.6-4.6-1.2-6.8c-0.5-1.9-1.3-3.6-1.8-5.5c-0.3-1.1-1.2-1.9-1.9-2.7c-2.2-2.6-4.3-5.2-6.7-7.5
	c-0.8-0.8-1.8-1.2-2.2-2.3c-0.1-0.4,0-0.7,0.2-1c1.1-2.1,1.7-4.2,2.5-6.4c0.1-0.4,0.2-1,0.8-1c1.8,0.9,3.5,1.9,5.3,2.8
	c1.3,0.7,2.2,1.9,3.3,3c3.4,3.3,7,6.4,9.5,10.6c0.4,0.6,0.7,1.2,0.9,1.9c0.2,1.2,1.2,1.6,2.3,1.1c5.1-2.3,10.1-4.8,15.1-7.4
	c1.7-0.9,3.5-1.4,5.3-2c0.8-0.3,1.6,0.1,2,0.9c0.5,1,1,1.9,1,3c0.3,4.9,0.1,9.9,0,14.8c0,1.8-0.1,3.5-0.1,5.3c0.1,2.6-0.9,5-0.9,7.6
	c0,1.8-1.1,2.7-2.2,3.7c-0.8,0.8-2.1,0.6-3.1,0.6c-2.3,0.1-4.5,0-6.7-0.6c-2.4-0.7-5-1-7.3-2.1c-0.4-0.2-0.8-0.2-1.1,0.3
	C204.2,141.6,202.7,143.9,201.1,146.1L201.1,146.1z"/>
<path class="st1" d="M64.9,107.7c0.5-0.9,0.3-2,0.2-2.9c-0.3-3.2,1.2-5.9,1.9-8.8c0.2-0.8,0.6-1.6,0.7-2.4c2.9-6,7.7-10.1,13.8-12.6
	c1.9-0.8,3.9-1.8,6.1-1.7c0.3,0,0.6,0,0.8-0.2c3.9-2.2,8.2-2.9,12.4-4.1c3.6-1,7.2-1.7,10.9-2.1c1.1-0.1,2.1-0.6,3.1-0.9
	c4.3-1.4,8.4-3.1,12.4-5.2c1.3-0.7,2.3-1.5,3.1-2.7c2.1-3.3,4.4-6.3,6.3-9.8c1.2-2.3,2.3-4.7,3.1-7.2c1.4-4.6,4.8-7.2,8.9-8.8
	c3.7-1.5,7.6-2.7,11.6-2.1c3.9,0.6,7.7,1.9,10.9,4.5c0.6,0.5,1.2,1.2,1.3,2c0.2,1.9,1.6,2.3,3.1,2.7c1.7,0.5,2.8,1.9,4,3.1
	c3.1,2.9,4.5,6.7,5.6,10.6c0.2,0.8,0.2,1.7,0.2,2.6c0.1,1.9,0.1,3.8,0.1,5.7c0,0.4,0.1,0.9,0.2,1.3c1.1,2.4,0.9,4.8,0.1,7.2
	c-0.4,1.2-0.6,2.3-0.5,3.5c0,0.6-0.2,1.3-0.3,1.9c-0.2,1.1-0.7,2.1-1.2,3.1c-1.9,3.6-3.5,7.4-5.6,11c-1.2,2-2.5,3.8-4.2,5.4
	c-3,2.9-5.7,6-8.8,8.8c-3.6,3.2-7.3,6.3-11.6,8.6c-0.9,0.5-1.7,1.2-2.5,1.8c-0.4,0.3-0.8,0.8-1.4,0.4c-0.5-0.8-0.3-1.6,0.1-2.4
	c0.7-1.4,1.2-2.8,1.9-4.2c1.1-2.3,3-4,5.1-5.2c1.9-1.1,3.4-2.7,4.9-4.4c1.3-1.4,2.5-2.9,3.8-4.3c0.9-1.1,2-2,3.2-2.8
	c2.4-1.6,4.4-3.5,5.4-6.2c0.5-1.3,1.4-2.5,2.3-3.6c2.1-2.9,3.7-6,4.3-9.5c0.1-0.5,0.3-1.2-0.3-1.5c-0.6-0.3-1.2,0-1.6,0.4
	c-1.4,1.2-2.2,2.7-3,4.3c-1,1.8-1.6,3.8-2.9,5.4c-2.1,2.5-4.4,4.8-6.8,7c-3,2.8-6.2,5.3-9,8.2c-0.6,0.6-1.2,1.2-2.1,1.3
	c-0.3,0.1-0.6,0.2-0.8,0.4c-3.1,2.6-6.5,4.7-9.9,6.7c-2.2,1.3-4.1,2.9-6,4.5c-2.1,1.8-4.4,3.2-7.2,3.8c-2.5,0.5-4.5,1.9-6,4.1
	c-1,1.5-2.5,2.4-4.2,3c-2.6,0.9-5.3,1.1-8,1.4c-0.7,0.1-1.8-0.1-1.9,0.7c-0.1,0.8,1,0.9,1.6,1.1c1,0.4,2.1,0.5,3.2,0.3
	c2.4-0.4,4.9-0.5,7.4-0.5c2.1,0,4.1-0.3,5.7-1.8c0.4-0.3,0.8-0.6,1.3-0.8c3.3-1.3,6.4-2.9,9.6-4.3c0.9-0.3,1.7-0.6,2.7-0.5
	c1.5,0.1,2.7,1.4,2.6,2.9c-0.8,1-1.9,1.5-3,2.1c-5.1,2.8-10.2,5.2-15.5,7.4c-2.9,1.2-5.8,1.8-8.9,1.7c-2.6-0.1-5.1,0-7.7,0.2
	c-3.5,0.3-7-0.3-10.5-0.2c-0.6,0-1.1-0.2-1.6-0.4c-1.5-0.5-2.9-1.1-4.5-1.1c-0.5,0-0.9-0.2-1.3-0.4c-0.6-0.3-1.3-0.6-2.1-0.6
	c-3.3-0.2-5.9-2.1-8.6-3.8c-0.1-0.1-0.2-0.3-0.3-0.5c0-2.3,3.1-4.6,5.2-3.7c3.9,1.8,7.9,2.3,12.2,2.1c0.5,0,1.3,0.2,1.4-0.5
	c0.1-0.6-0.6-0.8-1-1.1c-0.9-0.7-2-1-3.1-1.2c-2.4-0.5-4.8-1.3-7.3-1.4c-2.6-0.1-4.5-1.5-6.2-3.2c-1-1-2.2-1.8-3.4-2.4
	c-1.7-0.9-3.2-2.2-4.2-3.8c-0.3-0.5-0.7-1.3-1.3-0.9c-0.6,0.3-0.5,1.1-0.4,1.8c0.2,1,0.7,1.8,1.5,2.4c1.1,0.9,2.4,1.8,3.4,2.9
	c0.9,1,1.2,2.2,1,3.4c-0.2,1.2-0.4,2.5-1.3,3.5c-1.1,0.1-1.9-0.6-2.6-1.2c-1.7-1.5-3.2-3.2-4.9-4.7c-1.2-1-1.4-2.7-2.2-3.9
	c-0.2-0.3-0.3-0.6-0.5-0.9c-0.8-1.4-1.3-3-2.1-4.4C64.6,109.6,64.8,108.7,64.9,107.7L64.9,107.7z"/>
<path class="st2" d="M81.4,128.1c1.9,1.3,4,2.3,6.1,3.3c0.5,0.2,1.1,0.3,1.6,0.4c1.1,0,2.2,0.3,3.2,0.9c0.3,0.2,0.7,0.3,1,0.3
	c1.6-0.1,3,0.5,4.4,1c0.8,0.3,1.5,0.4,2.3,0.4c3-0.1,6,0.4,9,0.2c3.8-0.2,7.7-0.2,11.5-0.2c2.1,0,4-0.9,5.9-1.6
	c6.1-2.4,12-5.3,17.7-8.7c0.3-0.2,0.6-0.5,1-0.7c0.1-0.1,0.2-0.1,0.3,0c0.4,0.8,0.2,1.6,0.1,2.5c-0.1,0.4-0.1,0.9-0.1,1.3
	c0,1.2,0.2,2.3,1.4,2.8c1.2,0.5,2.5,0.4,3.6-0.5c1.6-1.3,1.9-3.4,0.9-5.7c-0.4-1.1-1.1-2-1.3-3.2c0-0.1,0.1-0.2,0.2-0.3
	c3.4-2.7,7.3-4.5,10.6-7.2c5.9-4.8,11.1-10.1,16.1-15.8c1.6-1.8,2.6-4,3.6-6.2c1.6-3.3,3.3-6.6,4.9-9.9c0.2,3.1-0.8,6-1.5,8.9
	c-0.5,2-0.8,3.9-1.1,5.9c-1,1.7-1.2,3.7-2.1,5.5c-0.5,1-0.9,2-1.3,3c-0.4,1.7-1.8,2.7-2.8,4c-1.9,2.6-4,5.1-6.3,7.4
	c-0.8,0.8-1.5,1.6-2.3,2.4c-0.5,0.6-1,1.1-1.3,1.8c-0.9,1.6-2.4,2.5-3.8,3.5c-0.4,0.3-0.8,0.6-1.2,1c-1.1,0.7-1.7,1.9-2.6,2.8
	c-1,1-2,2-3.1,2.8c-0.9,0.8-1.9,1.4-2.8,2.2c-2.5,1.5-5,3.1-7.7,4.3c-1.8,0.9-3.6,1.8-5.4,2.7c-4.1,0.9-7.9,3-12,4.1
	c-0.8,0.1-1.6,0.3-2.5,0.5c-1.3,0.3-2.4,0.7-3.3,1.7c-1.1-1.1-2.5-0.9-3.6-0.4c-2.1,0.9-4.2,0.9-6.3,1.1c-0.8,0.1-1.7,0.2-2.4,0.5
	c-2.5,0.7-5,0.4-7.5,0.5c-3.2-1.5-6.6-0.8-9.9-1.4c-0.9-0.5-1.9-0.8-2.8-1.1c-3.1-1.1-6.2-2.4-8.8-4.4c-1-0.6-2-1-3-1.6
	c-1.9-1.8-3.8-3.6-5.5-5.5c-1.6-1.8-2.2-4.1-2.9-6.4c-0.5-1.7-1.1-3.3-1.5-5c-0.4-1.8-0.4-3.7-0.5-5.6c0.1-0.4,0-0.8,0.6-0.9
	c0.4,0.8,0.9,1.7,1.2,2.6c0.2,0.7,0.6,1.2,1.2,1.6c1.4,1.1,2.6,2.4,3.9,3.7c0.9,0.9,1.9,1.6,3.1,2.2c0,0.1,0.1,0.1,0.1,0.2
	c0,1-0.6,1.7-0.8,2.6c-0.3,1-0.6,2.1-0.6,3.1c0,2.2,1.5,3.9,4.4,3.3c0.9-0.2,1.3-1.1,1.2-2.2c-0.1-1.1-0.4-2.2-0.5-3.3
	C81.1,129.1,80.7,128.5,81.4,128.1L81.4,128.1z"/>
<path d="M121.1,226.4c1.6-0.4,3.2-0.2,4.9,0.1c-0.3,4.2-0.3,8.4-0.2,12.6c0.1,1.4,0.1,2.8,0.1,4.2c-0.1,3.6,0.6,7.2,1.3,10.6
	c0.9,4.5,0.4,9,0.8,13.5c0.1,0.7,0,1.4,0.3,2c1.1,2.7,0.6,5.7,1.6,8.4c0.4,1.2,0.3,2.5,0.2,3.7c-0.1,2.1,1.3,3.8,1.2,5.9
	c-0.1,1.1,0.3,2,0.7,3c0.5,1.2,1.3,1.8,2.5,1.7c3.5-0.3,5.2,2.4,7.1,4.5c0.8,0.9,0.4,2.1,0,3.2c-0.6,1.6-1.9,2.6-2.9,3.9
	c-2.3,2.6-5.3,3.3-8.5,3.5c-2,0.1-4,0.1-6,0.1c-2.4,0-6.1-2.6-6.8-4.9c-0.3-0.9-0.3-1.9,0.4-2.7c0.8-0.9,1.3-2,1.6-3.3
	c0.2-1.4,1.2-2.2,2.7-2.3c1.7-0.1,3.2-0.6,4.8-1.1c0.7-0.2,1-0.6,1.1-1.4c0.1-1,0.2-1.9-0.1-2.8c-0.9-2.2-0.9-4.6-1-6.9
	c0-0.8,0-1.7-0.3-2.4c-0.8-1.6-0.6-3.3-0.7-5c0-0.7,0-1.4-0.3-2c-0.9-2.3-0.7-4.8-0.8-7.2c-0.2-2.5-0.1-5-0.1-7.4c0-0.2,0-0.3,0-0.5
	c-1.1-3.3-0.6-6.8-1.3-10c-0.9-4.4-0.5-8.7-1-13.1C121.9,231.7,121.4,229.1,121.1,226.4L121.1,226.4z"/>
<path d="M161.2,224.1c1.1-0.5,2.3-0.9,3.5-1.1c0.4-0.1,0.8-0.3,1,0.2c1.2,4.6,3.3,8.9,5.2,13.3c0.8,1.8,1.7,3.5,2.4,5.3
	c1.6,4.1,3.9,7.7,6,11.5c1.7,3,3.2,6,4.6,9.1c0.6,1.3,1.4,2.3,2.4,3.2c0.8,0.7,1.8,0.5,2.7,0.3c1.5-0.4,3-1,4.5-1.5
	c2.1-0.7,3.8-0.2,4.8,2.1c0.9,2,0.8,4.1,0.7,6.1c-0.1,1.4-1.3,2.3-2.6,3c-1.4,0.7-2.9,1.7-4.4,2.1c-2.3,0.6-4.7,1.7-7.1,1.3
	c-1.8-0.3-3.8-0.7-4.8-2.7c-0.4-0.9-1.4-1.5-1.5-2.6c-0.2-1.9,1.1-3,2.3-4.1c1.9-1.8,2-1.7,0.6-4c-2.3-3.9-4.2-8-6.3-12.1
	c-0.7-1.4-1.5-2.8-2.4-4.1c-0.5-0.7-0.8-1.4-1-2.3c-0.5-2-1.7-3.7-2.6-5.5c-2.5-4.9-4.6-9.9-6.8-14.9
	C162.3,225.8,161.7,224.9,161.2,224.1L161.2,224.1z"/>
<path d="M88.7,219.1c1.1,0.5,2.2,1,3.3,1.5c-1.9,2.4-3.8,4.8-5.3,7.5c-1.2,2.3-2.1,4.7-3.5,6.8c-0.9,1.3-1.6,2.7-2.1,4.2
	c-0.6,1.6-1.4,3.1-2.4,4.5c-2.9,4.4-4.9,9.3-7.7,13.7c-0.9,1.4-1.2,3.1-1.8,4.6c-0.2,0.5,0.2,0.7,0.4,1c1.5,1.6,1.4,3.3,0.7,5.3
	c-1.1,3.2-3.3,4.9-6.3,6.3c-2.5,1.2-4.9,1.4-7.5,1.3c-3-0.1-5.8-2.9-6.2-5.9c-0.2-1.9,1.9-5,3.7-5.8c2.9-1.1,5.8-1.7,8.9-1.5
	c2.3,0.1,3.5-1.2,4.4-3c5.2-10.3,10.5-20.6,15.6-30.9C84.6,225.4,86.7,222.3,88.7,219.1L88.7,219.1z"/>
<path d="M87.6,243.3c0.4,0,0.9,0.1,1.2,0.4c4.2,2.7,8.3,5.6,12.2,8.8c0.8,0.7,1.9,1.1,2.9,1.6c3.6,1.8,6.8,4.4,10.4,6.3
	c0.9,0.5,0.8,1.3,0.5,2c-0.3,0.9-1.4,1.6-2.2,1.4c-1.1-0.3-2.1-0.9-3-1.5c-7.2-4.9-14.5-9.7-21.8-14.4c-0.7-0.4-1.3-0.9-1.8-1.5
	c-0.4-0.5-1.2-0.9-0.7-1.8C85.8,243.8,86.6,243.4,87.6,243.3L87.6,243.3z"/>
<path d="M137.4,263.2c-0.7,0-1.5-0.1-1.8-1c-0.3-1.1,0.4-1.8,1.2-2.2c1.3-0.6,2.6-1.2,3.8-2c2.2-1.4,4.3-2.9,6.1-4.9
	c2.2-2.4,5.2-3.7,7.9-5.4c1.6-1,3.3-2,4.7-3.5c0.6-0.6,1.4-0.8,2.2-1.1c0.7-0.2,0.9,0.4,0.9,0.9c0,1.3-0.5,2.5-1.6,3
	c-5.5,2.7-10.1,6.7-14.7,10.6c-2.1,1.8-4.6,3.1-6.6,5C139,263.1,138.2,263.1,137.4,263.2L137.4,263.2z"/>
<path d="M107.1,187.9c2.9,0.1,5.6-0.8,8.3-0.5c2.5,0.3,4.9,0.6,7.4,1c2.5,0.4,5,0.4,7.5,0.8c3.9,0.6,7.8,0,11.7,0.6
	c2.5,0.4,5,0.2,7.5,0.5c1.7,0.2,3.5,0.4,5.2,0.5c1.1,0,1.1,1.2,1.3,2c0.1,0.8,0.1,1.6,0.1,2.4c0.1,1.5,0.6,2.1,2,2.3
	c0.6,0.1,1.1,0.2,1.6,0.4c1.9,0.6,2.1,1,1.9,3c-0.2,1.3-1.2,2.3-2.6,2.3c-1.4,0-2,0.7-2.3,1.9c-0.3,1.3-0.8,2.5-1,3.8
	c-0.3,1.3-1.3,1.9-2.4,2.1c-1.8,0.4-3.8,0.5-5.7,0.7c-2.9,0.3-5.8,0.1-8.6,0.8c-1.1,0.3-2.2,0-3.3,0.1c-4.5,0.7-9,1-13.4,0.5
	c-2.7-0.3-5.5,0.1-8.2-0.5c-3.3-0.8-6.6-0.2-9.9-0.6c0,0-0.1,0-0.1,0c-2.3,1-2.9-0.7-3.5-2.4c-0.5-1.3-0.9-2.6-1-4.1
	c0-1-0.5-1.5-1.4-1.8c-0.7-0.2-1.4-0.4-2-0.8c-1.4-0.9-2.1-3.1-1.6-4.7c0.1-0.4,0.3-0.6,0.6-0.7c1.2-0.5,2.2-1.2,3.6-1.1
	c1.5,0.1,1.7-0.3,2-1.7c0.4-1.8,0.4-3.6,1.1-5.4c0.2-0.7,0.6-1.1,1.3-1.1C104.6,188.1,105.9,187.8,107.1,187.9L107.1,187.9z"/>
<path d="M133.5,217.7c-1-0.3-1.8,0.4-2.8,0.5c-4.9,0.2-9.9-0.1-14.9,0c-0.8,0-1.3-0.3-1.3-1.2c0-1,0.6-1.2,1.3-1.1
	c3.5,0.8,7.1,0.3,10.6,0.6c2.7,0.2,5.3,0.1,7.9-0.6c0.5-0.1,1.2-0.1,1.2,0.3c0.1,0.5-0.1,1.2-0.8,1.4
	C134.4,217.7,134,217.8,133.5,217.7L133.5,217.7z"/>
<path class="st3" d="M121.2,182.5c3.5,1.1,7,0.9,10.5,0.9c0.5,0,1.1-0.3,1.2,0.5c0.1,0.6-1.1,1.7-1.5,1.5c-1.1-0.4-2.1-0.2-3.2-0.2
	c-2.5,0.2-4.8-0.8-7.2-0.6c-0.7,0-1.2-0.5-1.1-1.2C119.9,182.8,120.6,182.7,121.2,182.5L121.2,182.5z"/>
<path class="st2" d="M128.8,75.9c0.1-2.2,1.2-4.2,1.5-6.4c0.1-0.9,0.1-1.8,1.1-2.3c1.5-0.8,2.8-0.2,3,1.5c0.1,0.6,0.2,1.2,0.2,1.8
	c0.1,0.8,0.5,1.3,1.2,1.7c2,1,4,2.1,5.9,3.1c1.6,0.8,2.9,0.1,3.1-1.6c0.1-1.1,0.2-2.1,0.2-3.2c0-1.3,0.2-2.5,0.6-3.7
	c0.8-2,0.5-2.8-1.2-4.1c-0.1-0.1-0.3-0.1-0.4-0.3c-0.4-0.6-1.4-0.8-1.2-1.6c0.2-0.9,0.9-1.8,1.9-2c2.3-0.5,3.1-2,3-4.2
	c0-1.3,0.4-2.6,1.6-3.4c1.1-0.8,2.1-0.5,2.5,0.9c0.5,2.1,0,4.1-0.7,6.1c-0.5,1.5-0.1,2.4,1.3,3.1c1,0.5,2,1.1,3.1,1.5
	c2.6,0.8,3.9-0.6,4.1-3.1c0.4-4,0.2-8,0.3-12c0-0.8,0.2-1.6,1-2c0.9-0.4,1.8-0.3,2.6,0.3c0.8,0.7,0.6,1.7,0.6,2.5
	c0.1,2.9,0,5.8-0.2,8.7c0,0.8-0.4,1.5-0.7,2.3c-0.6,1.5-0.5,3.1-0.4,4.6c0.1,1.3,0.9,2.2,2.2,2.7c3.8,1.3,7.7,2.6,10.4,5.8
	c0.5,0.6,1,1.1,0.6,1.9c-0.5,1.1-1.5,1.3-2.4,0.4c-2.8-2.7-6.4-3.8-10-4.8c-1.2-0.3-2,0.1-2.1,1.3c-0.4,3.1-1.7,5.9-2.1,8.9
	c-0.1,1-0.8,1.9-0.8,3c0,1.5,0.5,2.6,1.5,3.6c1,1,2.1,1.7,3.5,1.7c0.8,0,1.4,0.2,1.5,1.2c0,1-0.6,1.5-1.5,1.7
	c-1.2,0.3-2.3,0.2-3.4-0.4c-1.4-0.7-1.6-0.5-1.7,1c0,1.3-0.9,2.1-1.7,2.9c-0.1,0.2-0.4,0.3-0.5,0.1c-0.8-0.9-2.2-1.4-2.1-3
	c0.1-0.8-0.1-1.6-0.1-2.4c0-2.8-2.3-3.8-4-5.3c-0.4-0.4-0.9-0.8-1.5-0.9c-0.9-0.2-1.7-0.1-2.2,0.9c-0.7,1.4-1.3,2.9-1.4,4.5
	c-0.1,0.7-0.4,1.5-0.6,2.2c-0.9,2.6-0.9,5.3-0.7,7.9c0.1,1.3,1.1,2.3,2.4,2.8c0.4,0.2,0.9,0.3,1.4,0.4c1.2,0.4,1.3,1,0.4,1.8
	c-0.1,0.1-0.2,0.2-0.3,0.2c-2,0.7-4,1.5-6.1,2c-1.2,0.3-2.2-0.5-2-1.7c0.4-3.2-1.6-4.8-3.7-6.5c-1.6-1.2-3.2-2.4-4.9-3.4
	c-1-0.6-1.6-0.3-2,0.8c-1.4,4.2-2,8.6-3.7,12.7c-0.7,1.8-0.4,2.2,1.2,3.4c1.5,1.2,3.1,2.3,4.1,4.1c0.5,0.9,0.1,1.2-0.7,1.4
	c-1.3,0.2-2.6-0.1-3.7-0.7c-1.1-0.7-2-0.5-2.9,0.4c-1.4,1.3-1.9,1.3-2.9,0.6c-0.9-0.7-1.2-1.5-0.7-2.5c0.2-0.4,0.4-0.8,0.5-1.2
	c0.2-0.7,0.1-1.2-0.6-1.7c-1.5-1.1-2.9-2.3-4.3-3.4c-1.8-1.5-3.3-1.1-4.3,1c-0.7,1.4-1,2.8-0.9,4.4c0.1,2.5-1,4.7-1.4,7.1
	c-0.2,1.3,0,2.4,0.5,3.6c0.5,1.3,0.2,2.9-0.7,3.8c-0.5,0.5-0.8,0.4-1-0.2c-0.6-1.4-1.2-2.8-2.1-4c-0.4-0.6-0.8-1.1-1.4-1.4
	c-1.7-0.8-3-2.2-4.4-3.4c-0.3-0.3-0.7-0.5-1.1-0.8c-2.2-1.3-2.6-1.2-3.7,1.1c-0.3,0.6-0.7,1.2-1,1.8c-0.5,0.9-1.3,0.8-2.1,0.5
	c-0.9-0.4-1.4-1.4-1.1-2.2c0.4-1.1,0.8-2.2,1.4-3.2c0.6-1.1,0.1-1.8-0.6-2.5c-0.7-0.6-1.5-0.9-2.2-1.5c-1-0.8-1.7-0.5-2.5,0.3
	c-0.9,0.9-1.6,2.1-2.3,3.2c-0.5,0.9-1.4,1-2.3,0.9c-0.7-0.1-1.1-0.4-0.9-1.2c0.3-1.9,0.6-3.8,0.9-5.8c0-0.2,0.1-0.4,0.1-0.6
	c0.9-2.5,0.6-3.7-1.8-5c-2.2-1.2-4-3.1-6.4-4.1c-0.6-0.2-1.2-0.9-1-1.5c0.2-0.9,0.7-2,1.8-2.2c0.9-0.2,1.9-0.3,2.7,0.4
	c1.8,1.3,3.6,2.6,5.4,4c1.1,0.8,1.8,0.7,2.4-0.6c0.3-0.8,0.5-1.6,0.7-2.4c0.3-1.6,1.4-2.5,2.8-3.3c0.5-0.3,0.8-0.2,1.1,0.3
	c0.6,1.1,0.6,2.2,0.1,3.2c-0.8,1.9-1.5,3.8-1.4,6c0.1,1.4,0.4,2.5,1.7,3.3c0.9,0.5,1.7,1.2,2.5,1.8c0.5,0.3,0.8,0.3,1.1-0.2
	c0.9-1.6,1.7-3.1,1.6-5c-0.1-1.4,0.2-2.9,0.8-4.2c1.4-3-0.3-5.6-2.7-6.8c-1.7-0.8-3.1-1.9-4.4-3.3c-0.8-0.9-0.7-1.9-0.3-2.9
	c0.3-0.9,1.4-1.2,2.4-0.6c1.5,0.8,3,1.8,4.5,2.7c1.3,0.8,2.1,0.4,2.3-1.1c0.1-0.6,0-1.2,0.1-1.8c0.2-1,1.3-1.8,2.3-1.7
	c1.1,0.1,1.6,0.8,1.6,2.1c0,1.3-0.2,2.6-0.6,3.9c-0.5,1.4-0.2,2.5,1.1,3.3c1.7,1.2,3.4,2.3,5.2,3.4c1.7,1.1,3.1,0.5,3.5-1.5
	c0.4-1.8,0.6-3.7,1-5.5c0.1-0.8,0.4-1.5,0.6-2.3c0.3-1.6,0.5-3.3-0.5-4.8c-0.6-1-0.4-1.8,0.3-2.6c1-1.1,2.2-1.9,3.6-2.3
	c1.4-0.5,2.4,0,2.4,1.5c0.1,2,1.2,3.1,2.7,4.1c1.1,0.7,2.3,1.3,3.5,1.9c1.2,0.6,2.6,0,2.7-1.2c0.2-2.2,0.5-4.4,1.3-6.5
	C128.5,77.1,128.5,76.5,128.8,75.9L128.8,75.9z"/>
<path class="st4" d="M145.2,123.4c-0.1,0-0.1,0-0.2,0c-0.4-1.9-2-2.8-3.8-2.3c-0.8,0.2-1.5,0.5-2.2,0.8c-2.9,1.4-5.9,2.7-8.8,4
	c-0.5,0.2-1,0.5-1.4,0.9c-1.1,1.1-2.5,1.4-4,1.6c-1.7,0.1-3.4,0.1-5.1,0.2c-1.5,0.1-2.9,0.2-4.4,0.5c-1.6,0.2-3.1-0.4-4.4-1.2
	c-0.6-0.4-0.5-1,0.4-1.3c1.3-0.4,2.8-0.3,4.1-0.5c3-0.4,6.1-0.7,8.6-2.9c0.3-0.3,0.6-0.5,0.8-0.8c1.7-2.6,4.2-4.1,7.2-4.7
	c2.3-0.5,4.2-1.7,5.9-3.2c3.3-3.1,7.3-5.2,11.1-7.7c1.8-1.2,3.6-2.3,5.2-3.8c0.2-0.2,0.5-0.5,0.8-0.5c1.4-0.1,2-1.1,2.9-1.9
	c4.3-4,8.8-7.6,12.8-11.9c1.7-1.8,3.4-3.7,4.3-6.1c0.9-2.2,1.9-4.4,3.8-6.1c0.3-0.3,0.6-0.5,0.9-0.7c0.5-0.2,1.1-0.3,1.5,0
	c0.4,0.3,0.5,0.9,0.4,1.5c-0.7,4.4-3,8-5.5,11.5c-0.7,1-1.2,2-1.7,3.1c-0.8,1.9-2.3,3.5-4,4.5c-3.2,2-5.4,4.9-7.8,7.6
	c-1.5,1.6-2.9,3.3-4.9,4.5c-2.9,1.7-5.1,4.1-6.2,7.3c-0.2,0.6-0.5,1.2-0.8,1.7c-0.5,0.8-0.6,1.7-0.4,2.6c0,0.1,0,0.1,0,0.2
	C148.6,121.9,146.9,122.8,145.2,123.4L145.2,123.4z"/>
<path class="st5" d="M77.3,125.8c0.4-1,0.8-2,1.1-3c0.5-1.8-0.2-3.3-1.7-4.5c-0.9-0.8-2-1.5-2.9-2.3c-1.2-0.9-1.6-3.1-1-4.4
	c0.2-0.5,0.5-0.8,1-0.2c0.2,0.3,0.6,0.5,0.8,0.8c1.3,2.2,3.3,3.6,5.5,4.8c1.3,0.7,2.4,1.7,3.4,2.8c1.6,1.6,3.6,2,5.7,2.3
	c3.5,0.4,6.9,0.9,10,2.8c0.1,0,0.1,0.1,0.2,0.1c0.5,0.3,1.1,0.7,0.9,1.3c-0.2,0.6-0.9,0.6-1.5,0.6c-4.4,0.2-8.8-0.2-12.8-2.2
	c-0.5-0.2-0.9-0.2-1.4-0.2c-1.3,0.2-3.3,2.2-3.5,3.6c-0.1,0.1-0.2,0.2-0.3,0.1C79.5,127.5,78.2,126.9,77.3,125.8L77.3,125.8
	L77.3,125.8z"/>
<path class="st6" d="M127.9,105.7c-0.3-2.1,0.8-3.9,1.1-5.8c0.1-0.4,0.1-0.8,0.2-1.2c0.3-1.1,1.1-1.6,2.2-1.3
	c0.6,0.2,1.1,0.3,1.7,0.5c2.5,0.8,2.9,1.6,2.5,4.2c-0.4,2.5-0.5,5-1.4,7.5c-0.4,1.1-1,1.2-1.9,1.1c-1.6-0.4-3-1.3-4.1-2.5
	C127.6,107.5,128,106.5,127.9,105.7L127.9,105.7z"/>
<path class="st6" d="M153.1,91.7c-0.3,1.3-0.5,2.6-0.9,3.9c-0.2,0.9-0.6,1.8-0.6,2.8c0,1-0.6,1.3-1.3,0.6c-1.2-1.1-2.6-1.9-3.9-2.9
	c-0.8-0.6-1.1-1.4-0.8-2.6c0.5-2.1,1.4-4.2,1.5-6.4c0-0.8,0.6-1.2,1.2-1.6c0.5-0.3,0.7,0.4,1,0.6c0.8,0.5,1.6,1,2.4,1.6
	c-0.1,0.7-0.6,1.1-0.7,1.9c0,1.3,0.2,1.7,1.5,1.9C152.7,91.4,152.9,91.5,153.1,91.7L153.1,91.7z"/>
<path class="st6" d="M168.5,78.8c-0.2,1.6-0.7,3.2-0.9,4.8c-0.1,1.5-1.1,1.8-2.4,0.9c-1.4-0.9-2.5-2-3.5-3.2
	c-0.4-0.6-0.4-1.3-0.2-1.8c0.4-2.1,0.8-4.3,1.7-6.3c0.7-1.6,0.9-1.6,2.6-1c1.1,0.4,2.1,1,3,1.9c0.3,0.3,0.5,0.6,0.4,1.1
	c-1.8-0.1-2.2,0.2-2.3,1.6c-0.1,0.8,0.2,1.4,1,1.7C168.1,78.5,168.4,78.5,168.5,78.8L168.5,78.8z"/>
<path class="st6" d="M113.6,110.9c1.5,0.4,3.1,0.7,4.3,1.9c0.4,0.4,0.8,0.9,0.6,1.5c-0.6,1.6-0.3,3.2-0.7,4.8
	c-0.3,1.4-0.7,2.7-1.2,4c-0.3,0.9-1.1,0.6-1.6,0.5c-1.5-0.4-2.8-1.2-3.8-2.3c-0.9-0.9-0.4-2.2-0.4-3.3c0.1-1.9,1.1-3.7,1.2-5.7
	C112.2,111.5,112.8,111,113.6,110.9L113.6,110.9z"/>
<path class="st6" d="M142.6,66c-0.1,1.7-0.7,3.2-1,4.9c-0.1,0.5-0.5,0.4-0.8,0.3c-0.8-0.3-1.4-0.7-2-1.2c-0.6-0.5-1-1.1-1.7-1.3
	c-1.8-0.8-2.1-2.2-2-4c0.2-1.7,0.8-3.2,1.3-4.7c0.3-0.8,1.1-0.8,1.8-0.6c1.6,0.4,3,1.2,4.4,2.1c0.8,0.5,1,1.3,0.5,2.2
	c-0.5-0.1-0.7-0.6-1.1-0.9c-0.8-0.6-1.5-0.4-1.8,0.5c-0.6,1.9-0.1,2.6,1.9,2.6C142.3,65.8,142.4,65.9,142.6,66z"/>
<path class="st2" d="M169.4,63c-0.1-0.7,0.1-1.4,0.3-2.2c0.5-1.6,1-3.2,0.9-5c-0.1-1.4,1.1-2.5,2.3-2.4c1.2,0.1,1.9,1.1,2,2.5
	c0.1,1.5-0.8,2.6-1,3.9c-0.2,0.8-0.3,1.7-0.2,2.5c0.1,1.5-0.7,2.4-1.9,3c-1.3,0.7-2.3,0-2.4-1.4C169.4,63.6,169.4,63.4,169.4,63
	L169.4,63z"/>
<path class="st7" d="M77.3,125.8c1.3,0.7,2.4,1.6,3.8,2.2c0.1,0.1,0.2,0.2,0.2,0.2c-0.2,1.4,0.3,2.6,0.5,4c0.4,3.4-1.5,3.6-3.9,3.1
	c-1.7-0.4-2.7-2.4-2.3-4.4C76,129,76.7,127.4,77.3,125.8L77.3,125.8z"/>
<path class="st6" d="M127.2,78.3c-0.1,1.6-0.8,3.1-1,4.7c-0.1,0.6-0.6,0.7-0.9,0.3c-1.1-1.1-2.6-1.8-3.8-2.9
	c-0.4-0.4-0.6-0.8-0.4-1.5c0.5-2,1.2-3.9,1.4-6c0.1-1.2,0.9-1.4,1.9-0.7c0.9,0.6,1.9,0.9,2.5,1.9c-0.2,0.6-0.9,0.8-1.1,1.5
	C125.6,76.8,126.1,77.7,127.2,78.3L127.2,78.3z"/>
<path class="st6" d="M104.4,91c-0.2-2.1,0.8-3.8,1-5.8c0.1-0.6,0.7-1.2,1.6-0.9c0.6,0.2,1.3,0.4,1.9,0.6c1.7,0.6,2,1.3,1.7,3.1
	c-0.3,2-0.5,4.1-1.1,6.1c-0.4,1.1-1,1.2-1.9,0.8c-0.4-0.2-0.7-0.3-1.1-0.5C105.1,93.6,103.9,92.7,104.4,91L104.4,91z"/>
<path class="st6" d="M159.1,57.6c0.1,1.3-0.5,2.4-0.7,3.6c-0.1,0.7-0.6,0.5-1,0.3c-1.5-0.8-2.7-1.9-4-3c-0.7-0.6-0.4-1.8-0.2-2.8
	c0.1-1,0.5-2,0.9-3c0.3-0.9,1-1.1,1.8-0.8c0.9,0.4,1.9,0.9,2.8,1.3c1,0.4,1.4,1.2,1,2.2c-0.2,0.5,0.1,1-0.3,1.4
	c-0.4-0.2-0.3-0.7-0.4-1.1c-0.1-0.6-0.4-1-0.9-1.4c-0.3-0.2-0.7-0.4-1.1-0.1c-0.8,0.5-0.8,1.3-0.7,2.2c0.1,0.8,0.6,1,1.4,1.1
	C158.2,57.6,158.6,57.3,159.1,57.6L159.1,57.6z"/>
<path class="st6" d="M85,94.4c0.1,0.9-0.3,1.8-0.5,2.7c-0.2,1-0.9,1-1.7,0.8c-2-0.7-2.7-2.2-2.1-4.4c0.2-0.7,0.4-1.3,0.6-1.9
	c0.3-1.5,0.6-1.6,2-1.2c0.3,0.1,0.6,0.2,0.9,0.3c0.1,0.2,0,0.4-0.1,0.6C83.6,92.4,83.7,93.5,85,94.4L85,94.4z"/>
<path class="st8" d="M67.7,116.6c-0.2-0.5-0.2-1.1-0.2-1.7c0.2,0.2,0.3,0.5,0.4,0.7C67.6,115.9,67.8,116.3,67.7,116.6L67.7,116.6z"
	/>
<path class="st6" d="M143.1,65.5c0-0.6,0-1.1,0-1.7C143.4,64.4,143.4,65,143.1,65.5z"/>
<path d="M166.5,120c1,0.3,1.4,0.9,1,1.9c-0.5,1.1,0.2,1.8,0.9,2.3c0.9,0.7,1.8,1.2,2.7,1.7c1.1,0.5,2.1,1.1,3.1,1.8
	c1.4,1.1,2.2,0.9,3-0.7c0.6-1.2,1-2.4,1.5-3.6c0.5-1.2,1.1-1.5,2.3-1.2c1.1,0.3,0.9,1.2,1,2c0.1,1.3-0.8,2.3-1.2,3.4
	c-0.2,0.5-0.5,1-0.7,1.5c-0.4,1.1-0.1,2,0.9,2.6c2.8,1.6,5.6,3.1,8.5,4.3c0,0,0.1,0,0.1,0c0.8,0.5,1.9,0.8,1.8,1.9
	c-0.1,1-2,1.8-3.1,1.4c-2.6-1.1-5.4-1.7-7.7-3.6c-1.5-1.2-2.8-0.9-3.7,0.9c-0.4,0.9-0.8,1.8-1.1,2.8c-0.4,1.1,0.1,2,1.3,2.9
	c0.6,0.4,1.2,0.6,1.8,1c1.2,0.8,1.2,1.9,0,2.6c-1.1,0.7-2.2,0.6-3.2-0.3c-1.1-0.9-1.8-0.7-2.4,0.5c-2.1,4-3.8,8.2-5.2,12.5
	c-0.4,1.2-1,1.9-1.8,2.7c-0.4,0.4-0.9,0.4-1.2,0.2c-0.8-0.5-1.5-0.3-2,0.4c-0.1,0.1-0.3,0.3-0.5,0.3c-1.8-0.1-3.8,0.5-5.5-0.7
	c-0.7-0.4-1.4-0.7-2.1-1.1c-1.4-0.7-2.8-0.8-4.2,0.2c-1.1,0.8-2.1,0.3-2.1-1c0-1.3-0.6-2-1.8-2.5c-2.3-1.1-4.5-2.2-6.8-3.3
	c-1.5-0.7-2.6-0.3-3.2,1.2c-0.8,1.9-1.7,3.8-3,5.4c-0.6,0.8-1,1.8-1.4,2.8c-0.2,0.6-0.5,1.1-1,1.4c-0.6,0.5-1.3,0.8-1.9,0.2
	c-0.6-0.6-0.7-1.3-0.2-2.1c1-1.5,2-3.1,2.9-4.7c0.9-1.8,1.8-3.6,2.6-5.4c0.4-0.8,0.3-1.3-0.5-1.8c-2.4-1.7-4.9-3.3-7.6-4.5
	c-0.7-0.3-1.2-0.2-1.6,0.4c-0.8,1.5-1.7,3-2.3,4.6c-0.7,2.1,0.1,3.5,2.2,4c0.9,0.2,1.8,0.3,2.5,1.1c0.7,0.9,0.6,1.9-0.5,2.3
	c-1.5,0.6-3,0.1-4.4-0.5c-2-0.9-2.2-0.9-3.5,0.9c-0.8,1.2-1.8,2.3-2,3.9c-0.1,0.9-0.8,1.2-1.7,1c-0.8-0.2-1.3-1.2-0.9-2
	c0.7-1.4,1.3-2.9,2.1-4.3c0.7-1.1,0.4-2-0.5-2.7c-2-1.7-4.4-2.7-6.8-3.8c-1-0.4-1.7,0.1-2.3,0.8c-2.2,2.6-3.4,5.8-4.8,8.9
	c-0.4,0.8-0.8,1.4-1.6,1.8c-1.1,0.6-1.9,0.1-1.9-1.2c0-0.4,0.1-0.8,0.2-1.2c1.2-2.1,2.1-4.3,3.5-6.2c0.5-0.6,0.8-1.4,1.2-2.1
	c1.2-2.4,0.9-3.4-1.2-4.9c1.1-0.4,2.2-0.1,3.3-0.2c1.1,0,2.2,0,3.3-0.5c0.3-0.1,0.8-0.5,0.9,0.2c2.3,1.6,4.7,3.1,7.2,4.5
	c1.5,0.8,2.1,0.5,2.9-1.1c0.8-1.6,1.4-3.2,2.4-4.6c0.1-1.1,0.9-1.4,1.8-1.6c1.3-0.3,2.5-0.8,3.9-0.8c1.7,0.2,3.1,1.3,4.5,2
	c0.9,0.4,1.7,0.9,2.5,1.4c0.8,0.6,1.3,0.4,1.8-0.4c0.7-1.2,1.1-2.4,1.6-3.7c0.4-1.2,0.7-2.4,1.6-3.4c1.7-1,3.4-1.9,5.2-2.6
	c1.8,1.1,3.4,2.4,5.2,3.4c0.9,0.5,1.8,0.9,2.7,1.2c1.2,0.4,1.7,0.1,2.4-0.9c0.6-1,1.2-2.1,1.6-3.2c0.3-0.9,0.1-1.6-0.6-2.1
	c-0.8-0.7-1.7-1.1-2.6-1.7c-0.4-0.3-0.9-0.4-1-1c0.7-0.9,1.7-1.4,2.6-2.1c0.9,0,1.6,0.6,2.4,0.9c1.2,0.4,1.5,0.3,1.8-0.9
	c0.2-0.8,0.5-1.6,0.9-2.3c0.6-1,0.4-2.1,0.6-3.2c0.4-1,1.4-1.5,2.3-2C164.8,121.8,165.5,120.8,166.5,120L166.5,120z"/>
<path d="M92.5,145.9c-0.9,1.5-1.6,3.2-2.7,4.6c-0.6,0.8-0.3,1.7,0.8,2.6c0.7,0.5,1.4,1,2.1,1.4c0.7,0.4,0.8,1,0.8,1.7
	c0,0.8-0.4,1.3-1.2,1.5c-1.3,0.3-2.5,0.2-3.6-0.7c-1.5-1.2-1.8-1.1-2.8,0.5c-0.5,0.8-1.1,1.6-1.6,2.4c-0.3,0.4-0.6,1-1.3,0.7
	c-0.7-0.3-1-0.8-1.1-1.5c-0.1-0.5,0.2-0.9,0.4-1.4c0.5-1,0.9-1.9,1.4-2.9c0.3-0.7,0.3-1.4-0.3-1.8c-1.7-1-3.1-2.4-5-3
	c-0.8-0.3-1.5-0.4-1.9,0.6c-0.3,0.8-1.1,0.9-1.8,0.5c-0.7-0.4-1.4-0.9-1-1.9c0.5-1.2,0-1.7-1-2.3c-3.1-1.8-6.4-3.2-9.6-4.7
	c-0.4-0.2-0.7-0.3-1.1-0.5c-1.3-0.7-1.6-1.4-1.2-2.3c0.6-1.2,2-1.8,3.1-1.3c3.5,1.7,7,3.5,10.5,5.2c1.2,0.6,2.5,0.2,2.8-1.1
	c0.2-1.1,0.7-2.1,1.1-3.1c1,0.4,2,0.8,2.8,1.4c0.4,0.8-0.2,1.5-0.4,2.1c-0.3,0.8-0.7,1.4-1,2.2c-0.3,0.7-0.2,1.3,0.6,1.6
	c1.4,0.6,2.7,1.5,4.1,2.2c1.5,0.7,2.3,0.5,3.3-0.8c0.4-0.5,0.7-1,1-1.5c0.3-0.5,0.6-1.2,1.2-1.4C90.7,145.1,91.8,145,92.5,145.9
	L92.5,145.9z"/>
<path class="st7" d="M145.2,123.4c1.6-1,3.2-1.9,4.8-2.9c0.6,1.8,1.8,3.3,2,5.3c0.4,3-2.2,5.5-5.1,4.7c-1.1-0.3-1.9-1.4-1.9-2.7
	C144.9,126.3,145.4,124.9,145.2,123.4L145.2,123.4z"/>
<path class="st9" d="M130.3,87.2c0.2-3.8,1.1-6.7,2.2-9.6c0.5-1.2,2-1.8,3.2-1.2c2.1,1,4.2,1.9,6.3,3c1.6,0.8,2,2.2,1.6,3.9
	c-0.9,3.7-1.6,7.4-2.4,11.1c-0.3,1.5-0.6,1.7-2,1c-0.9-0.4-1.7-0.9-2.4-1.6c-1.3-1.2-2.7-2.4-4.2-3.3
	C130.9,89.7,130.1,88.4,130.3,87.2L130.3,87.2z"/>
<path class="st9" d="M108.8,105.5c-0.2,1.8-0.9,3.5-1.2,5.3c-0.3,2.3-1.3,4.4-1.5,6.7c-0.1,1.3-0.7,1.5-1.7,0.6
	c-1.6-1.4-3.2-2.6-5-3.7c-0.9-0.6-1.5-1.4-2.2-2.2c-0.2-0.3-0.2-0.6-0.1-0.9c0.5-1.7,0.8-3.4,1.2-5.1c0.5-1.9,1.1-3.8,1.2-5.8
	c0-0.9,1.1-1.4,1.8-2c0.3-0.3,0.5,0.1,0.7,0.2c1.5,1,3,1.9,4.4,2.9C107.6,102.5,108.9,103.6,108.8,105.5L108.8,105.5z"/>
<path class="st9" d="M119.1,87.1c0.8,0.3,1.9,0.7,2.9,1.2c0.7,0.3,1.3,0.8,1.9,1.2c1.2,1,2.1,2,1.7,3.9c-0.7,3.7-1.9,7.3-2.2,11.1
	c0,0.5-0.2,0.8-0.5,1.2c-0.9,1.5-1.4,1.6-2.8,0.7c-2.1-1.4-3.9-3.2-5.5-5.1c-0.2-0.2-0.3-0.4-0.3-0.7c0-2-0.2-3.9,0.8-5.7
	c0.5-0.8,0.4-1.8,0.6-2.7c0.3-1.6,0.9-3,1.8-4.4C117.8,87.3,118.2,87.1,119.1,87.1L119.1,87.1z"/>
<path class="st9" d="M147.8,75.8c0-1.9,0.2-3.7,1-5.4c0.5-1.1,0.4-2.3,0.7-3.5c0.4-1.6,1.5-2.3,3-1.9c1.8,0.5,3.6,0.9,4.9,2.5
	c0.5,0.6,0.8,1.1,0.5,1.9c-0.8,2.6-0.3,5.4-1.2,8c-0.4,1.1-0.8,2.2-1,3.3c-0.3,1.1-1,1.3-1.9,1c-2.2-0.7-4-1.9-5.6-3.5
	C147.5,77.5,148,76.6,147.8,75.8z"/>
<path class="st10" d="M120.5,200c-0.2-0.9-0.2-1.6,0-2.3c0.1-0.3,0.2-0.6,0.6-0.6c0.3,0.1,0.7,0.4,0.6,0.6
	C121.4,198.5,121.6,199.5,120.5,200z"/>
<path class="st6" d="M131.3,85.7c0-2.1,0.7-4,1.4-5.9c0.5-1.2,1.5-1.5,2.6-0.9c1.3,0.6,2.7,1.2,4,1.9c1.3,0.7,1.6,1.6,1.3,3.1
	c-0.6,2.5-1.1,4.9-1.6,7.4c-0.3,1.2-0.5,1.4-1.6,0.9c-2-1.1-3.7-2.8-5.6-4.1C131.1,87.5,131.3,86.5,131.3,85.7L131.3,85.7z"/>
<path class="st6" d="M106.9,105c-0.5,2-0.9,4-1.5,6c-0.2,0.8-0.2,1.6-0.4,2.3c-0.2,0.9-0.7,1.2-1.4,0.6c-1.3-1.2-2.8-2-4.1-3.1
	c-0.8-0.7-1.1-1.4-0.7-2.6c0.6-2.1,1.4-4.1,1.4-6.3c0-0.9,0.8-1.3,1.3-1.9c0.1-0.1,0.3-0.1,0.4,0c1.3,1.3,3.1,1.8,4.3,3.2
	C106.5,103.8,106.8,104.3,106.9,105L106.9,105z"/>
<path class="st6" d="M123.1,95.3c-0.3,2.3-1,4.5-1.3,6.8c-0.2,1.7-1.3,2-2.8,1c-1.3-0.9-2.3-2-3.4-3.2c-0.8-0.8-0.7-1.8-0.4-2.8
	c0.5-2.1,0.9-4.3,1.7-6.3c0.7-1.7,1.2-1.8,2.9-1.1c1.1,0.4,2.2,0.8,2.8,1.8c-0.9,0.2-1.7,0.4-1.8,1.5c-0.2,1.7,0.2,2.1,1.9,2.2
	C122.8,95.2,123,95.2,123.1,95.3L123.1,95.3z"/>
<path class="st6" d="M155.8,72.5c0,1.8-0.6,3.4-1.1,5.1c-0.2,0.5-0.5,0.7-1,0.6c-1.8-0.2-3.3-1.1-4.2-2.5c-0.6-1-0.3-2.5-0.1-3.7
	c0.2-1.3,0.8-2.6,0.9-3.9c0.1-0.7,0.7-1.4,1.5-1.3c1.6,0.2,3.2,0.6,4.3,2.1c0.1,0.2,0.1,0.4,0.2,0.6c-0.3,0.1-0.4-0.1-0.7-0.2
	c-1.1-0.6-1.7-0.3-1.9,0.9C153.5,71.9,153.6,72.1,155.8,72.5L155.8,72.5z"/>
</svg>
