<?xml version="1.0" encoding="UTF-8"?>
<svg id="_レイヤー_1" data-name=" レイヤー 1" xmlns="http://www.w3.org/2000/svg" viewBox="0 0 1920 499.99">
  <defs>
    <style>
      .cls-1 {
        fill: #f4f2e0;
        stroke-width: 0px;
      }
    </style>
  </defs>
  <path class="cls-1" d="m1895.32,98.42c-6.26-.15-10.33,3.7-17.32,3.63-15.53-.15-6.39,5.67-23.32,5.94-14.16.22-7.52,7.08-20.65,7.58-28.84,1.1-20.37,7.15-30.31,9.56-9.32,2.26-18.37,3.33-27.21,3.46-11.56.18-22.75-1.24-33.68-3.66-11.9-2.64-23.49-6.46-34.92-10.72-3.42-1.27-6.83-2.59-10.23-3.92-10.54-4.13-20.97-8.43-31.41-12.3-19.92-7.38-39.88-13.18-60.66-13.18-12.64,0-20.56-3.18-26.65-7.18-13.66-8.98-18.07,1.4-45.61,10.66-7.32,2.46-20.52-4.73-26.06-3.94-14.9,2.13-17.07-15.99-23.51-21.64-6.98-6.13-6.38,25.59-27.29,19.67-13.88-3.93-21.42-2.47-44.83-25.64-2.97-2.94-21.05-7.39-33.87-10.85-8.26-2.23-22.24-27.11-28.89-24.03-7.9,3.66-1.28,4.9-12.82,6.58-8.86,1.29-17.92,24.19-25.82,27.31-6.46,2.55-15.09,8.3-31.57,22.68-4.65,4.06-18.39,9.81-24.42,15.78-16.61,16.44-14.4-3.38-27.89,5.81-21.04,14.33-8.15-6.52-35.43-9.02-33.9-3.11-18.32,2.07-40-3.48-10.11-2.59-32.32-27.72-43.81-27.11-9.38.5-6.13,6.51-15.7,7.6-6.79.77-13.55,1.51-20.16,1.97-1.16.08-4.71-1.38-11.98-3.48-7.26-2.1-18.23-4.83-34.22-7.28-5.43-.83-11.45-1.64-18.09-2.37-13.48-1.49-23.62-4.45-35.91-9.58-6.32-2.64-13.2-5.86-21.39-9.75-10.25-4.87-29.57,14.72-35.94,10.4s-19.44-13.1-30.12-18.25c-6.34-3.05-7.33-12.86-20.53-13.8-10.51-.74-13.7-12.69-19.93-10.57-18.64,6.35-44.22,21.73-48.86,16.07-4.64-5.65-2.19-3.3-22.66,3.64-5.57,1.89-15.14,4.39-18.78,5.11-8.13,1.62-4.31-1.9-14.08,2.64-7.08,3.29-6.38.99-14.08,4.08-7.7,3.09-11.25,5.48-20.63,8.17-4.06,1.16-15.06,12.88-26.18,9.09-11.12-3.78-14.98-10.4-28.65-15.5-5.63-2.1-20.94-15.4-26.46-17.29-11.39-3.9-11.83-19.9-20.72-21.25-8.1-1.23-25,15.62-28.84,18.27-5.2,3.59-35.2,16.15-39.17,18.86-12.01,8.19-19.57,2.34-30.15,6.96-6.31,2.76-13.09,2.57-23.11,5.97-25.47,8.64-7.5,11.86-31.15,19.9-6.18,2.1-13.75-18.6-28.59-18.36-13.85.22-27.74-14.23-33.22-11.24-14.86,8.12-13.96,18.97-27.62,23.63-5.23,1.79-16.02-10.41-23.5-7.14-2.58,1.13-5.35,5.29-14.69,11.69-5.39,3.69-15.45,15.04-24.94,12.09-12.94-4.02-20.55,8.48-27.27,10.28-9.23,2.48-21.83-6.01-29.56-16.54-9.26-12.61-23.09-17.61-24.6-18.62-10.68-7.13-22.11-11.7-29.18-21.29-7.06-9.58-8.4-29.27-26.37-29.27-15.26,0,.14-2.4-28.44,12.98-24.83,13.36,1.33,5.68-52.62,27.84,0,0-31.48,11.37-42.19,19.89-11.08,8.81-13.98,12.06-36.86,23.86v410.17h1920V91.96c-4.59-1.69-2.24,7.01-24.65,6.46h-.03Z"/>
</svg>