<?xml version="1.0" encoding="UTF-8"?>
<svg id="_レイヤー_1" data-name="レイヤー 1" xmlns="http://www.w3.org/2000/svg" viewBox="0 0 1920 202.03">
  <defs>
    <style>
      .cls-1 {
        fill: #e1b58b;
        stroke-width: 0px;
      }
    </style>
  </defs>
  <path class="cls-1" d="m0,90.74c22.89-11.92,25.78-15.21,36.86-24.11,10.71-8.6,42.19-20.09,42.19-20.09,53.95-22.39,27.8-14.63,52.62-28.12,28.58-15.54,13.18-13.12,28.44-13.12,17.97,0,19.31,19.89,26.37,29.56s18.49,14.3,29.18,21.5c1.51,1.02,15.35,6.07,24.6,18.81,7.73,10.64,20.33,19.21,29.56,16.71,6.72-1.82,14.33-14.45,27.27-10.39,9.5,2.98,19.55-8.48,24.94-12.21,9.34-6.46,12.11-10.67,14.69-11.81,7.49-3.31,18.27,9.01,23.5,7.21,13.66-4.71,12.76-15.66,27.62-23.87,5.48-3.03,19.36,11.57,33.22,11.35,14.84-.24,22.41,20.67,28.59,18.55,23.65-8.12,5.68-11.37,31.15-20.1,10.03-3.43,16.8-3.24,23.11-6.03,10.58-4.67,18.14,1.24,30.15-7.03,3.97-2.73,33.97-15.42,39.17-19.05,3.84-2.68,20.74-19.69,28.84-18.45,8.9,1.36,9.33,17.53,20.72,21.46,5.52,1.91,20.83,15.34,26.46,17.46,13.67,5.15,17.54,11.83,28.65,15.66s22.12-8.01,26.18-9.19c9.37-2.71,12.93-5.12,20.63-8.25,7.7-3.13,7-.8,14.08-4.13,9.77-4.59,5.95-1.03,14.08-2.67,3.65-.73,13.21-3.26,18.78-5.17,20.48-7.01,18.02-9.39,22.66-3.68s30.22-9.83,48.86-16.24c6.23-2.14,9.42,9.93,19.93,10.68,13.2.94,14.19,10.85,20.53,13.94,10.69,5.2,23.76,14.07,30.12,18.44s25.69-15.42,35.94-10.5c8.19,3.93,15.07,7.18,21.39,9.85,12.29,5.19,22.43,8.17,35.91,9.68,6.64.74,12.66,1.56,18.09,2.4,15.99,2.48,26.96,5.24,34.22,7.36,7.26,2.12,10.82,3.59,11.98,3.51,6.61-.47,13.37-1.21,20.16-1.99,9.58-1.1,6.32-7.17,15.7-7.68,11.49-.62,33.7,24.76,43.81,27.38,21.67,5.61,6.09.37,40,3.51,27.28,2.53,14.39,23.59,35.43,9.11,13.49-9.28,11.28,10.75,27.89-5.87,6.03-6.03,19.77-11.84,24.42-15.94,16.49-14.53,25.11-20.34,31.57-22.91,7.9-3.14,16.96-26.28,25.82-27.58,11.55-1.7,4.93-2.95,12.82-6.65,6.65-3.11,20.63,22.02,28.89,24.27,12.82,3.49,30.9,7.99,33.87,10.96,23.41,23.41,30.95,21.93,44.83,25.9,20.92,5.98,20.32-26.06,27.29-19.87,6.44,5.71,8.61,24.01,23.51,21.86,5.53-.8,18.74,6.47,26.06,3.98,27.55-9.36,31.96-19.84,45.61-10.77,6.09,4.04,14.02,7.25,26.65,7.25,20.78,0,40.74,5.86,60.66,13.32,10.44,3.91,20.88,8.26,31.41,12.43,3.4,1.35,6.81,2.67,10.23,3.96,11.43,4.3,23.02,8.16,34.92,10.83,10.93,2.45,22.12,3.88,33.68,3.7,8.84-.14,17.89-1.21,27.21-3.5,9.94-2.44,1.47-8.55,30.31-9.66,13.14-.51,6.5-7.44,20.65-7.66,16.92-.27,7.78-6.15,23.32-6,6.99.07,11.07-3.82,17.32-3.66,22.41.56,20.06-8.23,24.65-6.52v109.14H0v-111.29Z"/>
</svg>