<?xml version="1.0" encoding="utf-8"?>
<!-- Generator: Adobe Illustrator 28.0.0, SVG Export Plug-In . SVG Version: 6.00 Build 0)  -->
<svg version="1.1" id="_レイヤー_1" xmlns="http://www.w3.org/2000/svg" xmlns:xlink="http://www.w3.org/1999/xlink" x="0px"
	 y="0px" viewBox="0 0 1920 146.1" style="enable-background:new 0 0 1920 146.1;" xml:space="preserve">
<style type="text/css">
	.st0{fill:#E1B58B;}
</style>
<path class="st0" d="M1920,146.1c-14.2,0.2-77-24.3-85.9-39.7c-11.9-20.5-32.8,16.4-42.7,18.8c-9.3,2.3-6,3.3-14.8,3.4
	c-11.6,0.2-22.8-1.2-33.7-3.7c-11.9-2.6-23.5-6.5-34.9-10.7c-3.4-1.3-6.8-2.6-10.2-3.9c-10.5-4.1-21-8.4-31.4-12.3
	c-19.9-7.4-39.9-13.2-60.7-13.2c-12.6,0-20.6-3.2-26.7-7.2c-13.7-9-18.1,1.4-45.6,10.7c-7.3,2.5-20.5-4.7-26.1-3.9
	c-14.9,2.1-17.1-16-23.5-21.6c-7-6.1-6.4,25.6-27.3,19.7c-13.9-3.9-21.4-2.5-44.8-25.6c-3-2.9-21.1-7.4-33.9-10.9
	c-8.3-2.2-22.2-27.1-28.9-24c-7.9,3.7-1.3,4.9-12.8,6.6c-8.9,1.3-17.9,24.2-25.8,27.3c-6.5,2.5-15.1,8.3-31.6,22.7
	c-4.7,4.1-18.4,9.8-24.4,15.8c-16.6,16.4-14.4-3.4-27.9,5.8c-21,14.3-8.2-6.5-35.4-9c-33.9-3.1-18.3,2.1-40-3.5
	c-10.1-2.6-32.3-27.7-43.8-27.1c-9.4,0.5-6.1,6.5-15.7,7.6c-6.8,0.8-13.6,1.5-20.2,2c-1.2,0.1-4.7-1.4-12-3.5
	c-7.3-2.1-18.2-4.8-34.2-7.3c-5.4-0.8-11.5-1.6-18.1-2.4c-13.5-1.5-23.6-4.5-35.9-9.6c-6.3-2.6-13.2-5.9-21.4-9.8
	c-10.2-4.9-29.6,14.7-35.9,10.4s-19.4-13.1-30.1-18.2c-6.3-3.1-7.3-12.9-20.5-13.8c-10.5-0.7-13.7-12.7-19.9-10.6
	C824.6,11.7,799,27,794.3,21.4c-4.6-5.6-2.2-3.3-22.7,3.6c-5.6,1.9-15.1,4.4-18.8,5.1c-8.1,1.6-4.3-1.9-14.1,2.6
	c-7.1,3.3-6.4,1-14.1,4.1s-11.2,5.5-20.6,8.2c-4.1,1.2-15.1,12.9-26.2,9.1c-11.1-3.8-15-10.4-28.7-15.5
	c-5.6-2.1-20.9-15.4-26.5-17.3C611.4,17.4,611,1.4,602.1,0.1c-8.1-1.2-25,15.6-28.8,18.3c-5.2,3.6-35.2,16.1-39.2,18.9
	c-12,8.2-19.6,2.3-30.1,7c-6.3,2.8-13.1,2.6-23.1,6c-25.5,8.6-7.5,11.9-31.1,19.9c-6.2,2.1-13.8-18.6-28.6-18.4
	c-13.9,0.2-27.7-14.2-33.2-11.2c-14.9,8.1-14,19-27.6,23.6c-5.2,1.8-16-10.4-23.5-7.1c-2.6,1.1-5.4,5.3-14.7,11.7
	c-5.4,3.7-15.5,15-24.9,12.1c-12.9-4-20.5,8.5-27.3,10.3c-9.2,2.5-21.8-6-29.6-16.5c-9.3-12.6-23.1-17.6-24.6-18.6
	c-10.7-7.1-22.1,14.9-29.2,5.3c-7.1-9.6-0.2-7.3-16.4-23.5c-10.8-10.8-17.7,16.3-46.1,31.9c-26,14.3,5.3,8-48.7,30.2
	c0,0-23.2,13.3-33.9,21.8c-11.1,8.8-18.5,12.8-41.4,24.6L1920,146.1L1920,146.1z"/>
</svg>
