<?xml version="1.0" encoding="UTF-8"?>
<svg id="_レイヤー_1" data-name="レイヤー 1" xmlns="http://www.w3.org/2000/svg" viewBox="0 0 1 1.35">
  <defs>
    <style>
      .cls-1 {
        fill: #fff;
        stroke-width: 0px;
      }
    </style>
  </defs>
  <path class="cls-1" d="m.49,0c.06,0,.13,0,.19.03.03.01.05.03.07.05.01.01.02.03.02.05,0,.01,0,.02,0,.04,0,.02-.02.04-.03.06-.01.02-.02.04-.03.06,0,.01,0,.02,0,.03,0,.01,0,.03-.01.04,0,.02-.02.03-.03.05,0,0,0,0-.01.01-.01,0-.02.01-.03.01,0,0,0,0,0,0,0,.01,0,.02,0,.03,0,.01.01.02.02.03.01.03.02.06.03.09,0,.04.02.08.04.11,0,.01.02.03.02.04.02.03.05.05.09.06.02,0,.04,0,.07.01.03,0,.05.02.07.05,0,.01.01.03.02.04,0,0,0,.01,0,.02,0,.01,0,.02-.02.02,0,0-.02,0-.02.01,0,0,0,0,0,0,.02,0,.03.02.05.03,0,0,.01.01.02.02,0,0,0,0,0,0,0,0-.02,0-.03,0,0,0,0,0,0,0,0,0,0,.01-.01.01,0,0-.02,0-.02,0-.02,0-.04,0-.06,0-.01,0-.02,0-.03-.02,0,0,0,0,0,0-.06,0-.12,0-.19,0,0,0,0,0,0,0,0,.03-.01.07-.02.1,0,.03,0,.06-.01.08,0,.02,0,.05-.01.07,0,.02-.01.03-.03.04-.02.01-.04.02-.06.02-.02,0-.04,0-.07,0-.02,0-.05,0-.07,0-.03,0-.06,0-.09-.01-.02-.01-.03-.03-.03-.06,0-.03.02-.06.02-.1,0-.03.01-.05.01-.08,0,0,0,0,0,0,0,0,0,0,0,0-.02,0-.03-.03-.04-.05,0-.02,0-.03,0-.05,0,0,0,0,0,0-.01,0-.02,0-.04,0-.01,0-.02,0-.03.02,0,0-.02.02-.03.02-.02,0-.04,0-.06-.01,0,0-.01-.01-.02-.02-.02-.03-.04-.06-.05-.1,0-.02,0-.04,0-.06,0-.01,0-.02.02-.03,0,0,.02-.02.03-.02.01-.01.02-.02.02-.04,0-.01,0-.02,0-.04,0-.03,0-.05.01-.08.01-.03.03-.07.05-.1.01-.02.04-.04.06-.06.03-.02.06-.04.1-.06.03-.02.06-.04.08-.06,0,0,.02-.02.03-.03,0,0,0-.02,0-.03,0,0,0-.01,0-.02,0,0,0,0,0,0-.01,0-.03,0-.04,0-.02,0-.02-.02-.02-.05,0-.02.01-.03.03-.04.01,0,.02,0,.03,0,0,0,.01,0,.02,0,0,0,0,0,0,0,0,0,0,0,0,0,.01-.02.01-.04.02-.06,0-.03,0-.06,0-.09,0,0,0-.02,0-.02,0,0,0,0,.01,0,0,0,.02,0,.02,0Zm.2.92s.01,0,.02,0c.04,0,.08,0,.13.02,0,0,0,0,0,0,0-.01,0-.03,0-.04,0,0,0,0,0,0-.02,0-.04,0-.06,0-.02,0-.04.01-.06.02,0,0-.01,0-.02,0Z"/>
</svg>