<?xml version="1.0" encoding="UTF-8"?>
<svg id="_レイヤー_1" data-name="レイヤー 1" xmlns="http://www.w3.org/2000/svg" viewBox="0 0 108.92 55.95">
  <defs>
    <style>
      .cls-1, .cls-2, .cls-3, .cls-4, .cls-5, .cls-6, .cls-7, .cls-8, .cls-9 {
        stroke-width: 0px;
      }

      .cls-2 {
        fill: #4f2103;
      }

      .cls-3 {
        fill: #5a2201;
      }

      .cls-4 {
        fill: #95a8b2;
      }

      .cls-5 {
        fill: #ccc;
      }

      .cls-6 {
        fill: #b3b3b3;
      }

      .cls-7 {
        fill: #fff;
      }

      .cls-8 {
        fill: #010101;
      }

      .cls-9 {
        fill: #020202;
      }
    </style>
  </defs>
  <path class="cls-4" d="m70.21,31.81c-1.31-.53-1.76-1.61-1.88-2.92-.16-1.7.42-3.01,1.91-3.93,2.02-1.26,4.31-1.87,6.57-1.9,3.86-.05,7.68-.83,11.54-.55,2.94.22,5.71.86,7.77,3.29,1.57,1.85,1.45,5.07-.44,6.67-2.15-3.1-5.27-4.16-8.88-4.19-1,0-1.99,0-2.95-.34-.42-.15-.86-.15-1.3-.14-3.06.11-5.96.83-8.72,2.19-1.21.6-2.36,1.31-3.62,1.81Z"/>
  <path class="cls-2" d="m12.64,35.88c-.4,0-.8,0-1.2,0-2.53,0-4.19-1.71-4.11-4.27,0-.33.07-.61-.17-.89-1-1.18-.69-2.39.06-3.5,1.68-2.52,4.15-3.72,7.11-3.93,1.34-.1,2.67-.28,4.02-.03.78.14,1.56.12,2.2.74.58.56.67,1.13.69,1.96.01.79.18,1.73.51,2.53.64,1.56-.15,2.79-1.02,3.81-2.05,2.41-4.9,3.57-8.09,3.57Z"/>
  <path class="cls-3" d="m70.21,31.81c1.03-1.26,2.61-1.64,3.96-2.34,2.72-1.4,5.69-2.28,8.72-1.92,3.08.36,6.3-.04,9.22,1.43.97.49,1.86,1.07,2.66,1.78.49.43,1,.93.9,1.71-.87,1.18-2.11,1.55-3.52,1.66-6.61.53-13.2.67-19.68-1.13-.85-.24-1.67-.5-2.27-1.2Z"/>
  <path class="cls-3" d="m58.5,12.63c-2.26,1.68-4.9,2.31-7.62,2.6-3.36.36-6.74.56-10.12.25-1.48-.14-2.85-.65-4.13-1.43-.4-1.3.37-2.23,1.23-2.86,2.53-1.84,5.23-3.34,8.52-3.23.6.02,1.2.04,1.79,0,2.11-.16,4.06.34,6.03,1.09,1.9.73,3.2,1.98,4.29,3.57Z"/>
  <path class="cls-4" d="m58.5,12.63c-.74.12-.97-.44-1.18-.94-.32-.74-.91-1.13-1.57-1.54-3.57-2.22-7.52-2.38-11.43-1.75-2.38.38-4.7,1.52-6.55,3.24-.64.6-1.05,1.48-1.14,2.42-1.27-.15-2.33-.8-3.31-1.55-.71-.54-.85-1.22-.25-1.96,1.82-2.25,3.93-3.96,6.87-4.65,4.03-.95,8.08-1.26,12.19-1.13.44.01.9-.05,1.28.21,1.33.91,2.81.99,4.35.95,2.14-.05,3.49,1.95,2.88,3.99-.37,1.23-1.06,2.11-2.15,2.72Z"/>
  <path class="cls-2" d="m21.47,48c-.32-4.71,2.19-7.59,5.19-10.16.88-.75,2.06-.76,3.12-.24,1.47.73,3.34,1.16,3.58,3.16.33,2.7.12,5.36-1.8,7.53-.89,1.02-1.88,1.97-2.91,2.84-2.42,2.04-5.68.52-7.04-1.28-.48-.63-.05-1.48-.13-1.86Z"/>
  <path class="cls-2" d="m12.67,45.71c-.42,2.73-1.81,4.96-4.08,6.4-1.53.97-3.14,2.1-5.15,1.99-.32-.02-.66,0-.93-.13-.51-.25-1.25-.31-1.33-1.04-.08-.74.57-.93,1.07-1.25,2.67-1.71,5.43-3.27,7.78-5.44.4-.37.66-.74.38-1.23-.3-.52-.78-.34-1.13-.04-2.32,1.93-5.17,3.1-7.32,5.26-.27.27-.67.41-1.03.56-.7.27-1.02-.1-.91-.73.1-.62.27-1.29.62-1.79,1.69-2.46,3.63-4.61,6.79-5.22.81-.16,1.58-.43,2.43-.47,1.79-.08,2.76.75,2.81,2.54,0,.2,0,.4,0,.6Z"/>
  <path class="cls-1" d="m96.39,39.69c-.66.11-1.33.17-1.97.35-.67.19-1.24.15-1.35-.61-.12-.79.45-1.13,1.17-1.14,1.03,0,2.02-.19,2.93-.69,2.13-.42,4.16-.52,6.22.59,1.95,1.05,3.81,2.1,5.01,4.05.67,1.08.59,2.18.28,3.31-.68,2.46-2.58,3.35-4.87,3.62-1.33.16-2.74.5-3.99.35-1.71-.2-3.4-.12-5.1-.19-1.23.04-2.33-.36-3.41-.89-.49-.24-.91-.52-.77-1.17.15-.7.74-.63,1.23-.66.65-.04,1.22.28,1.8.54.43.19.86.44,1.37.27,1.18-.51,2.35-.15,3.48.13,2.58.63,4.96-.19,7.36-.85.61-.17.93-.71,1.07-1.34.19-.86.08-1.66-.38-2.41-1.04-1.74-6.12-3.89-8.12-3.46-.64.14-1.28.52-1.97.19Z"/>
  <path class="cls-8" d="m41.56,26.79c.46.08.86-.12,1.24-.33.58-.32,1.35-.92,1.73-.15.3.61.01,1.55-.71,2.08-.38.28-.8.5-1.2.74-1.48.71-2.95.63-4.46.07-.39-.15-.86-.12-1.29-.15-1.98-.14-3.21-1.4-4.31-2.86-.13-.17-.15-.36-.09-.56.49-1.84,1.3-3.49,2.87-4.66.67-.5,1.36-.96,2.04-1.44,1.24-.5,2.53-.5,3.84-.35.61.07.85.42.83.95-.02.5-.32.7-.85.79-.88.15-1.84-.13-2.62.51-.15.56-.65.78-1.07,1.06-.67.44-1.31.91-1.82,1.53-.97,1.16-.65,2.38.83,2.71,1.67.38,3.37.5,5.06.05Z"/>
  <path class="cls-9" d="m78.85,4.8c-.6,1.35-.87,2.81-1.72,4.04-1.73,2.52-1.65,4.16.26,6.55.21.27.77.56.41.98-.39.44-.83-.02-1.16-.22-2.44-1.47-3.01-4.51-1.37-7.09.36-.57.69-1.15,1.03-1.73,1.53-2.62.87-3.74-.93-5.67-.37-.4-1.25-.69-.72-1.37.51-.65,1.25-.08,1.7.24,1.44,1.02,1.81,2.71,2.5,4.27Z"/>
  <path class="cls-9" d="m85.69,2.79c.17.91-.13,1.58-.69,2.23-.8.93-1.47,1.97-2.23,2.93-1.13,1.42-1.21,2.87-.29,4.41.24.41.65.9.11,1.24-.46.28-.93-.14-1.17-.56-.61-1.06-1.33-2.11-1.09-3.44.23-1.32,1.33-2.1,2.02-3.13.62-.92,1.33-1.78,1.89-2.75.48-.83.59-1.49-.24-2.19-.3-.25-.99-.62-.38-1.24.6-.6.94.07,1.29.33.71.55,1.02,1.31.79,2.17Z"/>
  <path class="cls-9" d="m86.17,12.38c.05-1.6.48-2.98,1.38-4.11,1.01-1.27,2.02-2.53,3.01-3.82.63-.82.67-1.41.19-2.23-.3-.51-.91-1.28-.19-1.66.82-.43.99.54,1.29,1.11.58,1.13.47,2.15-.23,3.24-.79,1.23-1.59,2.46-2.54,3.58-1.2,1.42-1.74,3.05-1.69,4.91,0,.36.06.97-.31,1.05-.55.12-.59-.55-.73-.9-.16-.39-.13-.85-.17-1.17Z"/>
  <path class="cls-6" d="m94.49,49.44c-.21,1.19-.31,2.4-.75,3.56-.92,2.44-3.28,3.54-5.73,2.64-.26-.1-.53-.24-.8-.23-2.51.05-5-.24-7.5-.45-1.64-.14-3.09-.72-4.6-1.2-.59-.19-.83-.73-1.03-1.25-1.96-4.92-3.23-10.06-4.92-15.07-.31-.93-.55-1.98-.6-3.02-.03-.81.24-1.3,1.14-.85,2.81,1.4,5.89,1.54,8.91,1.94,2.33.3,4.66.6,7.01.47,3.49-.2,7.02-.21,10.17-2.09.79-.47,1.03-.12,1.09.69.07,1.04-.24,2.09.04,3.13-.18.63-.77.6-1.23.75-.53.18-1.08.2-1.63.28-.4.05-.86.17-.76.7.1.51.57.44.97.4.67-.06,1.36-.57,2.02.05.14.25.18.53.13.81-.39,2.09-.77,4.19-1.21,6.27-.04.19-.15.36-.28.51-.6.48-1.21.19-1.81-.01-.53-.18-1.03-.44-1.61-.41-.33.02-.67.09-.78.44-.13.39.18.59.46.74.73.41,1.45.85,2.33.88.35.01.73-.01.98.33Z"/>
  <path class="cls-5" d="m37.71,19.96c-.33-.67-.66-1.35-1-2.02-.17-.34-.29-.67-.04-1.01.25-.35.65-.34.98-.23,4.15,1.38,8.39.39,12.56.31,3.47-.06,6.89-1.13,9.77-3.36.32-.25.68-.53,1.07-.25.35.24.46.68.38,1.08-.38,1.83-.66,3.66-.83,5.52-.23,2.64-.87,5.22-1.54,7.78-.54,2.06-1.28,3.95-3.44,4.87-.49.21-.98.31-1.51.31-1.44-.01-2.88-.09-4.31.02-1.55.12-2.94-.66-4.46-.6-.51.02-.87-.47-1.19-.9-.46-.61-.59-1.4-1.2-1.91.03-.49.47-.59.78-.81.41-.28.71-.62.83-1.11.07-.27.17-.56-.07-.78-.24-.22-.53-.11-.78.02-.63.31-1.23.75-2,.48-.34-.16-.58-.44-.7-.76-.61-1.65-1.78-3.04-2.19-4.77.28-.53.81-.57,1.31-.66.31-.05.63-.03.94-.06.4-.05.86-.09.87-.6.02-.52-.44-.61-.84-.63-.87-.04-1.73-.09-2.6.07-.26.05-.52.22-.79.03Z"/>
  <path class="cls-7" d="m9.8,31.3c2.71-1.33,5.3-2.61,7.9-3.86.24-.12.49-.49.84-.17.35.32.02.59-.1.85-.96,2.12-2.65,3.2-4.95,3.3-.62.02-1.16.27-1.74.39-.75.16-1.4.1-1.96-.51Z"/>
  <path class="cls-7" d="m30.12,42.29c-.51,1.99-.89,4.03-2.13,5.77-.67.93-1.73,1.08-2.72,1.29-.45.1-.74-.37-.36-.78,1.2-1.28,1.56-2.87,1.87-4.53.26-1.4,1.2-2.49,1.95-3.65.14-.22.35-.47.68-.4.33.07.36.37.41.65.09.55.2,1.09.31,1.65Z"/>
</svg>