<?xml version="1.0" encoding="UTF-8"?>
<svg id="_レイヤー_1" data-name="レイヤー 1" xmlns="http://www.w3.org/2000/svg" viewBox="0 0 54.3 89.61">
  <defs>
    <style>
      .cls-1, .cls-2, .cls-3 {
        stroke-width: 0px;
      }

      .cls-2 {
        fill: #ca3211;
      }

      .cls-3 {
        fill: #f29700;
      }
    </style>
  </defs>
  <path class="cls-1" d="m45.59,81.93c-.39,1.7-.79,3.4-1.17,5.1-.32,1.42-.77,1.84-2.11,1.92-4.99.29-9.97.02-14.96,0-4.15,0-8.3.05-12.45.12-1.22.02-2.37.52-3.63.52-.99,0-1.98-.12-2.97-.07-.89.04-1.12-.77-1.31-1.33-.73-2.19-1.6-4.31-2.5-6.43-.44-1.04-.81-2.3-.79-3.56.03-2.07-1.05-3.88-1.42-5.87-.46-2.46-1.39-4.8-2.11-7.19-.52-1.72.13-3.11,1.82-3.6.72-.21,1.47-.38,2.22-.42,9.11-.4,18.23-.7,27.36-.68,3.22,0,6.5-.3,9.69-.78,2.15-.32,4.36-.1,6.47-.75.5-.15.86.29,1.01.8.54,1.9.94,3.81-.1,5.68-.4.73-.35,1.54-.45,2.32-.34.27-.69.11-1.02,0-.92-.3-1.35.22-1.61.97-.29.84.18,1.27.91,1.51.64.21,1.35.36,1.36,1.26-.66,1.81-.39,3.78-1,5.61-.15.45-.17.94-.39,1.37-.55.57-1.26.33-1.92.38-.53.04-1.08.02-1.26.66-.18.62.38.78.73,1.09.52.47,1.32.6,1.59,1.36Z"/>
  <path class="cls-2" d="m9.34,36.77c-.04-1.59-.08-3.19-.12-4.78-.02-.91.34-1.28,1.32-1.17,2.28.25,4.52.78,6.78,1.09,1.99.28,3.96.88,6.01.78,2.09-.1,4.04.66,6.05,1.01.23.04.46.2.68.17,2.34-.26,4.53.8,6.84.74.71-.02.84.55.86,1.07.05,1.08-.1,2.14-.59,3.13-1.92,3.87-2.94,8.06-4.34,12.12-.77,2.23-1.67,4.38-2.84,6.43-.32.55-.83.78-1.4.74-2.13-.13-4.27.32-6.4-.47-1.07-.4-2.4-.02-3.55-.27-2.09-.45-4.26-.27-6.32-.96-.93-.31-1.28-.77-1.34-1.79-.08-1.33-.44-2.66-.83-3.94-.19-.61,0-1.29-.43-1.82.34-.55.9-.38,1.39-.42.43-.04.89.03,1.28-.21.35-.22.65-.52.61-.96-.05-.54-.54-.53-.92-.55-.88-.05-1.76.03-2.63-.04-.41-.03-1.01.13-1.04-.61.85-.29,1.14-.81.93-1.73-.2-.89-.06-1.82-.08-2.74-.05-1.62-.14-1.73-1.72-1.87-.24-.02-.47-.05-.69-.17-.33-.65.23-.64.55-.66,1.71-.06,3.45-.31,5.01.71.3.19.63.34.97.47.44.17.98.46,1.28-.1.28-.5-.24-.79-.58-1.03-1.12-.78-2.32-1.4-3.7-1.62-.38-.06-.93.08-1.02-.56Z"/>
  <path class="cls-3" d="m33.8,19.25c.24,2.26.25,4.53.27,6.8,0,.74-.25,1.33-.87,1.56-1.06.39-2.17.76-3.29.86-1.78.16-3.58.13-5.37.13-1.35,0-2.62.48-3.99.56-2,.12-3.09-.92-3.89-2.4-2.4-4.44-4.5-9.06-5.97-13.87-.78-2.56-1.73-5.21-1.49-8.04.12-1.45.56-2.22,2-2.25,2.55-.06,5.05-.53,7.54-.87,1.85-.25,3.75-.36,5.61-.81C26.52.4,28.74-.16,31.05.04c.76.06,1.04.33,1.1,1.06.13,1.5.33,3,.49,4.51-.41.89-1.3,1.2-2.05,1.66-.58.36-1.14.71-1.5,1.32-.16.28-.29.59-.06.89.22.28.54.31.87.26.65-.1,1.11-.58,1.66-.88.46-.25.95-.88,1.51-.12.28,2.19.52,4.39.78,6.58.04.32.02.63-.1.93-.3.49-.81.42-1.28.45-.44.03-.88.03-1.26.27-.7.44-.71,1.05.01,1.46.45.26.95.39,1.46.48.38.06.81.01,1.11.35Z"/>
  <path class="cls-2" d="m47.73,71.18c-.34-.52-.9-.61-1.44-.74-.87-.2-1.36-.67-1.12-1.6.35-1.36.88-1.71,2-1.4.34.09.68.18,1.03.28,1.34.26,2.52.77,3.62,1.64,1.67,1.32,2.18,3.03,2.43,5.05.4,3.14-1.49,4.92-3.5,6.72-.03.03-.06.06-.1.07-1.67.35-3.29,1.05-5.06.73-.7-.45-1.41-.88-2.09-1.36-.33-.23-.99-.25-.65-1,.27-.61.44-1.16,1.3-1.07.71.07,1.43,0,2.14-.02.29-.5.83-.59,1.3-.77,1.85-.71,2.46-2.3,1.66-4.14-.39-.89-1.22-1.46-1.52-2.39Z"/>
  <path class="cls-1" d="m32.77,8.63c-.61.18-1.2.38-1.65.89-.2.23-.52.37-.81.5-.6.26-1.25.19-1.67-.25-.45-.49-.1-1.04.24-1.49.97-1.29,2.58-1.66,3.75-2.66.71-.03,1.24-.51,1.87-.74,2-.71,3.95-.23,5.87.26,1.31.34,2.79,2.78,2.93,4.14.34,3.36-1.44,5.49-4.03,7.15-1.74,1.11-3.52,2.15-5.48,2.83-.88.15-1.72.04-2.52-.35-.57-.28-1.21-.55-1.05-1.36.16-.82.82-1.09,1.57-1.15.59-.05,1.18-.03,1.77-.05.34-.39.82-.44,1.29-.53,2.18-.44,4.01-1.51,5.47-3.18.92-1.04,1.25-2.16.6-3.51-.6-1.24-1.64-1.67-2.89-1.76-1.2-.09-2.37-.08-3.38.8-.51.44-1.18.68-1.9.48Z"/>
  <path class="cls-1" d="m9.34,36.77c1.78.17,3.38.81,4.83,1.83.55.39,1.39.78.93,1.63-.45.84-1.23.55-1.87.15-2-1.24-4.18-1.36-6.43-1.1-.07.47-.51.43-.81.56-.66.29-1.26.69-1.74,1.22-.74.82-.75,1.59-.04,2.45.75.89,1.6,1.62,2.79,1.92.53.14,1.19.16,1.48.81,1.23.01,2.45,0,3.68.04.59.01,1.4-.03,1.37.76-.03.74-.43,1.56-1.33,1.7-.82.13-1.66.08-2.49.11-2.38-.35-4.78-.69-6.66-2.42-3.12-2.87-2.97-5.69.44-8.09,1.72-1.21,3.7-1.79,5.85-1.58Z"/>
</svg>