<?xml version="1.0" encoding="UTF-8"?>
<svg id="_レイヤー_1" data-name="レイヤー 1" xmlns="http://www.w3.org/2000/svg" viewBox="0 0 108.26 90">
  <defs>
    <style>
      .cls-1, .cls-2, .cls-3, .cls-4, .cls-5, .cls-6, .cls-7 {
        stroke-width: 0px;
      }

      .cls-2 {
        fill: #f9bd00;
      }

      .cls-3 {
        fill: #ce6307;
      }

      .cls-4 {
        fill: #e28d34;
      }

      .cls-5 {
        fill: #e28d33;
      }

      .cls-6 {
        fill: #fefefe;
      }

      .cls-7 {
        fill: #f08c00;
      }
    </style>
  </defs>
  <path class="cls-1" d="m0,46.88c.18-3.53.19-7.06,1.05-10.54.43-1.73.09-3.56.49-5.34.59-2.61.77-5.31,1.87-7.81.97-2.2,1.15-4.67,2.4-6.8.5-.87,1.11-1.64,1.68-2.44,1.38-1.92,2.26-4.17,3.99-5.88.93-.93,1.92-1.85,2.95-2.56,3.56-2.43,7.39-4.41,11.66-5.24,2.52-.49,5.11-.3,7.66.18,1.44.27,2.91.34,4.38.44,1.91.12,3.77.36,5.61.96,2.53.82,5.06,1.59,7.51,2.62,2.53,1.05,4.6,2.83,6.87,4.29,2.25,1.46,3.77,3.65,5.65,5.46,1.72,1.66,3.63,3.09,5.34,4.76,1.75,1.7,2.91,3.73,4.28,5.68,2.31,3.29,2.55,7.12,3.26,10.85.28,1.45.33,2.86.09,4.35-.49,3.09-.94,6.18-1.44,9.27-.18,1.13-.2,2.3-.2,3.45,0,1.61.85,2.74,2.28,3.34,3.11,1.3,6.36,2.08,9.64,2.86,3.03.72,6.15.74,9.15,1.5,3.11.78,5.65,2.38,7.93,4.75,3.1,3.24,3.66,7.21,4.13,11.28.13,1.19-.51,2.33-.85,3.42-.79,2.47-1.54,5.03-3.25,7.11-2.4,2.92-6.19,3.85-9.8,2.62-2.59-.89-4.54-2.61-6.63-4.25-4.27-3.33-7.53-7.65-11.46-11.3-.96-.89-2.09-1.78-3.54-1.98-1.08-.14-2.04-.69-2.98-1.17-2.21-1.13-4.19-.73-5.98.79-2.43,2.05-4.98,3.96-7.49,5.91-1.14.89-2.37,1.37-3.71,1.78-3.61,1.1-7.28.63-10.9.36-5.63-.42-11.08-1.88-16.57-3.16-5.8-1.36-10.33-4.59-14.62-8.35-2.72-2.38-4.67-5.38-6.35-8.58-1.53-2.92-3.11-5.78-3.72-9.08-.22-1.18-.42-2.35-.39-3.55Z"/>
  <path class="cls-6" d="m60.12,29.8c.15,3.08-.42,6.92-1.38,10.71-.49,1.92-1.48,3.59-2.52,5.31-1.09,1.8-3.01,2.56-4.08,4.15-1.18,1.77-2.8,3.01-4.36,4.33-2.37,2-5.28,2.27-8.19,2.06-2.68-.19-5.28-.83-7.86-1.76-2.08-.75-4.43-.88-6.68-.31-.72.18-1.3.09-1.79-.54-.39-.49-.98-.67-1.6-.66-4.7.08-6.66-3.94-5.98-7.76.27-1.51.78-2.96.95-4.5.25-2.24-.42-4-2.1-5.4-2.9-2.43-3.92-5.63-3.3-9.21.5-2.89,1.21-3.57,3.8-4.01,1.78-.3,3.32-1.04,4.44-2.52.17-.22.42-.41.41-.7-.04-2,1.1-3.69,1.42-5.63.65-3.9,5.18-5.26,7.76-3.72,1.92,1.14,3.97,1.98,5.87,3.11,1.68.99,3.47.79,5.18.33,2.81-.76,5.52-.06,8.26.28,2.43.3,4.48,1.6,6.36,2.95,1.51,1.08,2.78,2.64,3.61,4.37,1.55,3.22,1.73,4.05,1.77,9.13Z"/>
  <path class="cls-3" d="m23.01,61.96c0-.09-.05-.45-.06-.8-.03-1.19.62-2.07,1.75-2.41,1.68-.51,3.38-.4,5.09-.25.7.06,1.18.47,1.39,1.15.24.8.42,1.62.66,2.42.1.31.09.78.56.82.48.04.67-.35.84-.72.2-.44.21-.88.15-1.38-.11-.8.18-1.28,1.19-1.02,2.05.53,2.45,1,2.25,3.07-.04.41,0,.78.16,1.16.21.47.59.48,1,.42.42-.05.63-.29.62-.73,0-.4.04-.8,0-1.2-.09-.84.2-1.47,1.06-1.59.81-.11,1.61.03,1.99.94.2.48.4.95.6,1.43.23.56.6,1.01,1.26.87.82-.17.55-.88.5-1.38-.13-1.55.63-2.34,2.17-2.24.73.05,1.17.41,1.45,1.06.27.62.53,1.25.87,1.83.3.5.85.73,1.33.38.36-.26.56-.73.22-1.26-1.85-2.88-1.45-2.6,1.02-5.12.73-.74,1.45-1.48,2.2-2.2.48-.46.88-1.01,1.64-1.12,2-.3,2.57.01,3.22,1.93.62,1.84.61,3.58-.28,5.42-1.02,2.12-2.23,3.99-4.01,5.55-2.2,1.93-4.83,2.59-7.61,3.07-2.88.49-5.79.52-8.68.64-1.57.07-3.17-.07-4.72-.57-1.27-.41-2.61-.71-3.94-.8-3.4-.23-5.83-2.7-5.87-6.15,0-.32,0-.64,0-1.23Z"/>
  <path class="cls-6" d="m100.91,76.17c-.27,3.95-3.15,6.31-6.83,4.7-2.63-1.15-3.93-3.25-4.82-5.71-.6-1.67,1-4.04,3.01-4.46,2.57-.54,4.95.04,6.98,1.78,1.2,1.03,1.56,2.43,1.67,3.69Z"/>
  <path class="cls-7" d="m39.3,43c-5.52-.19-10.1-3.58-10.89-9.78-.26-1.99-.23-3.99.48-5.73.86-2.09,1.95-4.32,4.66-4.79.54-.09,1.08-.3,1.57-.55,2.14-1.09,4.34-1.07,6.62-.55,1.24.28,2,1.26,2.99,1.89,3.28,2.08,4.55,5.16,4.66,8.87.02.55.04,1.15-.12,1.66-1.37,4.35-3.96,7.55-8.51,8.87-.11.03-.23.09-.34.1-.32.01-.64,0-1.12,0Z"/>
  <path class="cls-5" d="m57,57.47c.03.75-.05,1.5-.74,1.91-.78.47-1.58.12-2.25-.28-.65-.38-1-1.01-.56-1.81.1-.17.2-.35.26-.54.3-.93.85-1.84,1.87-1.63,1.08.22,1.4,1.29,1.41,2.35Z"/>
  <path class="cls-4" d="m24.12,61.38c0-1.18.52-1.79,1.55-1.8,1.71-.02,2.79.6,2.76,1.59-.03.92-1.72,2.2-2.94,2.22-.84,0-1.37-.77-1.38-2Z"/>
  <path class="cls-2" d="m41.88,31.76c.29,2.69-2.9,5.59-4.81,5.47-3.02-.18-5.48-2.14-5.55-5.77-.06-3.1,2.33-4.94,5.4-4.99,2.7-.05,4.97,2.41,4.97,5.29Z"/>
</svg>