<?xml version="1.0" encoding="UTF-8"?>
<svg id="_レイヤー_1" data-name="レイヤー 1" xmlns="http://www.w3.org/2000/svg" viewBox="0 0 92.61 158.54">
  <defs>
    <style>
      .cls-1, .cls-2, .cls-3, .cls-4, .cls-5, .cls-6, .cls-7, .cls-8, .cls-9, .cls-10, .cls-11, .cls-12, .cls-13, .cls-14 {
        stroke-width: 0px;
      }

      .cls-2 {
        fill: #ca3211;
      }

      .cls-3 {
        fill: #d04a2e;
      }

      .cls-4 {
        fill: #fff;
      }

      .cls-5 {
        fill: #f29801;
      }

      .cls-6 {
        fill: #f29700;
      }

      .cls-7 {
        fill: #f29904;
      }

      .cls-8 {
        fill: #030303;
      }

      .cls-9 {
        fill: #040404;
      }

      .cls-10 {
        fill: #010101;
      }

      .cls-11 {
        fill: #010000;
      }

      .cls-12 {
        fill: #060606;
      }

      .cls-13 {
        fill: #050505;
      }

      .cls-14 {
        fill: #020202;
      }
    </style>
  </defs>
  <path class="cls-6" d="m62.56,151.66c-2.07-.21-4,.23-5.94.31-1.61.07-3.24-.13-4.86.05-1.93.22-3.88-.09-5.79-.03-5.52.18-10.8-1.22-16.12-2.19-1.9-.35-3.88-1.33-5.81-1.95-2.75-.89-5.32-2.1-7.93-3.26-1.27-.57-1.86-1.42-2.27-2.88-.84-3.01-1.2-6.08-1.59-9.13-.17-1.32-.17-2.77-.33-4.1-.32-2.64.46-5.2.17-7.84-.22-2.03.44-3.97,2.38-5.27,3.07-2.07,6.2-4.01,9.45-5.8,2.01-1.11,4.09-2.16,5.99-3.48,1.01-.7,2.02-.72,3.01-.1.77.48,1.57.76,2.45.87,1.93.24,3.59,1.4,5.59,1.53,1.79.12,3.55,0,5.32-.06,2.1-.08,4.18-.38,6.26-.78.82-.16,1.57-.37,2.17-.89,1.41-1.23,3.19-1.97,4.18-3.78.48-.88,1.85-.56,2.73-.09,4.17,2.22,8.27,4.56,12.26,7.12,1.79,1.14,3.64,2.26,5.44,3.41,2.3,1.47,4.05,3.44,4.01,6.61-.03,2.59.31,5.22.43,7.82.11,2.35.6,4.64.65,6.98.04,1.73.47,3.47.81,5.18.27,1.32-.15,2.61.03,3.93.09.64-.56,1.05-1.13,1.42-2.97,1.94-6.29,3.01-9.63,4.08-3.43,1.1-6.98,1.56-10.52,2.09-.51.08-.98.37-1.4.25Z"/>
  <path class="cls-1" d="m46.97,106.08c-2.88.61-6.16-.33-9.47-.93-.48-.09-.92-.23-1.35-.45-1.38-.71-2.71-1.53-4.41-.94-.79.27-1.48-.26-1.94-.9-.77-1.07-1.29-2.18-1.28-3.61.02-2.91-.16-5.83.03-8.75.11-1.6.89-2.95,1.52-4.36.18-.41.63-.55,1.04-.75,1.99-.96,4.17-.78,6.26-1.15,1.78-.31,2.53-1,2.3-2.76-.23-1.8-.16-3.58-.18-5.38,0-.61-.22-.8-.79-.93-1.63-.35-2.08-1-1.77-2.61.16-.81-.02-1.57-.11-2.35-.1-.9.11-1.45,1.2-1.62,2.87-.43,5.75-.22,8.63-.42.73-.05,1.53.1,2.23.36.69.25,1.13.87,1.02,1.68-.16,1.22-.33,2.45-.52,3.67-.04.27-.12.62-.44.65-1.13.1-1.07.89-1.12,1.71-.12,2.14-.3,4.28-.45,6.42-.07.98.47,1.8,1.34,1.76,1.65-.07,3.08.75,4.66.87.68.05,1.32.16,2.01-.03.78-.21,1.59-.12,2.36.13.93.3,1.41.87,1.33,1.94-.15,1.87.2,3.71.37,5.57.02.2.1.41.05.59-.47,1.7-.06,3.4.04,5.09.13,2.18-.65,2.23-2.04,2.77-.31.12-.71-.02-.75.54-.11,1.55-1.4,2.2-2.5,2.8-1.66.91-4.77,1.4-7.27,1.38Z"/>
  <path class="cls-1" d="m71.83,54.91c.05.98.12,1.93.14,2.88.02.93-.14,1.81-.67,2.61-.42.65-.57,1.43-.6,2.16-.1,2.33-1.88,3.36-3.51,4.27-2.71,1.52-5.72,2.41-8.76,3.02-1.81.36-3.55,1.17-5.48.97-.72-.07-.97-.28-1.01-.92-.01-.2-.06-.39-.11-.58-.59-2.33-.83-2.57-2.94-2.94-2.86-.5-5.72-.39-8.59-.11-1.19.12-2.35-.22-3.53-.33-1.85-.18-2.7.7-2.35,2.54.32,1.67.19,1.81-1.52,1.58-3.5-.47-6.55-2.09-9.47-3.93-1.32-.84-1.46-2.48-1.58-3.96-.13-1.76-.13-3.53-.29-5.29-.13-1.44.16-1.66,1.61-1.62,2.25.05,4.12,1.36,6.26,1.7,3.96.62,7.92,1.5,11.9,1.68,2.2.1,4.45.31,6.72.11,1.87-.16,3.85-.17,5.78-.05,1.2.07,2.45-.19,3.62-.5,1.64-.44,3.31-.83,4.92-1.33,2.52-.79,5.08-1.62,7.19-3.34.31-.25.65-.46.99-.66.25-.15.49-.53.83-.24.29.25.62.51.56.99-.06.43-.08.87-.11,1.29Z"/>
  <path class="cls-1" d="m69.4,157.67c-1.78-.02-3.54.02-5.28.38-.11.02-.24.06-.35.04-2.42-.49-4.88.08-7.33-.22-1.43-.17-3.04-.07-4.5.23-1.11.22-2.22.12-3.29.18-1.8.09-3.62.48-5.44.1-2.26-.47-4.59.17-6.85-.47-1.25-.35-2.55-.37-3.74-1.07-1.06-.63-2.39-.54-3.61-.7-2.64-.35-4.98-1.78-7.67-2.01-2.94-.24-5.61-1.45-8.03-3.05-1.69-1.12-3.45-2.33-3.85-4.61-.12-.66.54-2.06,1.12-2.3.42-.18.67.05.93.32,2.29,2.33,5.09,3.62,8.2,4.63,1.8.58,3.74.92,5.47,1.89,1.12.63,2.61.62,3.93.88.86.17,1.7.33,2.49.76.44.24,1,.47,1.47.4,3.56-.49,6.94.66,10.38,1.09,2.51.32,4.96.36,7.44-.07.38-.07.8-.02,1.19.03,3.13.41,6.22-.11,9.31-.46,1.02-.11,2.01.13,3.06,0,5.59-.71,11.01-2.2,16.19-4.29,2.19-.88,4.69-1.85,6.19-4.04.22-.33.48-.65.61-1.02.3-.84.76-1.34,1.69-.93.87.38,1.36,1.13,1.01,2.02-.72,1.81-1.56,3.58-3.2,4.8-1.7,1.26-3.54,2.26-5.51,3.07-3.59,1.49-7.13,3.09-10.89,4.1-.38.1-.76.21-1.13.31Z"/>
  <path class="cls-1" d="m68.56,51c-.64.15-1.22-.19-1.77-.62-2.16-1.67-4.49-2.75-7.27-3.25-2.84-.5-5.7-.94-8.53-1.17-2.72-.22-5.51.49-8.26.94-2.15.35-4.29.81-6.5.87-1.28.04-2.58.45-3.62,1.07-1.66,1-3.6,1.22-5.27,2.19-.96.55-1.92,1.11-2.85,1.71-.88.57-1.5.42-2.17-.33-1.94-2.2-1.91-2.28-.38-4.69,1.13-1.78,3.07-2.18,4.71-3.08,2.6-1.42,5.6-1.39,8.4-2.1,3.14-.8,6.39-1.22,9.63-1.54,1.94-.19,3.95-.14,5.88-.29,4.09-.31,8,.6,11.92,1.34,2.66.5,5.28,1.41,7.03,3.79.66.9.97,1.93,1.11,2.98.22,1.64-.31,2.17-2.07,2.17Z"/>
  <path class="cls-2" d="m48.95,22.71c-.35-.44-.42-.81-.36-1.15.24-1.57-.42-2.89-1.16-4.17-.44-.77-.81-1.56-1.01-2.42-.22-.93-.83-1.56-1.52-2.08-.8-.6-1.57-.25-2.05.47-.68,1.02-1.29,2.07-1.23,3.42.09,1.92.03,3.84.02,5.76,0,.31.12.72-.18.9-.39.23-.65-.2-.9-.4-.93-.71-1.56-1.59-1.81-2.82-.59-2.87-1.04-5.76-1.16-8.68-.07-1.66.46-3.3,1.09-4.83.76-1.84,1.84-3.52,2.4-5.46.33-1.13,1.29-1.52,2.39-1.04,1.64.71,2.9,1.81,3.88,3.38,2.19,3.51,2.96,7.23,2.79,11.36-.1,2.49-.96,4.83-.87,7.31,0,.12-.15.24-.3.47Z"/>
  <path class="cls-2" d="m74.1,11.19c-.12,2.03.18,4.15-.91,6.05-.77,1.34-1.56,2.67-2.34,4-.16.28-.38.64-.69.52-.39-.14-.21-.57-.09-.84.49-1.1.78-2.39.74-3.45-.06-1.56,0-3.25-.62-4.76-.33-.8-.96-.99-1.77-.61-2.2,1.03-3.7,2.72-4.6,4.94-.42,1.03-.7,2.11-1.06,3.17-.13.39-.36.81-.76.86-.47.06-.62-.44-.76-.8-.75-2.01-.89-3.89.39-5.88,1.53-2.37,3.02-4.79,4.2-7.37.29-.63.5-1.28.47-1.95-.06-1.35.61-2.53.79-3.83.14-1.04,2.08-1.19,2.97-.17,2.5,2.89,4.59,5.97,4.04,10.11Z"/>
  <path class="cls-1" d="m88.07,51.13c-2.48-.15-3.75.77-4.13,3.01-.44,2.59-1.64,4.96-2.06,7.55-.1.6-.51,1-1.05,1.2-2.16.81-4.32,1.6-6.49,2.36-.71.25-1.52.51-1.92-.48-.33-.8.26-2.28,1.06-2.51.87-.25,1.65-.74,2.62-.75,1.04,0,1.36-.96,1.74-1.74.13-.28.23-.63.18-.93-.52-2.95.86-5.57,1.37-8.34.15-.81.48-1.27,1.24-1.52,1.76-.57,3.38-1.52,5.3-1.62,1.44-.08,2.79-.56,4.07-1.25,1.43-.77,2.66.01,2.61,1.61-.05,1.88-.38,2.35-2.21,2.85-.83.22-1.62.75-2.33.55Z"/>
  <path class="cls-1" d="m.01,49.02c-.09-.93.42-1.48,1.26-1.46,1.83.04,3.64-.11,5.45-.34.64-.08.7.38.75.82.19,1.57.44,3.14.55,4.72.14,1.97,1.18,3.6,1.82,5.39.37,1.04.56,2.16,1.13,3.13.37.63.81.81,1.62.85,2.04.09,4.09-.2,6.13.16.6.11,1.08.3,1.03,1.02-.05.73-.49.96-1.19,1.03-2.86.32-5.77-.19-8.62.55-.96.25-1.97-.18-2.95-.33-.51-.08-.55-.51-.67-.89-.95-3.16-1.75-6.36-2.47-9.58-.14-.62-.33-1.23-.5-1.84-.26-.91-.71-1.41-1.82-1.2-1.14.22-1.48-.33-1.52-2.04Z"/>
  <path class="cls-2" d="m18,23.29c-1.3-.77-2.08-2.07-2.56-3.34-1.8-4.81-1.21-9.47,1.51-13.81.43-.7,1.11-1.25,1.73-1.81.48-.43,1.37,0,1.41.82.17,3.07,1.97,5.3,3.71,7.59,1.53,2.02,2.5,4.34,3.19,6.77.2.7.32,1.46-.18,2.22-.62-.58-.82-1.33-1.21-1.96-1.27-2.06-3.65-3.1-5.96-2.57-1.38.32-2.54,2.97-1.96,4.49.11.29.21.59.32.89.17.24.16.48,0,.72Z"/>
  <path class="cls-1" d="m55.95,38.41c-.2,0-.4,0-.6,0-1.53.06-2.2-.65-2.12-2.22,0-.16.02-.32.03-.48.04-2.41.98-3.85,3.56-4.54,2.09-.56,4.2-.97,6.31-1.43.74-.16,1.6-.16,1.95.49.44.81.52,1.83.36,2.77-.06.35-.56.36-.92.37-1.23.04-2.47.16-3.7.1-1.1-.06-1.65.36-1.8,1.41-.06.43-.17.86-.25,1.29-.33,1.75-1.03,2.31-2.82,2.24Z"/>
  <path class="cls-10" d="m18.58,32.89c1.31.34,2.63.04,3.91-.42,1.01-.36,2.06.12,3.06-.27.29-.11.5.22.63.45.25.45.63.92.63,1.39.02,2.14,1.05,3.97,1.77,5.89.36.97.1,1.6-.7,1.97-.87.41-1.75.21-2.23-.71-.95-1.84-1.95-3.64-3.05-5.39-.35-.56-.7-.9-1.33-1.01-1.14-.2-2.26-.39-3.41-.04-.33.1-.71.07-1.07.02-.33-.04-.62-.28-.69-.59-.07-.33.15-.63.46-.76.62-.26,1.23-.56,2.01-.53Z"/>
  <path class="cls-5" d="m68.24,17.03c.25,2.71-.97,4.4-2.71,5.83-.33.27-.7.46-1.09.2-.36-.24-.51-.71-.35-1.07.72-1.67.57-3.62,1.65-5.18.53-.77.89-2.01,1.99-1.71.96.26.38,1.46.51,1.93Z"/>
  <path class="cls-5" d="m20.39,21.25c.08-.59-.27-1.33.6-1.63.66-.24,2.3.34,2.76,1.07.75,1.19.97,2.59,1.43,3.9.13.38.01.83-.32,1.09-.38.3-.74.02-1.11-.13-1.26-.52-2.13-1.5-3.02-2.47-.51-.55-.27-1.21-.34-1.82Z"/>
  <path class="cls-7" d="m46.32,21.46c-.06,1.02-.44,1.94-.87,2.84-.14.3-.28.57-.68.56-.51-.01-.48-.43-.62-.75-.92-2.14-.56-4.39-.62-6.61-.01-.41.13-.71.55-.8.34-.07.72,0,.78.37.19,1.37,1.14,2.45,1.4,3.79.04.19.04.39.06.59Z"/>
  <path class="cls-8" d="m44.71,54.24c-1.38-.03-2.25-.86-2.16-2.28.05-.72.58-1.2,1.38-1.2.89,0,2.51,1.31,2.5,2.02,0,.87-.72,1.48-1.72,1.46Z"/>
  <path class="cls-14" d="m38.66,54.18c-.03.71-.08,1.42-1.06,1.37-.96-.05-2.88-1.71-2.78-2.46.11-.87.78-1.14,1.57-1.13,1.28.03,2.34,1.07,2.28,2.22Z"/>
  <path class="cls-9" d="m49.76,51.99c.14-.73.01-1.65,1-2.15.49-.24.74-.28,1.04.21.73,1.16.66,2.5-.19,3.1-.43.31-.91.38-1.34.14-.42-.24-.68-.66-.51-1.3Z"/>
  <path class="cls-13" d="m55.75,52.12c.06-.86.91-1.77,1.76-1.71.72.05,1.12.48.94,1.19-.2.83.13,2.13-1.4,2.02-.81-.06-1.52-.31-1.3-1.5Z"/>
  <path class="cls-3" d="m18,23.29c0-.24,0-.48,0-.72.17.67.82,1.02,1.14,1.71-.6-.18-.97-.47-1.14-.99Z"/>
  <path class="cls-1" d="m35.93,122.33c3.93-.46,7.75.23,11.6.72,1.81.23,3.65-.17,5.46-.5,2.06-.37,4.12-.31,6.14.11,1.27.27,2.25,1.25,3.08,2.17,1.89,2.09,2.67,4.54,2.72,7.48.04,2.27-.65,3.94-1.92,5.53-1.49,1.86-3.53,2.86-5.77,3.65-2.29.81-4.62,1.43-6.99,1.95-3.59.78-7.1,0-10.63-.53-2.5-.37-4.59-1.74-6.93-2.48-.67-.21-1.32-.76-1.7-1.45-.75-1.36-2.07-2.28-2.73-3.74-1.03-2.26-1.34-4.54-.76-6.96.2-.84.5-1.59,1.09-2.22,2.01-2.13,4.43-3.44,7.35-3.75Z"/>
  <path class="cls-1" d="m63.89,148.65c-2.63.28-5.26.69-7.9.77-1.53.05-3.11.33-4.62.04-2.89-.56-5.86-.08-8.72-.71-1.65-.37-3.21-1.08-4.93-1.27-1.61-.18-3.27.32-4.83-.29-3.78-1.49-7.86-1.54-11.73-2.54-1.55-.4-2.96-1.34-4.33-2.23-.5-.33-.31-.87-.2-1.31.11-.43.5-.62.94-.58.68.06,1.41.08,1.96.48,1.02.73,2.21.82,3.34,1.17,8.56,2.66,17.49,3.26,26.25,4.76,1.66.28,3.53,0,5.3-.05.63-.02,1.25-.16,1.89-.04,2.22.41,4.32-.42,6.49-.61,3.91-.34,7.69-1.27,11.33-2.75.81-.33,1.6-.72,2.38-1.11.55-.27,1.12-.63,1.53.16.4.77.17,1.42-.59,1.8-.93.46-1.89.85-2.85,1.23-3.22,1.26-6.45,2.51-9.9,3.07-.27.04-.54.12-.8.18,0-.06-.01-.11-.02-.17Z"/>
  <path class="cls-1" d="m48.66,119.87c-1.02-.14-1.9-.2-2.75-.38-2.26-.49-4.67.42-6.81-.52-2.45-1.07-5.2-.99-7.56-2.3-.44-.24-.98-.33-1.49-.41-1.25-.19-2.35-.73-3.41-1.38-.52-.32-1.2-.63-.75-1.44.45-.8,1.14-1.69,2.06-.98,1.86,1.44,4.13,1.77,6.18,2.69.96.43,2.08.51,3.12.74.7.15,1.43.21,2,.71.16.14.33.23.54.18,1.61-.45,3.17.06,4.72.32,2.06.34,4.13.41,6.17.1,4.08-.62,8.24-1.14,11.43-4.24.54-.52,1.2-.91,1.8-1.37.33-.26.64-.32.97-.04.33.29.5.65.26,1.06-.28.48-.53,1.05-.95,1.36-2.24,1.63-4.32,3.47-7.14,4.22-2.82.75-5.68,1.18-8.39,1.69Z"/>
  <path class="cls-1" d="m71,132.46c-.08.73.32,1.67-.68,2.07-.38.15-.83.49-1.23.19-.42-.33-.59-.86-.45-1.4.21-.85.35-1.71.28-2.58-.15-1.94-.96-3.6-2.22-5.03-.45-.51-.77-.95-.12-1.49.62-.51,1.1-.32,1.6.26,1.99,2.3,2.98,4.93,2.82,7.99Z"/>
  <path class="cls-11" d="m21.29,129.61c0-2.16.9-3.92,2.47-5.34.31-.28.72-.91,1.28-.47.56.44.59,1.11.34,1.75-.08.21-.29.37-.46.54-1.92,2.01-2.12,3.08-.94,5.55.35.73.32,1.21-.52,1.47-.78.24-1.63.54-1.85-.65-.18-.94-.21-1.9-.31-2.85Z"/>
  <path class="cls-4" d="m41.75,87.06c1.25.14,2.21.02,2.9.81.07.08.23.19.3.16,1.21-.52,2.04.56,3.08.75,1.65.29,2.79,1.63,2.68,3.26-.18,2.54-.81,4.87-3.24,6.26-1.12.64-2.24,1.12-3.59.86-1.47-.28-2.94-.33-4.24-1.33-2.6-2-3.27-6.61-1.08-9.08.89-1.01,2.17-1.52,3.2-1.68Z"/>
  <path class="cls-4" d="m38.94,138.7c-2.5,0-4.97-2.48-4.98-4.79,0-.94-.26-1.86-.04-2.84.49-2.16,1.82-3.46,3.85-4.12,1.2-.39,2.16.26,3.08.87.46.3.41.88.14,1.31-.24.39-.69.31-1.07.19-2.18-.71-3.35.07-3.83,2.37-.39,1.88-.1,3.39,1.52,4.63.96.74,2.64.57,3.29-1.05.29-.72-.38-.69-.76-.71-.47-.02-.94.15-1.41.16-.68.01-.96-.49-1.13-1.05-.19-.67.29-.95.77-1.16,1.23-.54,2.51-.45,3.72-.04,1.08.37.68,1.47.68,2.19,0,1.98-1.3,3.42-3.24,3.91-.27.07-.54.1-.61.12Z"/>
  <path class="cls-4" d="m44.48,135.49c-.02-2.56,1.03-4.85,1.83-7.2.13-.4.45-.75.75-1.06.62-.65,1.22-.75,1.9.01,1.87,2.09,2.33,4.71,2.85,7.31.13.62.18,1.26.3,1.88.12.63.18,1.32-.55,1.49-.77.17-1.34-.27-1.59-1.09-.14-.46.19-1.1-.48-1.36-.71-.28-1.39-.1-2.09.12-.87.28-.76,1.04-.84,1.67-.08.6-.03,1.35-.76,1.41-.86.08-1.05-.68-1.12-1.39-.06-.59-.13-1.18-.19-1.77Z"/>
  <path class="cls-4" d="m55.87,137.52c-.77-.1-1.49-.54-2.16-1.01-.45-.31.08-.61.21-.9.25-.54.61-.92,1.27-.79.11.02.22.09.33.14.6.27,1.24.79,1.79.02.53-.75-.04-1.33-.48-1.88-.48-.61-1.15-1.01-1.85-1.26-1.02-.37-1.67-1.15-1.67-2.11,0-1.08.74-1.87,1.85-2.24,1.33-.43,2.97-.02,3.92,1.02.36.4.72.84.31,1.36-.42.53-.91.26-1.37-.04-.32-.21-.58-.51-1.03-.53-.43-.02-.92-.25-1.14.28-.24.59.26.95.69,1.07,1.01.3,1.48,1.12,2.09,1.85.9,1.08.84,2.14.28,3.31-.6,1.26-1.72,1.55-3.04,1.7Z"/>
  <path class="cls-1" d="m43.56,89.4c1.17-.06,1.98.44,2.52,1.46.91,1.69.66,4.34-.59,5.77-.64.74-2.69.76-3.76.04-1.82-1.23-2.21-3.12-1.16-5.08.67-1.25,1.4-2.29,2.99-2.19Z"/>
  <path class="cls-12" d="m48.07,133.3c-.58-.14-1.38-.02-.85-1.11.29-.59.31-1.3.47-1.95.15-.58.48-.71.95-.32.4.33.83,2.4.54,2.8-.26.37-.64.6-1.12.58Z"/>
  <path class="cls-4" d="m43.55,92.34c.7.13,1.02.57,1.07,1.16.06.71-.44,1.15-1.04,1.24-.63.09-.9-.45-.85-1.01.05-.58.17-1.18.83-1.39Z"/>
</svg>