<?xml version="1.0" encoding="UTF-8"?>
<svg id="_レイヤー_1" data-name="レイヤー 1" xmlns="http://www.w3.org/2000/svg" viewBox="0 0 1928.72 150">
  <defs>
    <style>
      .cls-1 {
        fill: #f6ecda;
        stroke-width: 0px;
      }
    </style>
  </defs>
  <path class="cls-1" d="m625.63,27.22c5.49-1.23,7.87-6.16,13-7.06-.39,1.06-.42,1.84-.82,2.11-9.31,6.36-8.75,13.95-3.42,22.55,1.95,3.15,2.81,6.95,4.14,10.37,2.24.04-.23-2.53,2.19-2.81,3.78-.44,3.98-.89,2.46-4.01-2.64-5.41-5.61-10.67-9.32-17.64,7.2,5.09,8.61,12.01,12.85,17.5,8.53-10.07-2.74-17.69-2.54-27.16,3.84,3.66,4.64,8.38,7.48,12.41,1.39-4.26-.07-8.49,2.98-12.52.22,3.07.4,5.48.59,8.14,4.38-8.35.12-15.76-1.59-23.57,2.01,8.64,13.64,12.32,11.77,22.85-.22,1.23.38,2.61,1.87,2.92,1.61.34,2.17-.93,2.67-2.13.95-2.3,1.91-4.6,3.43-8.23,1.04,3.89,1.73,6.51,2.43,9.14,1.33-9.01-1.71-17.63-1.62-26.64,2.42,8.09,4.83,16.18,7.34,24.57.71-3.99,5.24-2.48,7.56-6.03,1.85,7.83-4.16,16.32,4.98,21.65,1.83-8.85-1.2-17.46.49-26.3,1.39,4.5,2.82,8.98,4.14,13.5.29.98-.02,2.14.32,3.1.81,2.32,1.62,5.78,4.16,5.6,2.68-.19,4.37-3.07,4.1-6.21-.4-4.51,1.42-9.19-1.12-13.54-.53-.91-2.16-2.05.23-2.79,1.44-.45,2.08-.02,2.87,1.41,3.06,5.5,8.58,9.23,11.4,16.12,3.39-5.74,4.41-11.51,10.07-16.75-1.69,6.26-5,10.9-1.05,16.26,3.79-9.14,6.17-18.57,12.73-26.49-4.59,6.66.08,11.52,2.45,16.92,3.06,6.97,4.18,14.43,4.42,22.95,2.93-4.16,1.32-8.29,2.48-12.16.4.49.71.72.81,1.02.83,2.43-1.06,7.01,1.98,7.04,3.33.04,1.55-4.36,1.83-6.75.78-6.6,1.16-13.25,1.75-20.44,5.1,14.2-.35,28.96,4.66,42.62,2.8-13.63-.5-27.46,2.1-41.08,3.46,9.41.85,19.45,3.92,28.76,1.33-.89-.03-3.25,2.79-4.51.31,7.01-1.68,13.7-.33,20.92,4.04-3.04,5.84-6.29,5.75-10.87-.26-13.2-.01-26.35,6.29-38.58,1.82-3.54-2.26-6.49-1.59-10.77,3.95,3.78,5.12,8.31,6.7,12.5,1.49,3.95,3.05,6.22,7.74,1.83-.44,6-4.43,10.31-2.35,15.92,1.95,5.28,5.18,10.41,4.48,16.67,2.74-6.32,7.97-11.19,8.59-18.39.14-1.57,3.26-3.43,5.37-4.18,3.07-1.09,3.9-3.59,5.44-6.28,2.89,3.82-.89,8.06,1.6,11.86,4.3-2.36,1.21-8.02,5.24-10.99,2.66,3.56.84,7.73,2.03,11.69,3.94-6.69,3.64-14.59,8.67-20.48,4.87,5.97,5.23,13.35,9.41,19.27-1.06-4.76-2.11-9.53-3.41-15.38,3.29,2.98,2.49,6.59,4.48,8.99,2.15-1.87,1.1-4.86,2.92-6.9,1.66,3.93-1.31,7.5-.21,11.98,2.43-8.66,4.68-16.65,6.92-24.64l1.7.09c-3.76,11.96-5.02,23.68,2.85,34.81,1.61-4.77,1.69-9.58,1.15-14.43-.55-4.9,7.82-3.32,7.62-8.75,0,2.32-.14,4.64.05,6.95.12,1.46-.79,3.96,1.82,3.87,1.93-.06,3.43-1.63,3.32-3.92-.05-1.01-.14-2.03-.22-3.06,1.61-.19,1.4.95,1.58,1.57,2.17,7.28,2.11,7.17,9.59,4.28,3.96-1.53,2.87,1.76,2.76,3.41-.45,7.06-1.12,14.11-1.71,21.31q6.56-2.22,4.96-19.64c2.05.95,1.39,3.38,3.22,4.97,5.84-10.3,8.13-20.11-2.02-29.75,5.72,3.01,10.22,7.26,12.18,12.02,1.51,3.66,5.75,3.46,6.37,6.89,2.85-1.66,2.85-4.43,2.97-7.17.04-.81.26-1.62.41-2.43,2.86-.84,1.21,3.78,4.56,3.05,2.42-.52.61,1.41.17,2.2-.75,1.35-3.01,2.58-1,4.21,1.85,1.5,2.96-.65,4.28-1.54.51-.35,1.09-.6,2.06-1.14,1.87,5.04.77,11.17,6.6,14.96,3.78-7.64,3.96-16.37,8.5-23.76-.84,4.39-1.63,8.79-2.52,13.18-.93,4.61,1.72,9.69-2.05,13.97-.56.64-.2,2.19.87,2.73,1.54.79,2.56-.43,3.06-1.48,2.41-5,7.58-8.74,7.09-15.08-.2-2.57.84-.87,2.16-.9,5.62-.11.26-4.61,2.38-6.6,2.83,1.11,5.81,1.07,8.65-.82.54,2.25-1.22,2.96-1.74,4.25-.47,1.17-.14,2.13.77,2.78,1.39.98,2.01-.18,2.28-1.17.8-2.94,1.99-3.05,4.1-.96.54.53,12.19-8.96,12.29-9.96.16-1.77-1.27-2.56-2.4-3.44-3.13-2.45-6.32-4.82-9.15-7.81,3.78-.03,6.98,1.66,9.5,3.83,4.94,4.27,9.61,4.67,14.81.71.92-.7,2.27-.87,4.06-1.51-.62,2.99-2.98,3.49-4.37,4.8-1.7,1.6-4.99,2.61-1.66,5.71,2.4,2.24,4.93,5.07,7.75,1.3,2.02-2.7,3.31-3.12,5.87-1.05,1.53,1.24,3.15-.67,3.77-.67,5,8.76,9.63,16.9,14.29,25.03.45.79,1.35,1.34,2.06.5.64-.75,1.28-1.9,1.16-2.77-.48-3.72-1.37-7.39-1.87-11.11-.33-2.4-1.88-4.69-.66-7.99,3.01,6.19,3.98,12.33,5.74,18.21.43,1.45-.16,3.93,2.28,3.82,2.09-.09,3.15-2.1,3.62-3.95.69-2.71-.22-5.37-.58-8.06-.49-3.67-.67-7.38.34-11.54,4.63,2.03,5.35,6.82,8.86,9.55,3.79-5.76-2.79-8.21-4.17-12.25,2.29-.9,3.19.95,4.54,1.69,4.2,2.3,7.71,2.82,10.6-2.23,2.65-4.64,5.48-9.35,11.4-13.14-2.08,6.56-5.82,10.87-8.87,15.38-3.23,4.78-2.76,8.3,1.91,12.15-.37-2.64-.68-4.82-1.19-8.47,7.12,7.44,7.97,15.67,10.2,24.53,1.03-3.07,1.74-5.17,2.53-7.52,1.74,1.68.73,3.26.48,4.73-.46,2.69-1.27,5.4.78,7.79.78.91,1.97.94,2.88.19,2.86-2.33,1.41-5.39,1.27-8.19-.19-3.74-2.14-8.77-.37-10.95,3.45-4.25.74-6.81-.83-10.22,3.3-.18,2.8,3.67,5.38,3.98,2.63-2.18.73-6.13,3.44-8.59,1.61,6.18-5.66,13.93,3.79,18.9,1.6-6.66,3.13-13.06,4.86-20.27,7.85,6.89,1.48,15.41,5.25,23.62,2.82-12.73,9.78-23.55,3.91-36.27,5.77,13.32,7.75,27.34,11.16,42.03,5.65-7.93,1.41-15.55,1.7-23.22,3.18,2.78,1.66,6.47,3.3,10.16,1.42-4.21,2.59-7.7,3.76-11.18.38.07.76.14,1.14.21-1.04,4.74-2.08,9.48-3.11,14.22,3.71-4.99,5.24-10.43,4.84-16.38-.11-1.61-.36-3.68,1.69-4.31,2.17-.66,2.7,1.54,3.74,2.75,3.05,3.53,2.75,8.29,4.71,12.21.97,1.95.78,4.47,3.41,6.31.56-5.56,1.08-10.65-.26-15.74-.29-1.11-1.68-2.32,0-3.23,2.42-1.3,1.91,1.44,2.88,2.16,4.7,3.46,5.88,10.42,12.58,11.91,1.3.29.84,1.76.93,2.72.2,2.23-.02,4.56,1.7,6.59,1.64-2.32-.19-5.32,2.16-7.17,2.1.93.48,3.18,1.87,4.46.3-.51.76-.97.84-1.47.86-5.46,5.96-9.87,3.98-16.08-.48-1.51,1.26-1.31,2.21-1.16,1.2.19,3.1-1.7,3.53.97.3,1.86.38,4.37,2.66,4.36,2.49-.02,2.76-2.86,3.63-4.7,1.77-3.7,2.71-7.83,6.3-10.92-4.39,8.91,3.69,15.24,5.19,23.1.25-4.78.51-9.55.76-14.33.43.01.86.02,1.3.04,0,6.2-.35,12.43.1,18.6.42,5.76-4.28,12.27,2.21,17.62,4.69-12.06.55-24.68,4.1-36.54-1.1,10.21,1.18,20.15,1.64,31.61,1.77-9.8,2.46-18.23,1.33-27.6,7.03,6.54-2.4,16.56,6.98,22.36v-22.15c.42-.02.84-.03,1.26-.05.2,3.18.4,6.36.6,9.53-.08-9.55,10.52-17.48,4.17-28.1,5.65,5.19,6,12.82,10.26,18.36,2.5,3.24,2.13,6.73,2.28,10.39.26,6.25,5.33,11.04,6.12,17.25.16,1.27,1.3,2.36,2.79,1.94,2.09-.59,1.27-2.29,1.13-3.68-.36-3.62-3.02-7.05-.88-10.98,2.11,1.05,1.45,3.57,2.92,5.63.29-6.27.46-11.87-.34-17.57,5.46,2.17,7.62,6.29,7.47,12.26,4.11-2.11,2.83-6.12,5.02-8.19,2.15-.68-.31,4.99,2.08,1.99,3.86-4.83,6.51-10.56,13.36-12.42.6,2.2,6.05.4,6.64,4.85,1.92-1.57-.16-4.15,1.96-5.79,2.57,2.26,1.24,6.11,3.5,8.45,2.49-1.57.79-4.76,2.69-6.79,1.85,4.94-1.86,9.58-.26,14.35,13.04-7.27,11.09-23.04,19.67-33.1-2.19,10.16-7.21,19.81-1.15,31.69v-15.16c2.68,3.61.63,7.92,3.23,11.75,2.3-4.07,4.49-7.95,7.29-12.89,1.1,4.12,2.2,7.01,2.58,9.98.6,4.73,1.83,6.74,6.76.42-1.22,5.94-5.92,9.44-3.27,13.89,1.65,2.78,5.04,3.53,9.3,4.78-3.41-5.47,2.11-8.81,1.4-13.32,6.06-.78,3.37-7.21,6.77-9.96,2.31-1.88,3.88-4.88,1.15-8.86,4.08,1.72,5.89,4.14,7.64,6.43,2.82,3.69,4.75,4.75,5.66-1.69.94,6.51,2.97,12.1,9.38,13.67,5.62,1.38,5.34-5.51,9.24-7.68,1.98,2.09,1.87,5.19,3.18,7.64,1.35,2.52.31,8.56,6.42,3.88,1.46-1.12,2.18.71,2.58,1.83.91,2.53,1.68,5.11,2.57,7.88,2.31-6.49.31-11.2-4.52-15.75-8.49-8-17-15.92-26.48-22.81-1.09-.79-2.82-1.18-2.72-3.72,11.09,4.07,19.45,11.41,27.77,18.8,1.9,1.69,3.49,3.7,5.39,5.38,2.84,2.52,4.74,2.15,7.46-1.55.99,3.68,1.87,7.08,2.83,10.47.24.85.72,2.9,1.33,2.04,1.13-1.59,3.18.38,3.55-1.27,1.05-4.75,3.6-9.44-.59-14.22-3.68-4.19-6.74-8.89-9.54-13.81,8.33,4.58,12.82,12.67,19.76,19.56,4.93-9.19,10.59-18.42,20.18-24.53-3.46,7.92-14.49,13.87-5.67,24.82,2.32-3.06,4.62-6.09,7.04-9.28,4.23,9.95,7.01-2.98,12.03.81.54.55-1.77,2.8-.6,4.71,2.91.16,3.86-3.23,6.67-3.51.39,2.62-2.01,3.6-2.88,5.35-1.1,2.21-1.1,4.35,1.15,5.43,2.5,1.2,3.35-1.23,3.97-2.88,1.5-4.04,2.74-8.17,4.98-12.11.26,2,.52,4.01.77,5.97.73.04,1.25.24,1.53.07,8.18-5.01,8.08-4.99,10.49,4.57,1.19,4.75.66,10,4.65,15.37,1.29-4.61,2.34-8.28,3.34-11.97.43-1.59.43-3.67,2.6-3.83,2.39-.18,2.53,1.89,2.62,3.53.15,2.84,2.28,4.83,4.38,4.15,2.34-.76,4.28-3,3.73-6.47-1.33-8.33-2-16.76-3.75-25.08,3.37,4.96,3.91,10.76,5.67,16.18.59,1.8-.35,4.99,2.52,5.06,2.37.06,3.58-2.61,5.07-4.38.72-.86-.04-3.95,1.54-2.45,1.21,1.15,5.4.03,3.91,3.91-1.54,4,0,7.82,1.48,11.53.47,1.17,1.21,2.38,2.59,2.56,1.65.22,2.16-1.27,2.47-2.4,1.49-5.34,6.69-10.05,2.62-16.72,3.39.56,5.32,2.57,7.16,4.4,4.7,4.7,10.76,4.45,13.8-1.3,1.31-2.47,1.43-4.33,4.75-2.25,1.2.75,2.91-1.69,4.74-.59-10.52,8.75-1.07,19.5-2.74,29.24.7-2.14,1.4-4.28,2.5-7.62,1.25,4.39-.53,7.3-.51,10.31.02,2.58.51,4.74,3.46,5.12,3.54.46,3.44-2.34,3.79-4.57,1.32-8.53-2.3-16.89-.94-25.44.29-1.81.23-3.67,1.3-5.78-.96,12.28,4.95,22.13,10.82,32.82,1.09-5.92-1.95-11-.13-16.46,3.02,3.94,1.77,8.69,4.05,12.67-.1-8.27,1.69-16.33,2.14-26.32,2.44,6.4-.09,11.8,3.34,16.48-1.6-6.96,8.27-10.95,4.09-18.9,2.4,2.12,4.56,3.48,7.12.03-2.39,5.52-1.73,10.16,1.33,15.14,2.88-3.64,1.11-8.24,4.42-11.91-.56,4.51-.93,8.39-1.56,12.23-.53,3.26.18,6.68,3.46,7.03,4.08.44,3-3.59,3.37-6.09.21-1.39.44-2.77.84-5.25,2.84,3.82.54,7.69,2.52,11.02,3.49-4.49-.85-8.87,1.15-13.77.78,5.11,2.16,9.2,7.95,10.07-.84-6.28.2-12.28,2.38-19.65,1.38,7.27-.23,13.35,2.56,19.07.28-2.52.57-5.05.85-7.57.34,0,.69,0,1.03,0,0,3.8-.1,7.61.03,11.41.16,4.88.95,5.76,5.53,6.41,1.81.26.84,1.5.95,2.28.33,2.31-.95,5.04,2.51,7.14,3-11.13-.98-21.69-1.23-33.12,3.77,4.81,1.56,10.25,3.84,14.67,1.94-5.37,7.77-9.31,5.73-15.7-1.89-5.92-4.21-11.72-5.73-17.79,9.31,13.02,11.81,28.5,15.97,44.12,1.98-6.01,1.56-11.49,2.1-17.05,2.28.63.27,3.18,2.11,3.8,3.22-5.33.49-10.48-.97-15.77,3.03-.04,2.45,2.95,4.62,3.71,2.94-3.9,3.09-9.58,7.71-12.85-1.5,5.24-2.71,9.75.96,15.14,2.86,4.2,7.93,7.13,8.55,12.94,3.07-4.73-.04-9.81,1.77-14.61,2.32,4.95,3.29,9.94,2.65,15.3,4.06-6.45,2.52-14.17,5.94-20.66,7.85,2.85,5.82,11.77,9.79,17.79,5.02-4.72,2.79-11.38,6.24-16.3-.48,4.78-.96,9.55-1.51,15.14,3.86-2.47,4.26-6.5,6.58-9.12.92-1.04,1.64-3.67,2.83-2.83,6.99,4.93,7.5-2.99,11.74-5.41.04,9.45.49,18.53,5.92,26.75,1.55-2.82-.27-5.31-.36-7.82,2.12-.95,1.56,1.87,2.9,1.89,3.43-7.05,6.86-14.09,10.83-22.26,2.75,7.3.12,14.22,5.32,19.76,2.53-4.83,5.01-9.59,7.51-14.35.58-1.09,1.16-2.68,2.58-2.37,2.04.45,1.29,2.3,1.17,3.69-.81,9.33-2.23,18.65.15,28.05v-20.73c5.28,8.49.44,16.15,2.27,24.31,4.84-14.87,3.98-30.4,12.37-43.55-.72,3.62-1.4,7.25-2.18,10.86-.99,4.58.54,8.13,5.19,9.27,4.02.99,3.37,5.01,5.82,6.86,1.26.96,2.08,3.21,4.09,2,1.42-.86.94-2.69.43-4.07-.93-2.55-2.24-5.05-.25-7.71,2.9-.07,2.13,5.65,5.35,3.81,3.86-2.2.68-6.49,1.98-11.4,2.37,11.58,4.42,21.61,6.48,31.64,4.15-7.21,3.3-14.71,3.98-22.77,2.8,4.78,1.85,9.51,3.43,13.8,3.53-6.4-.51-13.06.46-20.14,2.96,4.7,1.52,9.99,4.29,14.08,2.63-1,2.84-3.33,3.96-5.01.72-1.08.7-3.28,3.01-2.19,1.97.93,1.68,2.19,1.03,4.09-1.71,4.97-2.22,10.17-2.04,15.43.1,3.1.24,6.41,4.39,6.24,3.92-.16,2.71-3.67,2.77-5.92.26-10.55,1.86-20.76,7.45-30.7,2.26,3.88,3.2,8.12,7.21,10.64,3.36,2.11,4.28,1.6,4.93-1.98.51-2.82,1.64-5.54,2.68-8.91,5.79,10.04,7.29-1.57,11.73-.85.92,5.44,6.09,7.03,10.93,8.6,2.55.83.89-2.81,2.85-3.55,1.68,1.83-1,4.87,2.27,6.92,6.59-8.96,9.75-20.83,21.84-26.41-4.5,10.24-19.06,17.83-6.85,32.6,1.06-7.2,5.17-12.38,1.96-19.94,4.45,2.37,6.97,5.36,9.04,8.54,2.64,4.07,4.74,5.61,6.92-.89,2.11,3.56-1.41,6.63,1.35,10.41,8.8-9.45,12.41-22.8,24.19-29.46-4.63,7.89-10.71,14.87-15.17,24.07,5.01-2.43,7.46-7.11,13.17-8.44-4.32,7.99-12.2,12.46-15.82,21.51,4.05-2.84,4.95-6.78,9.04-8.75-2.36,9.46-14.13,17-4.43,27.56,2.44-.76.42-3.93,2.87-5.24,2.45,1.87,1.22,4.39.76,6.55-1.04,4.86-.87,9.56,1.13,14.14.65,1.5,1.11,3.54,3.33,3.21,2.76-.41,2.25-2.78,2.02-4.52-1.33-10.15-2.79-20.28-4.21-30.42-.14-1.01-.28-2.02.16-3.14,4.6,11.88,5.38,24.56,8.82,36.97.65-8.07,1.44-16.13,1.89-24.2.21-3.81,1.19-7.35,2.11-11.01.77-3.05,2.71-1.45,4.09-1.92,2.84-.97,1.74,1.38,1.89,2.39,1.81,12.84,2.6,25.77,2.7,38.72.15,20.28-.16,40.56.17,60.84.1,6.19-2.22,8.36-8.22,7.65-1.69-.2-3.43-.03-5.14-.03-632.41,0-1264.83,0-1897.24,0-13.97,0-13,1.29-12.9-12.43.19-27.75-1.57-55.6,3.68-83.14.69-3.61-.74-6.47-2.8-9.3-1.66-2.27-4.23-4.04-4.88-7.22,2.96-.26,3.77,2.12,5.4,3.23,1.3.88,2.32,3.26,4.18,1.81,2.08-1.62,1.19-3.73-.36-5.49-3.61-4.09-7.21-8.19-10.42-12.77,5.81,1.96,9.65,6.65,14.54,10.12,1.87-1.46,1.59-3.76,1.88-5.64.46-3.01.51-5.36,4.05-7.33,2.72-1.51,4.45-5.67.92-9.19-1.31-1.3-2.27-2.94-3.53-4.6,2.62-1.03,3.6.81,4.55,1.87,5.77,6.42,12.88,11.85,15.8,20.41.6,1.75,1.63,3.47,2.87,4.86,1.78,1.99,2.92,3.54,6,.09,4.54-5.1,7.67-11.63,15.16-15.85-3.76,7.47.64,13.09,1.45,19.37,5.63-3.59,7.35-10.79,3.75-16.17-3.35-5.01-7.09-9.77-10.16-15.11,4.09,4.93,11.87,5.22,14.13,12.96,1.76,6.02,6.22,11.28,10.1,17.95.72-4.31-1.55-7.53.36-10.84,1.63,3.41,1.78,6.91,2.41,11.01.53-1.45.81-3.05,1.17-3.07,1.85-.1.24,2.18,1.57,2.59,3.85-5.58,3.44-11.7,2.28-18.04,5.83,8.78,4.18,19.21,6.81,29.11,4.4-4.6,1.95-9.01,1.18-13.34-.8-4.48-1.47-8.98-2.16-13.27,5.05-2.48,6.81,10.02,12.46,1.7.44.53.97.94,1.2,1.47,3.35,7.82,4.36,8.35,10.36,1.57,5.72-6.46,13.93-7.82,21.37-11.81-10.73,8.03-21.19,15.95-11.47,31.78,1.71-3.86,3.09-7.01,4.51-10.15,1.35-2.98,3.57-3.97,5.61-1.04,3.86,5.54,5.03.72,6.53-1.5,4.43-6.56,11.12-10.6,17.41-15.03,2.76-1.95,3.73.94,4.24,2.88,1.33,5.05,2.53,10.14,3.53,15.26.34,1.72.33,3.49,2.44,3.88,2.16.39,2.77-1.54,3.75-2.85,3.43-4.59,2.48-9.31-.72-14.62,3.3,1.26,3.24,3.41,4.19,4.89.94,1.47.85,4.21,3.5,3.75,2.63-.46,3.72-2.54,3.79-5.13.05-1.99.23-3.99.71-5.97,1.58,7.98,4.3,15.73,3.6,23.98-.1,1.17-.24,2.95,1.32,3.14,2.28.28,1.78-1.83,2.04-3.13,1.83-9.18,3.62-18.37,5.64-28.67,1.89,3.99.04,6.8,0,9.62-.02,1.46-.24,3.28,1.47,3.8,2.06.62,2.2-1.48,2.82-2.67.94-1.81,1.72-3.7,3.16-5.49-1.11,7.64-5.03,15.32,1.91,23.58-.44-9.05,12.27-13.75,4.73-24.16,4.02,1.95,4.14,5.82,6.87,8.48,4.33-9.08-.14-17.7.06-26.35,5.33,14.36,7.84,29.35,11.46,44.18,3.1-11.39,1.07-23.2,3.02-36.54,6.53,9.16,9.35,18.28,14.34,26.66v-21.36c3.05,6.73-1.34,14.76,5.29,21.22,2.53-5.19-1.43-10.06.43-15.44,2.07,4.91,1.46,10.05,5.18,15.83,1.17-8.38,6.84-12.26,11.23-18.24v8.73c5.92-2.54,2.97-6.71,2.68-10.13.63,0,1.01.04,1.37,0,11.01-1.5,10.52,7.92,13.71,13.8.68,1.26.9,2.77,1.37,4.31,2.51-1.13.27-4.06,2.88-5.19.84,2.06-1.19,4.45.68,7.36,4.56-9.48,8.62-18.67,14.35-27-2.29,10.36-1.07,20.6.4,31,3.59-13.37,8.29-26.25,15.26-38.54,4.46,4.37,5.69,10.9,8.08,16.64,2.46,5.9,3.28,12.44,5.19,20.22,3.54-6.78.66-12.68,2.3-18.03,6.91,9.4,2.92,20.29,4.89,30.57,7.19-7.51.55-16.92,4.51-25.22.77,7.56,1.54,15.13,2.31,22.69l.51.03v-23.08c2.34-.11,1.05,2.18,2.45,2.23,2.44-3.42.67-8.06,3.63-11.53-.6,6.72-1.24,13.44-1.78,20.17-.15,1.86-.41,3.86.86,5.45,1.17,1.46,2.53,3.26,4.59,3.04,2.15-.23,2.68-2.17,3.24-4.12,2.02-6.99.83-14.03.07-21.78,3.15,1.14,5.21,4.69,7.93,1.34,1.59,2.7-3.08,6.52,1.01,7.27,4.47.82,5.74-3.2,5.98-7.34.19,6.93-1.07,14.07,4.86,19.02,7.66-6.65,7.24-15.16,5.26-24.11,3.17,6.93,4.65,14.22,6.81,21.46.62-5.71,1.25-11.43,1.87-17.14l.78-.11c.74,4.44,1.48,8.87,2.3,13.77,1.13-4.02,2.42-7.71,1.77-11.36-.82-4.64,4.51-3.81,5.4-6.69,1.2,2.08,3.63,2.89,5.15,4.44,8.26,8.43,9.21,8.6,17.74,1.16,1.4-1.22,2.51-2.9,5.44-3.34-5.78,7.59,2.5,12.61,2.12,20.54,2.36-3.38.72-6.21,3.09-8.57v5.86c7.28-3.97,3.68-10.04,4.71-15.22,1.06,3.46,2.11,6.92,3.3,10.8.62-1.37,1.01-2.24,1.56-3.45.78,3.28,1.47,6.21,2.16,9.13.32-.03.65-.07.97-.1v-21.76c2.6,2.69.02,6.05,3.46,8.6,2.33-7.6,4.55-14.81,6.76-22.03,1.41,9.59-8.21,19.74,3.02,29.04,2.03-6.6,4-13,6.08-19.72,3.47,3.74,6.11,9.1,9.55,9.65,4.4.7,7.25,3.17,10.88,4.83,1.18-2.23-.99-4.76,1.58-7.03,2.66,2.28,2.78,5.68,3.71,8.6,1.25,3.89,1.99,8.21,7.34,3.11.7,2.28-.79,3.28-1.16,4.63-.63,2.27.67,3.99,2.53,4.39,2.42.51,2.22-1.93,2.61-3.43,1.47-5.59-.77-11.06-1.52-18.1,3.89,3.37,6.52,5.65,9.54,8.26,2.26-3.66-.04-7.12.2-10.8,2.55,2,2.61,4.69,3.65,6.86.9,1.87,1.28,4.04,4.2,2.5,2.66-1.4,3.04-3.29,1.33-5.65-1.06-1.47-2.13-2.93-3.21-4.41,1.92-1.11,2.74,1.23,4.6.75-2.53-3.3-4.81-6.28-7.85-10.25,6.91,1.98,9.41,7.59,14.1,10.55,4.38,2.76,3.66,10.23,8.68,14.31,3.14-4.74,7.71-8.54,8.84-14.66-.45,9.71-5.44,19.29.16,29.6,5.83-7.43,2.71-16.83,7.1-24.25-.2,2.95-.4,5.91-.64,9.48,4.02-8.93,17.03-25.07,24.42-28.92-1.83,2.48-3.68,4.94-5.48,7.43-1.6,2.22-3.2,4.45-4.7,6.74-1.47,2.25-4.13,5.13-1.72,7.25,2.96,2.61,4.65-1.6,6.53-3.04,7.4-5.62,14.62-11.46,25.27-15.31-4.99,5.97-10.52,8.7-15.03,12.54-3.59,3.05-6.44,5.6-3.86,10.87,1.39,2.84,1.29,6.36,2.08,10.83,1.12-3.35,1.75-5.52,2.58-7.62.36-.92,1.36-2.49,1.67-2.41,10.73,2.98,7.22-6.51,10.34-10.88,5.3,3.38,6.91,9.81,10.91,14.29,2.05-.93,1.83-2.38,1.45-3.84-1.92-7.56-1.47-8.46,6.71-10.93,2.65-.8,3.08-3.28,4.71-4.82,1.92-1.81,3.37-4.14,6.78-5.63-2.39,6.88-8.41,11.23-9.42,18.71Zm510.62-2.53c.45,8.47.75,15.59,1.24,22.69.23,3.3.76,6.58,1.27,9.85.29,1.88,1.47,2.96,3.52,2.83,1.94-.12,3.35-1.13,3.45-3.02.57-11.25.05-22.24-9.48-32.34Zm-659.42-6.68c-1.92,5.4-2.95,10.55-2.81,15.89.59-.53.56-1.23.89-1.71,1.1-1.62,1.09-.02,1.24.51,1.53,5.3,3.02,10.62,4.53,15.93,3.32-10.63,7.7-21.27-3.84-30.61Zm1213.89,6.95c-3.81,9.78-7.3,18.62-8.99,28.01-.4,2.2-.14,4.57.21,6.81.24,1.5.02,3.89,2.08,4.07,1.79.16,2.91-1.85,3.16-3.41,1.8-11.01,3.43-22.05,5.07-33.09.05-.31-.41-.68-1.53-2.4ZM162.83,46.47c-.66-3.59-1.33-7.05-1.92-10.52-.44-2.56.04-6.39-3.79-5.92-3.37.41-5.03,3.62-4.58,7.15.55,4.32,1.42,8.59,1.97,12.91.52,4.08,3.01,3.38,5.48,2.19,2.42-1.17,2.32-3.75,2.85-5.81Zm1588.7-14.3c2.59,9.81,3.57,18.31,4.6,26.8.15,1.21.37,2.54,1.02,3.53.89,1.35,2.15,3.09,4.01,2.43,1.73-.61,1.03-2.58.79-3.89-.97-5.32-1.5-10.63-1.64-16.07-.12-4.71-1.82-9.39-8.79-12.81Zm-296.13,7.87c1.83,2.23-.17,5.42,3.26,7.28-.32-8.87-.95-17.17-3.1-25.8-3.9,2.35-6.82,5.02-7.51,8.33-1.21,5.79,5.46,9,6.43,14.44.29-1.32.58-2.64.92-4.25Zm386.81,12.22c1.7-3.47.87-6.8-.24-10.12-.68-2.04-1.08-4.19.38-5.96,2.27-2.75,3.37-7.41,1.65-9.48-.87-1.05-2.31-2.13-3.61-2.27-2.05-.23-1.67,1.94-2.24,3.17-4.14,9-.33,16.84,4.06,24.67ZM29,53.37c.62-5.72,3.05-10.29-.51-14.78-.46-.59-.9-1.46.45-1.91,3.9-1.31.35-2.86-.25-3.48-1.93-2.02-3.12-5.16-6.61-5.19-.3,0-1.04,1.47-.87,2.04,2.26,7.42.75,15.97,7.79,23.32Z"/>
</svg>