<?xml version="1.0" encoding="UTF-8"?>
<svg id="_レイヤー_1" data-name="レイヤー 1" xmlns="http://www.w3.org/2000/svg" xmlns:xlink="http://www.w3.org/1999/xlink" viewBox="0 0 79.78 82.58">
  <defs>
    <style>
      .cls-1 {
        clip-path: url(#clippath);
      }

      .cls-2 {
        fill: none;
        stroke-width: 0px;
      }
    </style>
    <clipPath id="clippath">
      <rect class="cls-2" x="3.87" width="75.91" height="69.33"/>
    </clipPath>
  </defs>
  <g class="cls-1">
    <path class="cls-2" d="m67.99,49.13c-3.6.25-6.7,3.29-6.85,6.7-.81-1.39-1.59-2.79-2.55-4.09-1.5-2.04-3.31-3.82-4.96-5.73-1.92-2.21-3.49-4.52-3.83-7.54-.26-2.26.6-4.51,2.55-5.62,2.75-1.57,5.58-1.24,8.39-.12,1.75.69,3.29,1.74,4.79,2.95.19-1.07-.15-2.35-1.1-3.73-3.22-4.68-7.89-6.74-13.38-6.98-5.47-.24-9.7,2.23-12.85,6.57-1.96,2.7-3.08,5.71-2.48,9.14.46,2.65,1.79,4.86,3.59,6.79,2.36,2.52,5.14,4.59,7.41,7.21,2.09,2.41,3.7,5.02,3.59,8.36-.18,5.1-2.45,9.18-6.34,12.35-2.75,2.23-5.97,3.58-9.42,4.33-4.76,1.03-9.4.95-13.88-1.23l-.04-.02c-.24-.13-3.87-2.73-4.03-2.91-4.04-4.58-5.72-10.06-5.79-16.03-.04-3.86.53-7.69,1.71-11.4,3.62-11.47,10.65-19.81,22.1-24.03,4.6-1.69,9.41-2.38,14.31-1.81,4.26.5,8.25,1.85,11.96,4.1-.36-.78-1.09-1.2-1.7-1.71-5.95-5.03-12.51-8.88-20.28-10.42-5.5-1.09-10.87-.72-16.15,1.1-4.08,1.41-7.77,3.54-11.15,6.19-3.31,2.59-6.14,5.62-8.18,9.34C-.23,37.54-.79,44.58.95,51.85c1.52,6.34,4.45,12.04,8.48,17.14,1.99,2.51,8.32,8.2,11.34,10.01,1.98,1.19,4.11,2.05,6.36,2.5,4.33.87,8.7,1.34,13.14.94,7.38-.66,13.8-3.21,18.59-9.12,2.48-3.06,4.06-6.44,4.01-10.49-.03-2.42-.77-4.64-1.64-6.84,2.91,2.28,6.8,2.28,9.94.06,2.01-1.42,3.27-3.43,4.53-5.45v-.21c-2.46-1.07-5.04-1.46-7.71-1.27Z"/>
  </g>
</svg>