<?xml version="1.0" encoding="UTF-8"?>
<svg id="_レイヤー_1" data-name="レイヤー 1" xmlns="http://www.w3.org/2000/svg" viewBox="0 0 1 1">
  <defs>
    <style>
      .cls-1 {
        fill: none;
        opacity: .1;
        stroke-width: 0px;
      }
    </style>
  </defs>
  <path class="cls-1" d="m.76.86s.06-.1.06-.16c0-.04-.01-.07-.02-.1.04.04.09.04.14,0,.03-.02.04-.05.06-.08h0s-.07-.03-.11-.02c-.05,0-.09.05-.09.1-.01-.02-.02-.04-.04-.06-.02-.03-.05-.06-.07-.09-.03-.03-.05-.07-.05-.11,0-.03,0-.07.03-.09.04-.02.08-.02.11,0,.02.01.04.03.07.04,0,0,0,0,0,0C.73.03.58.02.51,0h-.03C.28-.01-.03.16,0,.56c.02.23.19.39.36.43.04,0,.13.02.22-.02.08-.03.14-.08.17-.11Z"/>
</svg>