<?xml version="1.0" encoding="UTF-8"?>
<svg id="_レイヤー_1" data-name="レイヤー 1" xmlns="http://www.w3.org/2000/svg" viewBox="0 0 169.57 214.87">
  <defs>
    <style>
      .cls-1 {
        fill: #0a0808;
      }

      .cls-1, .cls-2, .cls-3, .cls-4, .cls-5, .cls-6, .cls-7, .cls-8, .cls-9, .cls-10, .cls-11, .cls-12, .cls-13, .cls-14, .cls-15, .cls-16, .cls-17, .cls-18, .cls-19, .cls-20, .cls-21, .cls-22, .cls-23, .cls-24, .cls-25, .cls-26, .cls-27, .cls-28, .cls-29, .cls-30, .cls-31, .cls-32, .cls-33, .cls-34, .cls-35, .cls-36 {
        stroke-width: 0px;
      }

      .cls-2 {
        fill: #405d1f;
      }

      .cls-3 {
        fill: #070504;
      }

      .cls-4 {
        fill: #d08d09;
      }

      .cls-5 {
        fill: #d24824;
      }

      .cls-6 {
        fill: #ca3212;
      }

      .cls-7 {
        fill: #ca3312;
      }

      .cls-8 {
        fill: #d84421;
      }

      .cls-9 {
        fill: #d94421;
      }

      .cls-10 {
        fill: #865304;
      }

      .cls-11 {
        fill: #7c9f1b;
      }

      .cls-12 {
        fill: #805320;
      }

      .cls-13 {
        fill: #7c9e1a;
      }

      .cls-14 {
        fill: #855304;
      }

      .cls-15 {
        fill: #fdf9f7;
      }

      .cls-16 {
        fill: #fdf8f6;
      }

      .cls-17 {
        fill: #fdf8f7;
      }

      .cls-18 {
        fill: #fdf7f5;
      }

      .cls-19 {
        fill: #fdf7f6;
      }

      .cls-20 {
        fill: #7d9d1a;
      }

      .cls-21 {
        fill: #7d9f1b;
      }

      .cls-22 {
        fill: #7d9f1c;
      }

      .cls-23 {
        fill: #7e9c1a;
      }

      .cls-24 {
        fill: #f2cbb6;
      }

      .cls-25 {
        fill: #fefdfd;
      }

      .cls-26 {
        fill: #fefdfc;
      }

      .cls-27 {
        fill: #fefcfc;
      }

      .cls-28 {
        fill: #f1cab4;
      }

      .cls-29 {
        fill: #030100;
      }

      .cls-30 {
        fill: #030201;
      }

      .cls-31 {
        fill: #040302;
      }

      .cls-32 {
        fill: #040101;
      }

      .cls-33 {
        fill: #010000;
      }

      .cls-34 {
        fill: #060504;
      }

      .cls-35 {
        fill: #050101;
      }

      .cls-36 {
        fill: #050303;
      }
    </style>
  </defs>
  <path class="cls-4" d="m22.55,150.51c-.56-1.19-.17-2.11.64-3.09,3.47-4.2,8.28-6.19,13.13-8.15.15-.06.29-.14.43-.21.47-.15.64.24.83.51,4.3,5.86,9.71,10.43,16.05,13.95.36.2.98.26.82.95-1.12.28-2.22.6-3.32.94-.52.16-1.07.36-1,1,.07.67.73.63,1.22.71.24.04.49.02.71-.06,1.67-.63,3.56-.55,5.11-1.57,2.37.44,4.6,1.3,6.85,2.12,3.09,1.12,6.28,1.71,9.57,2.04,2.37.24,4.75.56,7.1.94,1.57.25,3.09.27,4.61-.22.95-.31,1.93-.51,2.94-.55,2.22-.1,4.25-1.04,6.39-1.49,2.89-.6,5.65-1.65,8.48-2.43,2.51-.7,4.87-1.79,7.33-2.61,4.58-1.53,9.14-3.13,13.63-4.92,5.21-2.06,9.86-5.08,14.51-8.09,1.61-1.04,2.84-2.58,4.14-3.98,1.35-1.47,2.68-2.96,3.99-4.46,1.15-1.31,1.86-2.87,2.52-4.47.31-.75.33-1.47-.08-2.18.28-1.12.73-2.18,1.3-3.18,2.96,2.91,6.08,5.68,8.72,8.88,1.57,1.91,3.28,3.67,4.93,5.5,1.16,1.29,2.14,2.76,3.18,4.17.68.92,1.12,1.99,1.13,3.21.01,1.55.79,2.99.76,4.56-.04.34-.23.6-.5.79-3,2.1-5.62,4.66-8.87,6.48-4.1,2.3-8.04,4.92-12.18,7.15-3.61,1.95-7.32,3.73-11.11,5.35-3.66,1.57-7.47,2.77-11.04,4.6-5.02,2.58-10.42,4.24-15.73,6.13-2.71.96-5.35,2.09-8.11,2.92-5.05,1.52-9.9,3.62-14.92,5.24-6.23,2.01-12.65,2.5-19.16,1.85-1.55-.16-3.12-.12-4.67-.03-2.98.18-5.55-.9-8.01-2.4-2.81-1.71-5.42-3.71-7.82-5.92-2.53-2.32-5.32-4.31-7.82-6.65-2.67-2.5-5.03-5.25-6.89-8.4-1.51-2.57-3.65-4.63-5.41-7.01-1.7-2.3-3.12-4.73-4.31-7.31-.09-.18-.11-.38-.09-.59Z"/>
  <path class="cls-24" d="m147.67,123.65c.63.35.76.86.54,1.52-.63,1.85-1.35,3.69-2.64,5.18-2.4,2.77-4.86,5.5-7.52,8.03-.37.35-.78.69-1.22.96-2.78,1.72-5.49,3.56-8.37,5.09-3.69,1.96-7.58,3.54-11.54,4.89-5.8,1.97-11.54,4.13-17.37,6.02-2.73.89-5.58,1.27-8.25,2.25-2.76,1.02-5.75.8-8.49,1.81-.8.3-1.69.23-2.5.11-5.06-.75-10.22-.95-15.19-2.24-3.24-.84-6.29-2.27-9.54-3.1-1.14.04-2.02-.44-2.71-1.32-1.39-.85-2.73-1.79-4.17-2.54-3.13-1.63-5.45-4.23-8.06-6.48-2.13-1.83-3.71-4.12-5.46-6.27-.49-1.55-1.1-3.06-1.63-4.58-1.13-3.21-.7-6.47-.74-9.71-.01-1.17.62-2.28.76-3.48.06-.52.68-1.04,1.33-.3.15.17.3.82.52.03.51.01.51.45.6.77,1.63,5.55,4.64,10.4,7.75,15.2.87,1.34,1.86,2.6,2.69,3.96,1.66,2.73,4.24,4.33,6.99,5.63,2.45,1.16,4.8,2.56,7.5,3.29-.62-2.75.56-5.21,1.27-7.69.65-2.27,1.01-4.6,1.64-6.86.18-.65-.03-1.26-.18-1.88-.18-.78-.43-1.55-.08-2.35.19-.28.48-.42.8-.48,1.29-.27,2.5-.85,3.79-1.1,1.61-.32,2.96-1.13,4.26-2.08.88-.64,1.83-1.14,2.94-1.23,2.48.85,4.6,2.2,6.11,4.4.25.37.54.71.36,1.2-.26.41-.74.76-.35,1.34.33.51.8.36,1.26.25.15-.04.31,0,.46.04,1.17,1.06,1.95,2.42,2.9,3.64,1.23,1.58,1.47,1.63,3.28.7,1.99-1.03,3.2-2.75,4.18-4.65,1.28-2.49,2.79-4.84,4.36-7.16.45-.66.96-1.28,1.13-2.09.06-.28.23-.53.45-.7,1.83-1.41,3.59-2.95,5.93-3.48,1.67.46,1.84.34,1.86-1.28.94-1.55,2.18-2.83,3.46-4.09.2-.2.44-.35.75-.31,1.1.75,2.18.6,3.22-.11.4-.27.79-.62.61-1.17-.17-.5-.64-.35-1.03-.33-.24.01-.48-.01-.67-.18.26-1.27,1.26-1.73,2.33-2.1.63.45,1.28.6,2.08.37,1.24-.36,1.41-.67.74-1.78-.08-.13-.16-.27-.19-.43.04-.5.45-.72.78-1.01.61-.52,1.23-1.02,1.85-1.52,2.05-1.64,2.71-4.07,3.68-6.34.2-.48.3-.99.54-1.46.25-.43.72-.42,1.12-.56.4-.15.89-.29.95-.77.06-.48-.34-.75-.75-.94-.21-.1-.44-.18-.55-.42-.08-1,.06-1.98.23-2.96.1-.55.19-1.09.16-1.65-.08-1.31.11-1.55,1.38-1.94,1.07-.33,2.02.14,3.01.4,2.31.61,4.5,1.5,6.61,2.63.69.37,1.11,1,1.7,1.46,3.09,2.12,4.59,5.15,4.86,8.79.12,1.66-.71,3.03-1.87,4.24-2.36,2.46-5.56,3.7-8.15,5.83-2.7,2.22-5.99,3.48-8.97,5.25-1.86,1.11-3.55,2.45-5.22,3.81-1.96,1.59-4.05,2.97-6.24,4.23-2.04,1.18-3.9,2.65-6.16,3.42-1.03.35-1.95.26-2.8-.43-.05-1.52-.22-1.62-1.75-1.28-.67.15-1.2.55-1.78.86-.4.06-.61.35-.83.64-1.33,1.76-2.59,3.56-3.65,5.49-1.34,2.46-3.05,4.55-5.15,6.41-1,.89-1.98,1.74-3.22,2.21-2.56.97-4.34,2.95-6.23,4.77-1.17,1.13-1.72,2.67-1.91,4.31-.06.54.1.87.67.89.72.02,1.47.16,2.14-.12,1.51-.64,3.12-.61,4.7-.82.2-.03.41,0,.59-.07,2.95-1.26,6.16-1.6,9.2-2.53,4.01-1.22,7.94-2.77,11.97-3.89,3.68-1.02,7.15-2.53,10.75-3.72.15-.05.3-.15.45-.16,3.06-.11,5.54-1.99,8.37-2.74,3.96-1.05,7.13-3.35,10.31-5.71,1.87-1.39,3.46-3.08,4.99-4.83.74-.84,1.53-1.63,2.33-2.41.27-.27.53-.63,1.02-.47Z"/>
  <path class="cls-14" d="m22.55,150.51c1.3,2.06,2.16,4.37,3.65,6.31,1.39,1.79,2.69,3.65,4.22,5.35,1.21,1.36,2.27,2.9,3.16,4.48,1.34,2.38,3.26,4.22,5.1,6.15,1.55,1.63,3.43,2.85,5.06,4.34,2.21,2.01,4.49,3.93,6.81,5.78,2.93,2.34,5.99,4.52,9.71,5.48.19.05.4.05.6.05,5.15.07,10.3.19,15.45.2,2.43,0,4.78-.59,7.13-1.17,3.8-.93,7.43-2.34,11.07-3.74,3.63-1.4,7.42-2.39,11.1-3.69,4.58-1.62,9.1-3.41,13.68-5.03,2.87-1.02,5.56-2.37,8.26-3.74,1.76-.9,3.71-1.4,5.56-2.14,2.14-.86,4.28-1.74,6.38-2.71,4.65-2.13,9.16-4.52,13.55-7.13,2.06-1.22,4.01-2.63,6.13-3.72,2.44-1.24,4.55-2.92,6.65-4.61,1.11-.9,2.22-1.8,3.37-2.65.5.35.4.84.24,1.29-1.78,5.06-3.54,10.1-8.54,13.11-1.2.72-2.13,1.91-3.15,2.93-2.36,2.36-4.88,4.46-8.06,5.68-.91.35-1.69,1.03-2.49,1.62-2.26,1.63-4.9,2.38-7.43,3.43-3.57,1.49-7.19,2.81-10.77,4.27-3.24,1.32-6.46,2.76-9.81,3.71-3.14.89-6.22,1.97-9.32,2.98-2.64.86-5.32,1.5-8.02,2.14-2.89.69-5.68,1.75-8.55,2.54-1.77.49-3.68.56-5.39,1.2-2.23.83-4.66.37-6.84,1.36-.51.23-1.21.03-1.76.2-3.93,1.19-7.97.72-11.96.87-6.97.27-13.02-2.05-18.31-6.63-3.44-2.98-6.82-6-9.93-9.33-.73-.78-.98-1.56-.96-2.57.03-1.72-.69-2.22-2.2-1.43-2.33,1.22-4.74,2.29-6.85,3.89-.7.52-1.06,1.09-1.02,2,.06,1.52-.04,3.04.03,4.56.16,3.52-1.87,5.04-4.87,5.61-3.14.6-5.98-.34-8.75-1.48-2.69-1.11-2.89-2.81-.85-4.93.49-.51.99-.83,1.75-.84,3.45-.08,4.76-2.73,3.91-5.48-.69-2.22-1.91-4.37-4.24-5.54-.53-.27-1.04-.31-1.59-.38-1.56-.21-3.08.29-4.69.14-1.3-.12-4.05,2.36-3.99,4.33.02.86.46,1.43.94,1.99.59.67.62,1.31.24,2.07-.43.86-.89,1.69-1.55,2.4-.73.79-1.39.73-2.16.06-1.5-1.31-1.81-3.12-2.12-4.92-.61-3.6.84-6.61,3.05-9.22,1.8-2.12,4.1-3.55,7.11-3.17,3.64.45,6.68,2.04,9.17,4.75,1.32,1.44,1.37,1.35,3.16.58,2.57-1.12,4.97-2.53,7.35-3.98.55-.34,1.31-.77.88-1.57-.42-.78-1.18-.46-1.81-.18-.73.32-1.42.73-2.15,1.04-1.23.53-1.92.09-2.5-1.13-.92-1.94-.95-4.1-1.7-6.08-.27-.7-.06-1.43-.04-2.13.06-1.89-.86-3.64-.74-5.53.04-.71-.2-1.53.63-2Z"/>
  <path class="cls-9" d="m149.24,125.14c-1.97,1.58-3.48,3.61-5.27,5.37-3.21,3.16-6.75,5.94-10.93,7.58-2.58,1.01-5.1,2.39-7.76,2.95-3.71.77-7.06,2.44-10.65,3.42-4.92,1.35-9.71,3.06-14.52,4.72-2.43.84-5.05.71-7.38,1.82-1.86.89-3.87,1.13-5.92,1.24-1.46.08-2.76.92-4.31.83-1.11-.07-1.22-.48-1.13-1.37.24-2.37,1.54-4.09,3.21-5.67,1.99-1.89,4.4-3.09,6.68-4.54,2.68-1.71,4.85-4.11,6.36-6.99,1.23-2.34,2.79-4.46,4.37-6.56.15-.2.33-.84.75-.19.26,1.24.56,1.39,1.81,1.09.62-.15,1.07-.72,1.77-.63,2.15,1.16,3.89-.14,5.52-1.14,3.72-2.29,7.57-4.4,10.86-7.35,2.27-2.04,4.99-3.43,7.65-4.83,2.52-1.32,4.88-2.84,7.15-4.53,1.22-.9,2.57-1.59,3.83-2.4,2.49-1.61,5.03-4.39,3.74-8.14-.91-2.63-2.36-4.73-4.23-6.64,2.49,1.57,4.93,3.19,6.3,5.95.49.98.54,2.05.74,3.1.52,2.72.56,5.51,1.46,8.17.45,1.33.02,2.79.24,4.17.39,2.46,1.2,4.87.91,7.42-.08,1.18-.62,2.18-1.24,3.14Z"/>
  <path class="cls-2" d="m77.01,126.27c-3.72,2.06-7.44,4.11-11.71,4.86-.16.12-.33.26-.53.26-2.61-.02-5.22.67-7.84.02-1.13-.28-1.6-.76-1.54-1.64.06-.88.72-1.51,1.76-1.63,2.37-.28,4.76-.35,7.15-.26,1.09.08,2.14-.13,3.17-.46.51-.17.99-.43.93-1.08-.22-2.4,1-4.47,1.56-6.69.09-.34.25-.67.37-1.01.39-1.47.59-2.97.86-4.46.24-1.31.64-1.79,1.52-1.81.95-.02,1.79.78,1.97,1.91.16.97-.1,1.9-.34,2.83-.04.17-.17.35-.05.55,1.09-1.87,1.64-3.96,2.55-5.9.57-.65,1.25-.98,2.12-.77,1.24.62,1.43,1.14.98,2.74-.79,1.77-1.86,3.38-2.67,5.14-.7,1.25-1.25,2.58-1.99,3.82.38.11.49-.26.74-.36,1.11-.88,2.27-1.68,3.45-2.46,2.17-1.21,4.21-2.59,5.97-4.38.57-.58.74-1.14.58-1.93-.58-2.96-1.54-5.79-2.64-8.58-.32-.82-.63-1.64-.88-2.49-.2-.69-.18-1.34.35-1.9.12-.06.25-.12.37-.17.94-.53,1.59-.04,2.17.64,1.57,1.81,2.19,4.04,2.74,6.3.28,1.15.38,2.35.87,3.47.29-.22.19-.48.15-.68-.62-3.26-1.29-6.5-2.76-9.51-.26-.53-.6-1.05-.48-1.69-.12-.46-.29-.91-.33-1.37-.04-.5-.07-1.17.42-1.39.5-.23,1.16-.25,1.68.18.4.33.75.71.96,1.19.48.24.6.72.77,1.16.85,2.18,1.72,4.37,2.28,6.65.05.22.03.49.34.65.15-2.67-.19-5.25-.69-7.83-.14-.72-.86-1.03-1.1-1.67-.86-.78-.96-1.77-.24-2.52.62-.65,1.79-.57,2.56.19.31.31.56.67.84,1,.67.34.71,1.02.86,1.62.65,2.68,1.1,5.37.85,8.15-.03.37-.15.91.28,1.08.51.2.77-.31,1-.66.7-1.09,1.57-2.01,2.61-2.76,1.86-1.36,3.23-3.17,4.65-4.94.61-.76.5-1.56.08-2.34-.26-.49-.61-.93-.9-1.41-.27-.45-.52-.91-.16-1.44-.55-3.16-1.63-6.15-2.85-9.09-.51-1.22-1.28-2.31-2.4-3.07-.77-.52-.97-1.26-.55-1.96.45-.76,1.18-.5,1.9-.17,1.64.75,2.6,2.1,3.22,3.67,1.11,2.85,2.28,5.69,2.7,8.76.05.4.04.99.66.96.55-.03.43-.57.51-.94.48-2.18-.04-4.28-.71-6.31-.62-1.86-1.07-3.76-1.61-5.63-.18-.61-.07-1.23.41-1.62.56-.45,1.11-.2,1.6.26.45.43.83.56,1.39,0,.66-.66,1.85-.18,2.09.82.65,2.7.89,5.43.49,8.19-.11.74-.37,1.47.07,2.36,1.45-1.62,2.72-3.27,3.58-5.17,2.31-5.06,5.04-9.91,6.94-15.16.26-.71.51-1.42.7-2.15.24-.89.84-1.21,1.62-.86,1.23.54,2.45,1.16,3.6,1.85.73.44.81,1.97.23,2.72-1.63,2.11-3.32,4.18-5.46,5.82-.77.59-1.02,1.5-1.47,2.3-.1.17-.14.38.07.53.35.25.72.28,1.12.08,1.29-.67,2.46-1.5,3.29-2.7.83-1.2,1.89-2.13,3.02-3.02.38-.3.76-.39,1.18-.48.67-.15,1.25.1,1.54.65.33.63-.13,1.16-.59,1.54-1.82,1.49-3.72,2.85-5.81,3.95-2.44,1.3-4.8,2.86-6.52,4.98-1.58,1.95-2.94,4.14-4.06,6.44.2.72.68.87,1.38.76,2.8-.43,5.64-.65,8.41-1.28.31-.07.63-.15.95-.1.6.08,1.05.39,1.28.95.25.6,0,1.1-.41,1.52-.66.66-1.54.85-2.42.9-3.38.19-6.61,1.07-10.1,2.05,3.12-.02,5.96-.41,8.8-.66.76-.07,1.51-.15,2.27-.03.71.11,1.32.37,1.38,1.23.06.88-.16,1.58-1.04,1.95-.54.23-1.09.21-1.65.09-.67-.14-1.33-.19-2.02-.09-1.65.25-1.65.24-2.03,1.89-.21.93-.86,1.41-2.04,1.5-1.73.14-3.43-.2-5.14-.32-.2-.01-.4-.06-.59-.09-2.57-.43-4.61.31-6.08,2.57-.91,1.38-2.35,2.27-3.56,3.36-.6.54-1.18,1.08-1.55,1.81-.27.53-.18.89.49.82,3.78-.4,7.58-.26,11.36-.58.72-.06,1.44-.1,2.15.02.64.11,1.11.45,1.28,1.11.17.67-.16,1.16-.66,1.56-.49.39-1.06.61-1.68.51-2.52-.44-5.02.03-7.78.12,1.26.47,2.32.7,3.38.99.82.22,1.53.56,1.48,1.59-.04.77-.93,1.52-1.85,1.61-.36.04-.72-.03-1.06-.13-2.67-.8-5.39-1.1-8.17-1-1.32.04-2.64.09-3.95-.11-.41-.06-.8.02-1.15.24-1.77,1.1-3.44,2.34-4.93,3.8-.14.14-.28.29-.25.53.43.28.93.19,1.39.13,3.07-.4,6.15-.12,9.22-.2.2,0,.4,0,.6.03,1.2.14,1.8.65,1.78,1.54-.02.97-.91,1.89-1.94,1.93-.88.03-1.75-.17-2.62-.31-.93-.15-1.79-.03-2.82.36,1.24.09,2.3.24,3.35.39.64.1,1.32.32,1.47,1.05.15.73-.42,1.15-.92,1.56-.78.62-1.7.61-2.81.61.47.29.84.26,1.19.28.4.02.8-.01,1.2.06.91.16,1.68.96,1.57,1.68-.14.91-.84,1.22-1.65,1.29-1.04.09-2.08-.13-3.1-.3-4.38-.72-8.72-1.67-12.93-3.1-1.05-.36-2.09-.62-3.06.18Z"/>
  <path class="cls-9" d="m64.66,128.18c-2.42.1-4.84.19-7.26.28-.44.02-.88-.03-1.23.32-.39.4-.54.85-.46,1.41.08.57.52.62.94.75,2.08.64,4.18.16,6.27.14.79,0,1.59.02,2.38.03,0,.36-.08.75.03,1.07,1.05,3.04-.19,5.85-.87,8.71-.46,1.93-1.1,3.83-1.56,5.76-.3,1.23-.38,2.5.37,3.9-1.29-.49-2.4-.8-3.4-1.31-3.02-1.53-6.18-2.78-9-4.7-1.79-1.22-2.83-3.03-3.98-4.72-3.1-4.59-6.27-9.15-8.33-14.35-.58-1.47-1.06-2.98-1.58-4.47-.13-.54-.23-1.08-.39-1.62-.66-2.33,1.16-3.38,2.39-4.78,2.31-2.61,5.54-2.67,8.6-3.16.94-.15,1.89-.24,2.81-.5.55.11.74.58.96.99.75,1.44,1.83,2.46,3.42,2.93,3.66,1.1,6.08,3.63,7.85,6.89.19.35.45.67.39,1.1q-.43,1.23.99,1.89c.42,1.1.9,2.19.64,3.41Z"/>
  <path class="cls-9" d="m77.01,126.27c.29-1.4,1.36-1.08,2.17-.81,2.57.86,5.2,1.53,7.83,2.18,2.71.66,5.46,1.16,8.23,1.49.16.02.32,0,.48,0,.78,0,1.6-.02,1.8-.99.14-.68-.78-1.33-1.77-1.35-.4,0-.8-.03-1.2,0-.66.05-1.16-.16-1.54-.82.49-.28.99-.18,1.48-.14.99.08,1.8-.28,2.46-.99.6-.65.49-1.2-.39-1.38-1.17-.23-2.36-.35-3.54-.49-.43-.05-.89.02-1.29-.42,1.75-1.02,3.58-.82,5.42-.49.31.06.63.15.94.16,1.03,0,1.53-.62,1.66-1.54.14-1-.63-1.25-1.36-1.28-1.72-.06-3.44-.04-5.15,0-2.03.04-4.06.14-6.1.2-.3,0-.71.17-.88-.16-.19-.36.22-.55.43-.76,1.68-1.66,3.56-3.08,5.54-4.35.37-.24.75-.31,1.14-.22,1.26.29,2.54.25,3.82.18,2.82-.15,5.58.13,8.27.98.82.26,1.57.26,2.25-.31.32-.26.6-.55.49-1.01-.11-.44-.29-.78-.82-.9-1.32-.31-2.62-.68-3.93-1.05-.26-.07-.77.05-.67-.45.07-.38.49-.34.81-.34,2.62-.05,5.24-.52,7.87-.07.58.1,1.1-.1,1.54-.52.34-.32.57-.66.43-1.16-.14-.48-.48-.76-.93-.83-.51-.07-1.04-.06-1.55-.04-3.58.16-7.17.33-10.75.51-.51.03-1.02.15-1.54.17-1.12.05-1.23-.15-.76-1.12.41-.85,1.02-1.51,1.73-2.11,1.56-1.3,3.14-2.55,4.32-4.27,1.53-2.22,3.82-2.07,6.14-1.78,1.74.22,3.48.45,5.24.41,1.25-.03,1.85-.58,1.74-1.85-.08-.94.28-1.27,1.15-1.42,1.18-.21,2.35-.4,3.53-.04.41.13.77.08,1.16-.03.89-.27.94-.96.91-1.72-.03-.83-.68-.86-1.19-.85-1.55.03-3.1.14-4.65.27-2.18.18-4.36.4-6.54.59-.18.02-.42.07-.51-.17-.08-.23.1-.38.25-.49.15-.12.34-.22.52-.26,3.24-.81,6.43-1.86,9.82-1.96.63-.02,1.26-.21,1.87-.39.74-.22,1.14-.77.95-1.54-.21-.83-.86-.91-1.61-.73-3.06.76-6.22.92-9.32,1.46-1.02.18-1.21-.15-.84-1.23,2.14-.4,4.29-.74,6.41-1.2,2-.43,3.99-.71,6.03-.45,1.49.19,3.03-.28,4.49.31-.91.53-1.13,1.17-1.01,2.32.14,1.42-.35,2.89-.57,4.34-.16.44-.58.49-.93.65-1.09.5-1.13.88-.2,1.67.12.1.25.2.35.32-.96,3.9-2.64,7.35-6.16,9.61-.29.19-.64.33-.79.69-.17.3-.48.4-.77.47-.84.21-1.42.73-1.88,1.43-.86.62-1.85,1.08-2.38,2.07-.74.57-1.64.96-2.15,1.81-1.58,1.25-2.69,2.94-4.09,4.36-.73.33-1.77.24-1.9,1.39-2.05.66-3.69,2.03-5.45,3.19-.43.28-.83.65-.78,1.26.02.3-.1.54-.28.77-2.18,2.92-3.97,6.07-5.73,9.26-1.05,1.91-2.59,3.32-4.6,4.21-.92.41-1.59.26-2.18-.54-1.08-1.48-2.18-2.95-3.27-4.42.3-.52,1.34-.68.9-1.55-.43-.84-1.15-.33-1.76-.19-.19.04-.38.07-.55-.08-.88-1.74-2.19-3.07-3.88-4.04-.82-.47-1.78-.69-2.44-1.42Z"/>
  <path class="cls-13" d="m63.69,87.24c-.9-1.41-1.66-2.75-2.57-3.99-.59-.81-1.1-1.66-1.6-2.52-.37-.65-.66-1.36,0-1.97.61-.57,1.38-.43,2.02-.07,1.53.85,3.02,1.74,4.19,3.12,1.36,1.61,2.15,3.34,1.74,5.47-.12.6.18.64.67.63,3.1-.06,6.19-.17,9.27-.49,1.42-.14,2.83-.46,4.24-.74.25-.05.55-.23.67-.45.33-.6.8-.75,1.4-.53.49.18.75.55.77,1.1.02.68-.37,1.07-.92,1.26-1.7.58-3.43,1.01-5.23,1.16-2.49.2-4.97.5-7.46.57-1.78.05-3.58-.14-5.36-.34-.74-.08-.94-.16-1.03.8-.15,1.8-1.21,3.36-2.6,4.41-1.54,1.16-3.31,2.06-5.16,2.73-.33.12-.69.2-1.04.25-.41.05-.83.02-1.09-.35-.3-.43.05-.78.29-1.06,1.28-1.48,2.64-2.88,3.87-4.4.66-.81,1.65-1.62.97-2.93-.13-.25-.21-.46-.54-.56-1.22-.37-2.42-.78-3.63-1.18-.25.3,0,.61,0,.91,0,.89-.05,1.86-1.01,2.25-1.79.73-3.41,1.87-5.43,2.09-2.73.3-5.39-.21-8.09-.37-1.51-.09-2.77-.64-3.95-1.53-.56-.42-.69-.96-.56-1.58.14-.62.66-.68,1.19-.79,2.47-.52,4.95-.43,7.46-.43,2.37,0,4.78-.08,7.11-.73.39-.11.74-.27,1.01-.66-1.51-.73-3.12-1.1-4.53-1.94-.21-.13-.56-.1-.82-.05-2.92.57-5.85.2-8.67-.42-2.36-.52-4.77-.77-7.09-1.51-2.95-.94-4.98-2.92-6.71-5.31-.69-.96-1.43-1.93-1.81-3.08-.35-1.05.03-1.53,1.12-1.45.74.06,1.35.45,1.99.78,2.77,1.42,5.68,2.48,8.7,3.22,4.57,1.12,9.05,2.57,13.11,4.95,1.39.82,2.44,2.23,4.18,2.6.2-.28-.18-.39-.33-.58-1.35-1.73-2.78-3.4-4.05-5.19-1.66-2.34-1.9-5.11-2.04-7.87-.05-1.01.68-.91,1.33-.66,1.41.53,2.51,1.52,3.56,2.55,2.77,2.71,4.07,6.13,4.55,9.88.13,1.01,1.03,1.92.41,3.07-.11.2.39.32.63.41,2.17.79,4.4,1.3,6.86,1.5Z"/>
  <path class="cls-9" d="m68.11,113.87c-.94-.77-2.11-1.06-3.17-1.59-.17-.44.48-1.01-.22-1.38-.82-.43-1.13.49-1.73.63-.24-.27-.56-.28-.88-.26-2.11.15-3.96-.72-5.86-1.43-.13-.05-.21-.21-.31-.31,4.24-1.22,8.33-2.89,12.65-3.85,2.05-.46,3.84-1.76,6-1.88.08,1.99,1.01,3.73,1.69,5.54.32.85.7,1.69.7,2.63-.78,2.32-1.59,4.63-3.06,6.63-.23-.98.19-1.81.36-2.68.17-.92.25-1.81-.37-2.62-.4-.52-.91-.78-1.56-.62-.62.15-.7.7-.8,1.21-.29,1.52-.57,3.04-.85,4.55-.24-1.01-1.02-1.74-1.39-2.68.42-1.15-.21-1.63-1.2-1.88Z"/>
  <path class="cls-9" d="m82.85,100.57c-.39,1.36.16,2.57.65,3.78,1.16,2.92,2.19,5.89,2.84,8.98.21.99.11,1.68-.69,2.41-1.89,1.73-3.85,3.34-6.21,4.4-.23-.2-.35-.48-.31-.75.28-1.81-.07-3.67.51-5.45-.04-.55.32-1.05.18-1.62-.12-.45-.2-.93-.78-1.02.02-.79-.72-1.46-.33-2.3.83.38,1.68.5,2.56.16.47-.18.95-.39.78-1-.17-.62-.66-.66-1.25-.58-.78.11-1.35.83-2.2.7-.61-1.61-.88-3.35-1.89-4.79-.1-.14-.01-.3.15-.38,1.8-.05,3.17-1.17,4.7-1.91.43-.21.86-.41,1.29-.61Z"/>
  <path class="cls-9" d="m102.67,92.48c.02,1.04.74,1.73,1.26,2.52.8,1.21.54,1.92-.21,3.1-1.74,2.71-4.5,4.36-6.54,6.73-.31.36-.48.85-.81,1.17-.32.3-.67.8-1.22.52-.47-.23-.44-.72-.4-1.17.32-3.01-.16-5.93-.9-8.83-.12-.46-.29-.9-.44-1.36,2.94-1.4,6.15-1.88,9.26-2.7Z"/>
  <path class="cls-6" d="m8.32,195.97c-1.15-.96-1.35-2.35-1.57-3.66-.43-2.54-.82-5.1.24-7.61.57-1.34,1.59-2.27,2.68-3.13.57-.45,1.23-.17,1.77.2.6.42.57,1.03.29,1.61-.73,1.5-1.48,3-2.25,4.49-1,1.94-1.51,3.92-.86,6.1.2.67.34,1.41-.3,2Z"/>
  <path class="cls-6" d="m15.46,212.14c-.26.92-.56,1.92-1.49,2.54-.61.41-1.15.07-1.63-.31-1.99-1.58-2.33-3.81-.99-6.48.18-.35.41-.68.62-1.02.41-.65,1.02-.63,1.35-.1,1,1.63,1.73,3.4,2.15,5.37Z"/>
  <path class="cls-24" d="m76.74,103.09c1,1.64,1.58,3.44,1.9,5.32.14.18.14.36,0,.54-.26.82.87,1.48.27,2.35-.85-.29-1.51,0-2.05.67-.83-2.14-1.66-4.29-2.49-6.43-.23-.59-.14-1.17.09-1.74.49-1.1,1.54-.39,2.27-.71Z"/>
  <path class="cls-6" d="m4,210.3c-.47-.13-1.05-.05-1.33-.61-.31-.62.04-1.06.44-1.47,1.28-1.3,2.55-2.6,4.28-3.35.61-.27,1.21-.37,1.68,0,.56.45.24,1.06,0,1.63-.95,2.26-2.67,3.46-5.07,3.81Z"/>
  <path class="cls-7" d="m11.05,193.6q0-1.96,1.77-1.37s.08.02.12.03c3.4,1.11,3.05,1.24,1.57,4.61-.52,1.18-1.87,1.13-2.53-.01-.59-1.04-1.12-2.12-.93-3.26Z"/>
  <path class="cls-9" d="m90.25,96.5c.89.35,1.3.98,1.49,1.96.46,2.47.63,4.96.65,7.47,0,.31.2.83-.32.87-.49.04-.44-.52-.51-.82-.67-2.92-1.84-5.66-2.91-8.44.54-.35,1.07-.69,1.61-1.04Z"/>
  <path class="cls-7" d="m8.91,200.52c2.24-1.65,4.9-1.03,6.26,1.44.25.47.51.92.07,1.42-.44.51-.99.72-1.6.42-1.74-.85-3.58-1.57-4.73-3.28Z"/>
  <path class="cls-8" d="m85.91,98.93c1.9,3.5,2.85,7.3,3.54,11.18.09.48.41,1.3-.27,1.43-.51.1-.57-.73-.7-1.22-.56-2.19-.84-4.44-1.77-6.54-.43-.96-.97-1.81-1.62-2.61-.5-.6-1.08-.92-1.87-.76.79-.69,1.78-1,2.7-1.47Z"/>
  <path class="cls-10" d="m65.72,179.92c-.59-.11-1.27.05-1.4-.82-.11-.73.02-1.36.82-1.63,2.21-.74,4.42-1.54,6.8-1.49.73.02,1.49.06,1.69.97.15.7-.73,2.09-1.47,2.09-2.2-.02-4.35.17-6.45.88Z"/>
  <path class="cls-10" d="m88.98,176.01c-.66-.04-1.21-.06-1.33-.63-.11-.52-.24-1.13.41-1.48.49-.26.96-.58,1.47-.79,1.52-.6,3.12-.93,4.63-1.58.64-.28,1.53-.35,1.81.56.27.88-.12,1.44-1.1,1.75-1.71.53-3.36,1.23-5.03,1.88-.33.13-.64.34-.86.3Z"/>
  <path class="cls-10" d="m54.26,171.43c-.66-.03-1.25,0-1.43-.62-.23-.77.18-1.29.79-1.7,1.21-.82,2.64-.77,4-1.02.35-.06.71-.12,1.05-.21.65-.17,1.25-.08,1.51.6.27.71.07,1.34-.64,1.73-.21.11-.44.25-.66.25-1.38-.01-2.67.34-3.94.86-.25.1-.54.09-.68.12Z"/>
  <path class="cls-10" d="m44.16,148.4c-.1.61-.25,1.16-1,1.43-1.53.54-3.13.9-4.51,1.81-.34.22-.76.53-1.17.04-.37-.45-.65-.93-.43-1.53.2-.55.57-1,1.14-1.15,1.51-.39,2.94-.99,4.41-1.49.78-.26,1.45-.18,1.56.89Z"/>
  <path class="cls-10" d="m151.23,135.64c.41,0,.69.02.97,0,.7-.06,1.29.21,1.27.91-.02.61-.49,1.3-1.17,1.26-1.49-.08-2.79.46-4.15.89-.74.23-1.73.44-2.21-.54-.35-.71.37-1.47,1.6-1.78,1.26-.32,2.48-.89,3.7-.74Z"/>
  <path class="cls-10" d="m54.44,154.35c.9.44,1.81.88,2.71,1.32-.18.6-.76.77-1.21.82-1.35.14-2.62.6-3.91.95-.67.18-1.25-.1-1.87-.2-.43-.07-.5-.46-.49-.84.01-.6.4-1.09.87-1.16,1.33-.2,2.5-1.09,3.91-.88Z"/>
  <path class="cls-10" d="m121.39,152.68c.78.04,1.87-.21,1.83.95-.04.9-.81,1.56-1.86,1.46-1.16-.11-2.07.49-3.03.96-.6.3-1.2.52-1.69-.2-.49-.73.11-1.12.53-1.49,1.2-1.05,2.61-1.65,4.22-1.68Z"/>
  <path class="cls-10" d="m91.88,163.76c-.82-.06-1.69.06-1.84-.88-.14-.89.53-1.33,1.32-1.57.99-.29,1.96-.64,2.96-.89.6-.15,1.24-.03,1.57.56.32.57-.23.9-.48,1.34-.85,1.49-2.34,1.19-3.53,1.43Z"/>
  <path class="cls-10" d="m109.79,161.99c.88.15,1.78-.12,1.83,1.07.05,1.13-.55,1.47-1.56,1.4-.69-.04-1.31.28-1.95.49-.46.15-.91.29-1.39.25-.47-.04-1.01.03-1.12-.62-.09-.55.03-1.08.55-1.34,1.21-.6,2.51-.92,3.64-1.26Z"/>
  <path class="cls-10" d="m151.37,147.18s.38.01.74,0c.63-.03,1.34,0,1.4.76.06.74-.37,1.37-1.15,1.63-1.42.46-2.84.05-4.26-.03-.77-.04-.86-1.05-.24-1.67.92-.9,2.07-.67,3.51-.69Z"/>
  <path class="cls-10" d="m76.75,170.5c-.67-.04-1.4.15-1.62-.82-.2-.92.35-1.24,1.04-1.59,1.29-.67,2.65-.8,4.05-.74.32.01.66.11.82.41.18.35-.11.6-.33.82-1.09,1.11-2.37,1.85-3.96,1.92Z"/>
  <path class="cls-10" d="m134.42,156.55c-.18,0-.5-.01-.81,0-.64.03-.98-.36-1.08-.9-.11-.55.12-1.06.68-1.24,1.09-.35,2.19-.69,3.31-.93.49-.11,1.01.08,1.32.6.3.5-.05.81-.28,1.18-.71,1.11-1.78,1.38-3.14,1.29Z"/>
  <path class="cls-9" d="m68.07,151.72c2.32-2.66,3.67-5.81,5.36-8.77,1.92-3.37,1.65-6.93,1.2-10.48-.17-1.34.61-2.02,1.25-2.6.49-.45,1.57-.06,2.27.51,1.79,1.44,3.37,3.05,4.43,5.11.57,1.11,1.39,2.04,2.12,3.04,1.07,1.46,1.04,1.78-.22,3.05-2.68,2.71-5.28,5.54-6.29,9.31-.44,1.64-1.27,1.96-2.56,1.63-2.48-.64-5.04-.43-7.56-.79Z"/>
  <path class="cls-21" d="m113.02,114.08c.15-1.28,1.13-1.56,2.15-1.81.23-.04.47-.07.7-.12.46-.11.94-.3,1.27.24.33.54.06,1-.27,1.4-.97,1.19-2.83,1.32-3.84.29Z"/>
  <path class="cls-25" d="m43.53,29.98c-.77.66-1.65,1.03-2.67,1.05-.99.02-1.3-.52-.91-1.51.79-1.1,2.04-1.21,3.17-1.14,1.1.07.78.92.41,1.6Z"/>
  <path class="cls-31" d="m127.15,97.99c-.76-.02-1.31-.39-1.36-1.16-.05-.75.6-.9,1.18-1.08.33-.1.65-.27.97-.4.89-.07,1.38.43,1.43,1.22.06.82-.67.92-1.28,1.06-.33.08-.72,0-.94.35Z"/>
  <path class="cls-27" d="m54.78,11.96c-.1-.89.43-1.25,1.19-1.44.49-.13.97-.31,1.46-.46.58.35,1.08.85.91,1.52-.17.65-.82.8-1.5.94-.85.19-1.58.42-2.06-.56Z"/>
  <path class="cls-30" d="m83.33,131.72c.37-.13.74-.26,1.12-.39.76-.27,1.32-.07,1.62.7.33.84-.27,1.12-.87,1.38-.14.06-.3.09-.45.14-.5-.29-.78.53-1.29.25-.43-.24-.84-.48-.89-1.03-.06-.58.28-.87.77-1.04Z"/>
  <path class="cls-22" d="m129.34,103.99c.34.13.81.1.93.57.1.4.06.82-.28,1.09-.44.35-.78.77-1.1,1.23-.36.52-.88.52-1.37.2-.52-.34-.66-.92-.22-1.32.66-.6.78-1.85,2.05-1.78Z"/>
  <path class="cls-1" d="m116.05,122.73c-.64-.07-.98-.32-1.01-1.05-.03-.87.54-.85,1.08-.88.61-.02,1.1.18,1.12.92.02.84-.6.9-1.19,1Z"/>
  <path class="cls-3" d="m107.03,119.82q-.11-1.51,1.9-1.39c.35.51.47,1.09-.05,1.49-.58.45-1.26.39-1.85-.1Z"/>
  <path class="cls-34" d="m129.49,109.76c.7-.03,1.3-.05,1.3.84,0,.84-.61.92-1.2.95-.76.04-.95-.4-.99-1.12-.06-.91.53-.64.9-.67Z"/>
  <path class="cls-32" d="m131.6,119.86c-.61.04-1.33-.84-1.12-1.41.39-1.04,1.46-.95,2.28-1.21.56-.18.89.27,1.17.76.35.62.09,1-.4,1.25-.61.32-1.39.14-1.92.6Z"/>
  <path class="cls-20" d="m126.04,120.07c.44,0,.92-.04,1.1.49.15.45.06.91-.35,1.18-.55.36-.83.95-1.31,1.36-.3.26-.6.33-.98.15-.38-.17-.54-.47-.59-.83-.1-.78,1.33-2.34,2.13-2.35Z"/>
  <path class="cls-32" d="m110.06,129.91c.58-.06,1.19.07,1.17.88-.02.77-.69.92-1.3.94-.71.02-.9-.45-.95-1.1-.06-.87.51-.7,1.09-.71Z"/>
  <path class="cls-16" d="m56.64,31.2c-.61-.02-.87-.36-.89-.91-.02-.81.54-1.06,1.2-1.15.6-.08.87.24.88.83.02.84-.61,1.01-1.2,1.23Z"/>
  <path class="cls-28" d="m78.83,114.69c.18,2.07-.2,4.13-.2,6.2-1.11.79-2.21,1.58-3.32,2.37-.49-.72.23-1.23.32-1.85.08-.59.36-1.12.52-1.68.78-1.74,1.67-3.42,2.68-5.04Z"/>
  <path class="cls-5" d="m76.97,118.97c.04,1.25-.59,2.35-.85,3.53-.35.42-.73.8-1.52.84.84-1.55,1.61-2.96,2.37-4.37Z"/>
  <path class="cls-12" d="m91.99,125.58c.12.08.26.13.28.21.06.21-.12.26-.27.24-.08-.01-.2-.13-.21-.2,0-.06.12-.15.2-.24Z"/>
  <path class="cls-26" d="m40.65,7.68c-.3,0-.76-.16-.92-.69-.18-.62.14-1.19.64-1.4.79-.33,1.67-.49,2.52-.66.35-.07.74.03.86.47.14.55-.04,1.05-.47,1.39-.7.55-1.52.84-2.63.89Z"/>
  <path class="cls-29" d="m109.54,104.62c.83.02,1.08.63,1.25,1.18.16.52-.35.76-.73.94-.53.26-1.13.29-1.69.51-.4.16-.96-.32-1.14-.85-.17-.52-.03-.95.52-1.15.59-.22,1.19-.42,1.79-.62Z"/>
  <path class="cls-13" d="m103.41,118.16c.47-.03.88.08,1.09.55.2.45-.08.74-.35,1.04-.37.41-.7.86-1.06,1.28-.39.46-.88.59-1.36.18-.46-.4-.72-.98-.19-1.44.62-.54.72-1.71,1.87-1.61Z"/>
  <path class="cls-33" d="m121.03,104c.61-.05,1.21,0,1.25.82.03.81-.58.96-1.19.98-.77.03-.98-.46-1.02-1.14-.04-.77.46-.67.96-.66Z"/>
  <path class="cls-19" d="m53.52,5.37c-.07.76-.59,1.06-1.28,1.1-.72.05-.89-.55-.84-1.03.07-.68.67-.95,1.29-1,.6-.04.83.35.83.93Z"/>
  <path class="cls-17" d="m59.7,0c.78-.01,1.01.38.99.91-.03.78-.57,1.08-1.26,1.13-.62.04-.85-.43-.84-.92,0-.78.6-1.02,1.11-1.12Z"/>
  <path class="cls-15" d="m36.62,17.14c.71-.02.93.28.92.82-.02.82-.59,1.15-1.24,1.19-.61.03-.93-.53-.87-1.07.08-.72.71-.88,1.19-.93Z"/>
  <path class="cls-18" d="m49.29,15.11c-.1.78-.6,1.15-1.27,1.21-.66.06-.92-.45-.87-1.01.06-.7.63-.97,1.24-1.04.59-.07.83.33.9.83Z"/>
  <path class="cls-23" d="m117.79,106.39c-.08.76-.67,1.09-1.29,1.14-.5.04-.85-.42-.81-.96.06-.76.58-1.07,1.28-1.12.65-.04.74.45.82.94Z"/>
  <path class="cls-11" d="m65.54,120.8c-.54.01-1.11.03-1.23-.65-.11-.6.13-1.18.69-1.39.77-.29,1.6-.5,2.42-.58.88-.09,1.24.55.77,1.31-.6.96-1.58,1.27-2.65,1.31Z"/>
  <path class="cls-36" d="m62.99,111.53c.14-.23.23-.51.42-.69.54-.54,1.22-.53,1.73-.08.58.5.27,1.07-.21,1.52-.25.25-.57.46-.74.76-.43.73-1.04.96-1.67.46-.72-.57-.32-1.19.22-1.7.09-.08.16-.17.25-.26Z"/>
  <path class="cls-35" d="m78.77,108.95c0-.18,0-.36,0-.54.62-1.01,1.71-1.08,2.69-1.23.55-.09.78.58,1.01,1.05.22.45-.14.68-.4.88-.88.69-2.52.6-3.3-.16Z"/>
  <path class="cls-23" d="m83.73,115.21c-.06.81-.62,1.13-1.26,1.21-.55.06-.87-.4-.85-.92.03-.74.55-1.08,1.25-1.14.64-.06.78.39.86.85Z"/>
  <path class="cls-20" d="m99.58,94.16c.43-.03.81.06,1.02.47.22.43,0,.8-.28,1.07-.42.42-.8.88-1.18,1.34-.41.5-.98.52-1.47.06-.46-.43-.46-.96,0-1.36.63-.54.73-1.71,1.9-1.58Z"/>
  <path class="cls-17" d="m35.6,3.09c-.69-.12-.93-.63-.86-1.14.09-.67.67-.95,1.31-.98.64-.03.79.39.78.94-.01.85-.7.94-1.23,1.18Z"/>
  <path class="cls-24" d="m64.58,127.86c-.29-1.17-.57-2.34-.86-3.51.57-1.4.55-1.45-.91-1.71-1.56-2.99-3.23-5.92-6.68-7.1-2.6-.89-4.69-2.29-5.81-4.89.65-1.2,2.44-1.98,3.91-1.66.54.12,1.07.27,1.63.23.56.06,1.08.21,1.6.42,1.36.55,2.75,1.03,4.26.94.45-.03.98-.05,1.2.53.04.43-.29.72-.41,1.09-.1.33-.07.64.26.83.27.16.54.06.77-.13.43-.34.64-.93,1.25-1.04,1.26.22,2.49.5,3.35,1.56-.2.66-.83.65-1.32.85-.47.19-.89.48-.82,1.02.09.65.68.52,1.13.56.78.08,1.39-.57,2.16-.49.82.73,1.3,1.63,1.32,2.75-.66,2.04-1.32,4.09-1.99,6.13-.17.51-.26,1.02-.07,1.52.32.86-.11,1.28-.84,1.53-1.02.36-2.07.58-3.15.57Z"/>
</svg>