<?xml version="1.0" encoding="UTF-8"?>
<svg id="_レイヤー_1" data-name="レイヤー 1" xmlns="http://www.w3.org/2000/svg" viewBox="0 0 116.76 46.26">
  <defs>
    <style>
      .cls-1, .cls-2 {
        stroke-width: 0px;
      }

      .cls-2 {
        fill: #ca3211;
      }
    </style>
  </defs>
  <path class="cls-1" d="m89.76,17.59c1.81-.12,3.09-1.39,4.12-2.51.91-.99,1.49-2.41,2.43-3.49,2.06-2.38,4.02-4.88,6.8-6.48,1.59-.91,3.33-1.43,5.19-1.59,1.71-.15,3.27.15,4.85.8,2.34.97,3.77,2.58,3.59,5.36-.17,2.64-1.14,4.94-2.41,7.14-.49.84-1.54,1.23-2.43,1.4-2.21.42-4.34,1.17-6.62,1.3-1.9.1-3.4.78-4.13,2.91-1.33,3.88-2.18,7.87-3.31,11.79-.85,2.94-1.46,5.93-2.17,8.9-.17.72-.69,1.29-1.46,1.45-2.72.56-5.45,1.12-8.23,1.16-3.57.05-7.13.32-10.7.5-.72.04-1.43-.03-2.13-.21-1.14-.29-2.27-.3-3.4.09-.36.13-.79.11-1.18.12-2,.01-4-.03-6,.01-3.84.08-7.66.08-11.38-1.07-1.7-.53-3.48-.39-5.2-.63-3.73-.53-7.5-.65-11.21-1.37-1.81-.35-3.7-.47-5.55-.64-1.4-.13-2.73-.51-4.02-1.03-.75-.3-1.21-.87-1.48-1.62-.69-1.99-1.44-3.96-2.09-5.96-.96-2.99-2.14-5.88-3.87-8.53-.57-.87-1.12-1.06-2.08-.64-2.44,1.06-4.98,1.85-7.62,2.28-2.09.34-5.45-1.48-6.58-3.53C.69,22.05-.04,20.53,0,18.89c.07-2.41.33-4.9,1.92-6.85,1.52-1.86,3.7-2.4,6.07-2.55,2.8-.17,4.84,1.01,6.73,2.91,2.27,2.28,4.06,4.88,5.43,7.74.73,1.51,1.88,2.01,3.31,2.33,2.1.68,4.3.8,6.45,1.17,3.47.6,6.93.32,10.39.39,7.02.14,14.04.01,21.07-.03,2.54-.01,5.07-.56,7.57-1.03,2.59-.48,5.18-.94,7.77-1.43,4.49-.85,8.77-2.41,13.05-3.96Z"/>
  <path class="cls-2" d="m89.76,17.59c-.04.44-.36.54-.72.66-4.35,1.53-8.71,3.11-13.27,3.84-3.72.6-7.41,1.38-11.15,1.86-6.2.8-12.42.22-18.63.46-4.54.17-9.07.02-13.59-.15-2.68-.1-5.37-.51-8.01-1.07-.42-.09-.68-.39-.92-.71,1.17-3.01,3.89-3.89,6.59-4.78,3.93-1.3,7.98-2.16,12.02-3.05.12-.03.23-.04.35-.07.47-.12,1.13.42,1.41-.22.36-.81,1.06-1.52.88-2.53-.18-.98-.05-1.99-.38-2.95-.23-.66,0-1.27.27-1.84,1.01-2.09,2.37-3.73,4.4-5.11C52.19-.24,55.54-.19,58.97.23c2.73.34,6.37,4.44,6.68,7.14.1.82-.03,1.66-.04,2.5,0,.62.2,1.21.89,1.18,2.12-.11,4.07.63,6.07,1.12,3.55.88,7.2,1.37,10.62,2.68,1.96.75,3.97,1.41,5.9,2.24.24.11.44.33.66.49Z"/>
</svg>