<?xml version="1.0" encoding="UTF-8"?>
<svg id="_レイヤー_1" data-name="レイヤー 1" xmlns="http://www.w3.org/2000/svg" viewBox="0 0 149.5 157.47">
  <defs>
    <style>
      .cls-1, .cls-2, .cls-3, .cls-4, .cls-5, .cls-6, .cls-7, .cls-8, .cls-9, .cls-10, .cls-11, .cls-12, .cls-13, .cls-14, .cls-15, .cls-16, .cls-17, .cls-18, .cls-19, .cls-20, .cls-21, .cls-22, .cls-23, .cls-24, .cls-25, .cls-26, .cls-27, .cls-28, .cls-29, .cls-30 {
        stroke-width: 0px;
      }

      .cls-2 {
        fill: #0a0700;
      }

      .cls-3 {
        fill: #110b01;
      }

      .cls-4 {
        fill: #0f0a01;
      }

      .cls-5 {
        fill: #090600;
      }

      .cls-6 {
        fill: #070500;
      }

      .cls-7 {
        fill: #080600;
      }

      .cls-8 {
        fill: #0c0801;
      }

      .cls-9 {
        fill: #0b0800;
      }

      .cls-10 {
        fill: #0b0701;
      }

      .cls-11 {
        fill: #0b0700;
      }

      .cls-12 {
        fill: #130d01;
      }

      .cls-13 {
        fill: #120c01;
      }

      .cls-14 {
        fill: #171001;
      }

      .cls-15 {
        fill: #d08d09;
      }

      .cls-16 {
        fill: #d08e0a;
      }

      .cls-17 {
        fill: #d18e0b;
      }

      .cls-18 {
        fill: #d18f0d;
      }

      .cls-19 {
        fill: #ca3211;
      }

      .cls-20 {
        fill: #865304;
      }

      .cls-21 {
        fill: #855304;
      }

      .cls-22 {
        fill: #fff;
      }

      .cls-23 {
        fill: #f29700;
      }

      .cls-24 {
        fill: #030200;
      }

      .cls-25 {
        fill: #040300;
      }

      .cls-26 {
        fill: #010101;
      }

      .cls-27 {
        fill: #010000;
      }

      .cls-28 {
        fill: #060400;
      }

      .cls-29 {
        fill: #6a6a6a;
      }

      .cls-30 {
        fill: #020100;
      }
    </style>
  </defs>
  <path class="cls-19" d="m93.72,92.6c.06,2.19-1.06,4.05-1.66,6.05-.63,2.12-.86,4.28-.73,6.48.16,2.68,2.82,3.37,5.04,2.7,2.27-.69,3.6-2.65,4.67-4.69.31-.59.43-1.28.65-1.92.06-.17.01-.43.26-.48.29-.06.41.18.56.36.02.03.05.06.07.1,1.42,3.02,2.98,5.97,3.05,9.46.08,4.06-.44,8.03-2.01,11.76-1.25,2.97-3.33,5.34-5.91,7.35-2.97,2.31-6.13,4.11-9.83,4.85-1.47.3-2.98.43-4.47.62-2.24.29-4.48.55-6.72.85-1.55.21-3.13.27-4.65.03-2.73-.43-5.43-1.07-8.14-1.65-.7-.15-1.39-.35-1.79-1.05-.24-.42-.7-.46-1.12-.59-3.85-1.22-7.31-3.15-9.47-6.66-1.98-3.21-2.92-6.71-1.39-10.47.35-.86.94-1.44,1.68-1.94,2.71-1.84,4.26-5.94,3.48-9.12-.09-.35-.19-.75.09-1.02.34-.33.75-.13,1.11.04,1.68.79,2.97,2.12,4.45,3.19,1.68,1.21,3.45,1.55,5.38.81,1-.38,2.03-.67,2.97-1.22,2.45-1.41,3.29-3.63,2.21-6.24-1.04-2.5-2.18-4.99-2.45-7.7-.47-4.75.11-9.24,4.1-12.59.38-.32.76-.47,1.19-.28.48.21.37.7.29,1.06-.5,2.08.05,4.07.44,6.08.45,2.35,1.88,4.04,3.88,5.19,2.09,1.21,5.95.7,6.83-2.08.08-.02.17-.06.23-.03,2.26,1.39,4.8,1.93,7.35,2.42.16.03.28.15.36.29Z"/>
  <path class="cls-1" d="m93.72,92.6c-2.84-.31-5.62-.81-7.94-2.68-1.63-1.21-3.21-2.44-4.61-3.93-.79-.84-1.55-1.68-2.25-2.6-2.8-3.71-6.31-6.57-10.92-7.59-2.34-.52-4.76-.8-7.13-1.24-1.38-.25-2.72-.59-3.76-1.63-.68-.67-1.04-1.48-1.17-2.41-.46-3.16-.94-6.31-1.4-9.46-.03-.2-.06-.4-.03-.59.24-1.54,0-3.07-.01-4.6,0-.87.25-1.22,1.13-.75,3.12,1.68,6.4,1.34,9.75.95,2.17-.26,4.26-.74,6.58-.38,4.49.7,7.34,3.35,9.66,6.85,1.55,2.34,3.17,4.63,5.36,6.37,1.41,1.12,3.02,2,4.96,2.1,1.54.08,3.05.46,4.62.5,1.54.04,2.97-.47,4.47-.55.61.06.31.48.31.78-.06,1.35-.13,2.71-.16,4.06-.02.73-.19,1.22-.96,1.57-2.16.99-2.77,3.04-2.51,5.17.15,1.23,2.36,2.85,3.87,2.95,3.12.21,5.08-1.68,4.99-4.78-.02-.67-.18-1.26-.69-1.71-.72-.62-.97-1.4-.88-2.34.22-2.37.41-4.74.61-7.12.04-.5.36-.71.78-.94,1.12-.6,2.23-1.22,3.15-2.12.19-.19.36-.5.69-.35.37.16.3.53.3.84-.04,2.39.06,4.78-.16,7.15-.2,2.12.44,4.1.58,6.15.14,2.24.08,4.44-.61,6.58-.73,2.27-2.52,3.28-4.67,3.77-2.35.54-4.73.96-7.09,1.45-1.6.33-3.26.05-4.84.52Z"/>
  <path class="cls-1" d="m102.56,58.83c.39,3.29-.72,6.41-.91,9.62-.02.35-.21.53-.51.57-.94.13-1.81.6-2.81.5-2.21-.21-4.41.14-6.65-.4-3.54-.84-5.95-2.96-7.67-5.93-2.48-4.28-5.89-7.39-10.57-9.03-1.49-.52-3.05-.33-4.59-.05-3.92.71-7.85,1.38-11.74-.22-1.8-.74-2.71-1.97-2.73-3.89-.01-1.16.02-2.32,0-3.48-.03-1.26.46-2.2,1.51-2.91,2.13-1.44,4.36-2.74,6.88-3.2,2.17-.39,4.38-.82,6.61-.77,1.98.04,3.93-.21,5.89-.36.99-.07,1.95.01,2.94.34,2.94.98,6.07,1.24,9.01,2.27,2.4.84,4.84,1.55,7.27,2.3,1.71.52,3.08,1.63,4.56,2.55.1.06.18.17.29.21,2.11.94,3.18,2.38,2.91,4.87-.25,2.33.66,4.66.32,7Z"/>
  <path class="cls-15" d="m34.17,20.92c-.31.31-.68.57-.92.92-1.95,2.86-4.1,5.58-5.83,8.59-.85,1.47-.51,2.93-.13,4.4.48,1.84,1.14,3.64.84,5.6-.07.42-.03.89.08,1.31.66,2.47.25,4.88-.23,7.32-.26,1.28-.32,2.61-.41,3.91-.29,4.12-1.56,8.19-1.08,12.34.36,3.12.24,6.22.14,9.32-.07,2.03.44,4.02-.18,6.13-.37,1.26.26,2.86.13,4.35-.17,1.82-.28,3.69-.1,5.5.47,4.84-.19,9.71.49,14.51.2,1.45.37,2.91.61,4.35.3,1.86.1,3.74.01,5.6-.08,1.88.07,3.74.13,5.6.09,2.82,1,5.68-.12,8.48-.04.11-.1.25-.07.35.9,3.01,0,6.1.46,9.16.31,2.12.44,4.34.62,6.49.24,2.93-.08,5.8,0,8.7,0,.08,0,.16,0,.24q0,2.95-2.59,1.76c-.22-.1-.46-.15-.66-.26-.49-.27-1.22.35-1.44-.11-.32-.69-.44-1.53-.43-2.31.03-2.91.05-5.83.27-8.73.17-2.22-.3-4.36-.44-6.54-.06-.9-.23-1.81-.23-2.73,0-2.47-.24-4.92-.68-7.34-.03-.16-.04-.32-.03-.48.17-2.91-.41-5.82-.21-8.72.28-4.07-.25-8.13-.02-12.19.16-2.75.26-5.51-.26-8.23-.66-3.42-.03-6.83-.13-10.24-.14-4.76.19-9.57-.84-14.28-.33-1.52.44-2.9.51-4.36.08-1.74.08-3.48.16-5.23.08-1.73.19-3.47.33-5.2.15-1.86.09-3.7-.04-5.58-.18-2.57.1-5.18.21-7.76.14-3.58.28-7.17.46-10.75.04-.76-.27-1.31-.78-1.78-1.16-1.07-2.05-2.35-2.84-3.69-1.12-1.91-1.01-4.06-.92-6.16.04-.89-.05-1.74-.17-2.6.37-.46.93-.45,1.42-.5,1.89-.19,3.79-.37,5.66.18.64,1.15.41,2.38-.64,3.57-.36.41-1.22.88-.55,1.41.58.45,1.04-.38,1.3-.87.66-1.25,1.8-2.27,1.86-3.82.51-.5.72-1.22,1.29-1.67.34-.43.75-.83,1.01-1.31,1.68-3.1,3.83-5.93,5.04-9.29.46-1.29.89-1.31,2.21-.91,1.49.46,2.92,1.21,4.6.93.89-.15.69.57.49,1.03-.68,1.62-1.61,3.1-2.57,4.56-1,1.53-2.03,3.03-3.05,4.55-.17.26-.6.55.03.78-.54.52-1.19.89-1.76,1.37-.06.05.19.11.16.26-.01.07-.05.08-.15.03Z"/>
  <path class="cls-15" d="m133.36,16.13c.74-2.38,1.49-4.76,2.21-7.15.19-.62.42-1.21.81-1.72.42-.56,1.06-.62,1.62-.38,1.03.45,2.1.38,3.16.48,1.41.14,1.7.53,1,1.82-1.16,2.14-1.98,4.42-2.97,6.63-.1.21-.14.45-.21.68.02.66-.07,1.36.64,1.77-.01.02-.03.06-.04.06-.04,0-.07-.02-.11-.03-.68,0-.9.3-1.1,1.01-.77,2.78-.95,5.69-2.12,8.41-.58,1.35-.25,3.04-.62,4.57-.18.75-.2,1.57-.4,2.34-.08.3-.17.65-.1.94.64,2.87.5,5.85,1.25,8.7.21.78.26,1.56.27,2.36.04,2.67-.17,5.38.2,8,.52,3.69.35,7.38.58,11.06.11,1.73.61,3.43.33,5.19-.57.03-1.03.2-.98.9.05.69.57.5.98.49.35,1.25.22,2.54.22,3.81,0,3.23.53,6.4.89,9.59.36,3.23,1.03,6.43.8,9.74-.19,2.7-.8,5.4-.45,8.1.64,5,.36,10.03.57,15.03.11,2.56.02,5.24-.55,7.82-.46,2.06-.2,4.15.07,6.19.17,1.27-.43,2.43-.15,3.65.56,2.48.59,5.03.32,7.51-.34,3.03.45,5.99.24,9-.06.84-.38,1.17-1.06,1.47-.93.41-1.87.34-2.82.25-.56-.05-.83-.39-.82-.96,0-.4,0-.8-.03-1.2-.62-6.79-.78-13.59-.64-20.41.06-2.72.79-5.37.54-8.09-.46-5.08-.44-10.18-.87-15.26-.12-1.41.17-2.91.36-4.35.47-3.47.67-6.95.62-10.44-.03-2.51-.51-4.97-1.02-7.42-.35-1.66.04-3.35-.3-5.01-.84-4.06-.22-8.2-.72-12.28-.31-2.46-.07-4.96-.41-7.39-.28-2.03-.45-4.09-.88-6.11-.39-1.84-.32-3.74-.24-5.61.1-2.28-.08-4.51-.31-6.78-.25-2.52-.62-5-1.56-7.31-1.93-4.73-2.72-9.81-4.47-14.59-.47-1.3-1.32-2.24-2.18-3.23.69-.73,1.62-.75,2.52-.83,1.43-.12,2.84.1,4.24.35,1.19.87,1.63,2,1.26,3.44-.29,1.12-.75,2.2-.86,3.36-.05.51-.25,1.17.39,1.35.77.21.91-.58,1-1.07.4-2.2,1.32-4.28,1.41-6.54.07-.65-.05-1.35.48-1.89Z"/>
  <path class="cls-1" d="m129.84,17.73c-2.32-.14-4.64-.42-6.93.22-1.34-.29-2.75-.32-4.05-.09-4.44.77-8.88.25-13.31.39-4.31.14-8.67-.07-12.95.83-2.54.54-5.13.4-7.71.23-.51-.03-1.35-.58-1.58.39-.38,1.58-.01,2.7.97,3,1.97.6,3.97,1.11,6.07,1,1.17-.06,2.3.33,3.37.67,2.1.66,4.29.85,6.38,1.49,1.19.36,2.27.88,3.28,1.63,1.81,1.36,1.81,3.34,1.97,5.25.36,4.5-.49,8.96-.45,13.46.02,1.99.37,3.98.39,5.94.02,2.3.11,4.6.1,6.9,0,3.54-.16,7.05-.82,10.56-.49,2.57-.53,5.22-.74,7.83-.05.59.11,1.17.64,1.58,1.24.96,1.28,2.3.8,3.57-.42,1.1-1.46,1.62-2.67,1.69-1.53.09-2.86-.27-3.66-1.7-.73-1.31.32-3.8,1.92-4.33,1.04-.35,1.34-1.08,1.38-1.97.16-3.93.42-7.85,1.11-11.73.52-2.94.58-5.89.28-8.8-.29-2.85-.3-5.71-.49-8.56-.11-1.65.19-3.33.18-5-.02-3.39.17-6.79-.11-10.18-.14-1.77-.9-3.06-2.73-3.62-3.76-1.16-7.51-2.25-11.48-2.62-1.73-.16-3.56-.19-5.26-.88-1.68-.68-1.99-1.06-1.73-2.82.02-.12.05-.23.07-.35.18-1.7-.13-2.13-1.79-2.21-1.47-.07-2.94-.02-4.4.31-.66.15-.99.46-1.15,1.03-.29,1-.51,2-.56,3.05-.05.96-.49,1.43-1.57,1.51-3.84.28-7.6-.36-11.38-.8-2.68-.31-4.51,1.38-4.56,4.06-.06,3.74.49,7.46.49,11.2,0,.4.03.8-.01,1.2-.08.65-.49.95-1.14.99-.8.05-.66-.54-.66-.98,0-3.55-.01-7.1.03-10.65.01-1.21-.56-2.35-.11-3.64.84-2.38,2.7-3.89,5.27-3.93,2.86-.04,5.69.35,8.51.79.98.15,1.99.03,2.99.05.55,0,.74-.41.92-.8.08-.17.02-.39.04-.59.18-1.96.19-1.86-1.72-1.67-2.05.2-4.1.66-6.19.31-1.9-.31-3.76.53-5.69.24-4.32-.64-8.57.39-12.84.69-2.56.18-5.08.03-7.6-.05-1.59-.05-3.12-.87-4.77-.9-.01-.9.66-1.54,1.74-1.66,2.89,1.07,5.97,1.13,8.93.97,2.97-.16,5.99-.44,8.96-.99,1.57-.29,3.25-.03,4.88.07.96.06,1.89.1,2.85-.1,1.86-.4,3.72.15,5.58.05,2.38-.14,4.72-.6,7.01-1.25,1.28-.36,1.99-1.61,3.21-2.17,2.07-.96,3.05-.97,4.5.75.58.69,1.17.91,2.03.91,1.59,0,3.18.11,4.77.22,1.65.11,3.2-.51,4.84-.59,1.94-.09,3.9-.22,5.78-.66,2.59-.61,5.21.03,7.82-.47,1.71-.33,3.56.02,5.34.2,2.88.29,5.69-.4,8.55-.43.5-.45,1.12-.34,1.71-.34,2.62-.01,5.24-.07,7.86,0,.99.06,1.9.45,2.85.72.13.62-.07,1.22-.17,1.82-1.16.61-2.26.4-3.34-.22Z"/>
  <path class="cls-21" d="m82.21,145.45c-.25,1.77.35,3.46.44,5.2.03.64.13,1.27-.24,1.85-.21.33-.18.67-.08,1.04.46,1.72.08,2.57-1.59,3.21-2.21.84-4.41.82-6.53-.36-1.33-.74-1.94-2.31-1.47-3.76.16-.49.27-1.01.52-1.46,1.74-3.12,2.3-6.55,2.71-10.03.29-2.44,1.18-3.18,3.56-3.14,1.22.02,1.88.74,2.06,1.78.34,1.87.95,3.72.63,5.66Z"/>
  <path class="cls-20" d="m65.41,157.47c-1.48-.04-2.58-.69-3.22-2.05-.64-1.37-1.09-2.81-.08-4.17,1.85-2.47,2.95-5.35,4.59-7.94.83-1.32,1.9-2.49,2.36-4.1.35-1.23,2.22-1.8,3.18-1.29,1.55.82,1.97,2.15,1.39,3.66-1.25,3.26-2.44,6.55-3.57,9.85-.24.69-.21,1.5-.17,2.25.09,1.79-.45,2.69-2.15,3.32-.75.28-1.52.5-2.34.48Z"/>
  <path class="cls-20" d="m91.63,155.73c-1.01.06-3.89-1.94-4.27-2.94-.04-.1-.06-.24-.03-.34.7-2.32-.52-4.42-.81-6.63-.19-1.41-.46-2.81-.48-4.24,0-.64,0-1.29-.14-1.9-.12-.54.12-.85.44-1.14,1.83-1.64,4.44-1.04,5.31,1.29.6,1.59,1.13,3.2,1.49,4.87.5,2.31,2,4.13,3.24,6.07.49.77.54,1.36-.06,2.02-1.29,1.41-2.46,2.99-4.69,2.93Z"/>
  <path class="cls-15" d="m16.33,18.77c.79,0,1.05-.21.75-1.1-1.41-4.18-2.21-8.52-3.18-12.82-.14-.64.04-.82.65-.95,1.81-.4,3.73-.29,5.45-1.14.71-.35,1.06.24,1.08.71.15,2.52,1.24,4.85,1.48,7.33.27,2.72,1,5.29,1.96,7.82-.67.62-1.51.44-2.25.35-1.16-.13-2.27,0-3.41.16-.84.12-1.79.5-2.52-.35Z"/>
  <path class="cls-20" d="m54.58,153.98c-2.63,0-3.91-.87-4.11-2.66-.14-1.29.5-2.28,1.32-3.2,1.49-1.69,3.31-3,5.03-4.41,2.23-1.84,4.05-4.05,6.06-6.09.37-.38.73-.73,1.34-.58.69.17.54.78.72,1.24,1.26,3.17-.96,5.26-2.39,7.56-1.52,2.42-3.67,4.4-5.07,6.92-.72,1.31-1.93,1.38-2.91,1.24Z"/>
  <path class="cls-20" d="m106.03,147.28c-1.8-.05-3.18-.77-4.34-2.25-1.53-1.97-2.79-4.17-4.7-5.83-.27-.23-.56-.45-.87-.63-2-1.11-1.73-4.1.14-5.27.65-.41,1.25-.2,1.78.18,3.17,2.29,6.65,4.07,9.89,6.24.91.61,1.63,1.52,2.43,2.29.29.28.3.64.28,1-.16,2.62-1.92,4.25-4.62,4.27Z"/>
  <path class="cls-15" d="m130.51,15.41c-3.19.27-6.38.24-9.57.34-.88-1.37-2.4-2.05-3.46-3.25-1.31-1.5-2.25-3.26-3.58-4.76-.78-.88-.11-1.97,1.07-2.16,1.01-.16,1.96-.6,2.99-.75.63-.1,1.11-.07,1.47.45,1.45,2.07,3.26,3.78,5.31,5.25.7.5,1.04,1.29,1.45,2.02.94,1.7,1.97,3.27,4.32,2.87Z"/>
  <path class="cls-27" d="m16.33,18.77c.55.19,1.13.11,1.65,0,2.17-.44,4.35-.21,6.53-.16,1.21.1,2.41.2,3.62.3-.28.63-.3,1.41-1.04,1.77-.68.31-1.35.37-2-.07-1.92-.25-3.83-.45-5.77-.14-.51.08-1.02.09-1.53.14-2.43-.2-4.82.28-7.21.57-.56.07-1.13.23-1.65.03-2.51-.99-5.14-.88-7.76-.87-.78,0-1.23-.25-1.16-1.1.04-.5.25-.87.81-.82,1.36.13,2.69-.26,4.04-.26.88,0,1.72.08,2.55.44,2.14.94,4.37.29,6.56.29.78,0,1.56-.32,2.36-.12Z"/>
  <path class="cls-26" d="m106.1,66.71c1.03-4.75-.03-9.42.37-14.07.08-.03.19-.09.2-.08,1.44,2.42,2.91,4.83,3.28,7.7.38,3.02-.79,5.05-3.84,6.44Z"/>
  <path class="cls-26" d="m139.47,18.29c-1.81-.16-.53-1.15-.48-1.81,2.45.34,4.88-.41,7.35-.15.63.07,1.31-.25,1.97-.4.7-.15,1.07.23,1.17.84.09.6.03,1.35-.75,1.37-3.08.07-6.16.65-9.25.14Z"/>
  <path class="cls-16" d="m137.76,3.68c0-1.34.7-1.96,2.11-1.88,1.26.07,2.37.63,3.39,1.36.47.34.47.82.34,1.29-.16.6-.48,1.11-1.15,1.24-1.19.22-2.4.1-3.54-.17-.91-.21-1.31-.98-1.14-1.84Z"/>
  <path class="cls-16" d="m38.77,3.78c1.46-.04,2.6.04,3.24,1.27.45.86.14,1.64-.79,1.81-1.55.27-2.99-.18-4.33-.91-.39-.21-.48-.67-.32-1.06.23-.57.7-.97,1.3-1.1.38-.08.79-.02.91-.02Z"/>
  <path class="cls-17" d="m114.59,3.91c-1.33,0-2.15-.53-2.13-1.37.02-.86,1.01-1.62,2.16-1.65,1.07-.02,1.98.77,2.03,1.77.04.84-.64,1.25-2.05,1.25Z"/>
  <path class="cls-18" d="m16.85.03c.72-.1,1.49.15,2.26.55.69.36.47.72,0,.89-1.3.49-2.64.91-4.05.82-.52-.03-.97-.39-1.08-.97-.13-.67.41-.85.87-1.11.61-.35,1.24-.15,2.01-.18Z"/>
  <path class="cls-13" d="m137.77,72.24c-.31.15-.43.9-.87.49-.54-.51-.66-1.22-.17-1.93.41-.59.71-.25,1.04.06,0,.46,0,.92,0,1.39Z"/>
  <path class="cls-29" d="m101.34,71.72c-.14-.25.08-.64-.31-.78.13-.17.32-.28.44-.05.14.28.11.59-.13.84Z"/>
  <path class="cls-23" d="m78.21,128.13c-2.71-.06-5.34-.41-7.62-2-1.61-1.12-2.58-2.56-2.7-4.66-.09-1.57-.3-3.25-1.7-4.4-.25-.2-.48-.46-.33-.82.16-.4.53-.43.9-.46,1.32-.1,2.49.26,3.65.9,1.3.72,2.76,1.71,4.24.95,2.26-1.15,3.91-2.97,4.32-5.64.01-.08,0-.16.02-.24.11-.7.12-1.51,1.01-1.69.65-.13,1.4.97,1.4,1.91.01,1.33-.67,2.45-1.11,3.63-.63,1.66,0,3.89,1.4,4.92.24.17.46.33.76.23,1.49-.49,3.17-.5,4.35-1.76.16-.17.39-.27.59-.41.58-.41.9-.38,1.22.38.6,1.46.12,2.75-.69,3.82-2.4,3.22-5.43,5.43-9.69,5.33Z"/>
  <path class="cls-22" d="m91.97,79.41c-1.75.27-3.64-.13-5.52-.63-2.17-.58-3.65-2.06-4.88-3.83-1.63-2.35-3.21-4.74-4.96-7.01-.83-1.08-1.93-1.78-3.09-2.37-.63-.32-1.36-.71-2.16-.38-2.9,1.19-5.77.67-8.65-.11-.73-.2-1.46-.42-2.19-.58-.56-.12-.71-.54-.69-.97.03-.49.48-.59.91-.55.55.04,1.17,0,1.65.21,1.52.68,3.17.73,4.75,1.06,1.18.25,2.37-.12,3.5-.52,1.56-.55,3.09-.37,4.31.61,1.85,1.49,3.66,3.05,4.87,5.18,1.2,2.11,2.61,4.07,4.34,5.82,1.91,1.93,4.27,2.35,6.77,2.34,1.1,0,2.24.02,3.31-.35.6-.21.62.19.57.56-.13.87-.38,1.66-1.55,1.52-.35-.04-.72,0-1.3,0Z"/>
  <path class="cls-4" d="m25.76,127.95c-.07.35-.08.68-.2.97-.12.29-.35.58-.72.48-.35-.1-.47-.41-.43-.76.06-.55.13-1.1.19-1.66.03-.27-.05-.62.33-.66.31-.03.53.2.61.49.1.38.16.78.23,1.14Z"/>
  <path class="cls-5" d="m23.96,62.96c-.09.45-.04,1.14-.67,1.08-1.01-.11-.73-1.07-.82-1.71-.06-.42.02-1.02.64-.9.79.15.77.9.85,1.53Z"/>
  <path class="cls-2" d="m27.4,144.15c-.01.07-.04.35-.13.61-.12.33-.37.52-.74.43-.27-.06-.51-.33-.4-.5.46-.65-.49-1.53.34-2.06.28-.18.52.06.7.3.24.31.22.67.23,1.24Z"/>
  <path class="cls-2" d="m25.7,43.48c.01-.66-.03-1.24.67-1.2.66.04.75.63.78,1.16.03.57-.18,1.13-.81,1.08-.66-.06-.65-.68-.63-1.04Z"/>
  <path class="cls-10" d="m25.14,107.27c0,.72-.23,1.1-.8,1.17-.53.06-.77-.33-.66-.74.14-.53-.04-1.4.74-1.45.61-.04.57.72.72,1.02Z"/>
  <path class="cls-24" d="m24.98,68.65c0,.24.01.47,0,.71-.02.3-.15.56-.47.58-.35.03-.45-.24-.48-.54-.04-.43-.14-.86-.11-1.28.02-.36.01-.89.58-.85.52.04.5.51.5.91,0,.16,0,.31,0,.47,0,0,0,0-.01,0Z"/>
  <path class="cls-12" d="m24.82,112.01c.05-.57-.11-1.28.56-1.32.51-.03.7.61.71,1.09.01.51-.13,1.12-.76,1.14-.7.03-.36-.64-.5-.91Z"/>
  <path class="cls-8" d="m24.15,50c.4.1.74.35.73.79-.01.55-.11,1.16-.8,1.25-.36.05-.73-.23-.65-.66.09-.51.02-1.15.72-1.38Z"/>
  <path class="cls-9" d="m24.26,83.4c.07.69-.05,1.24-.71,1.36-.37.07-.59-.28-.44-.63.24-.58-.04-1.55.8-1.66.61-.08.24.67.35.93Z"/>
  <path class="cls-11" d="m23.05,76.62c.09-.46-.2-1.1.59-1.09.48,0,.76.41.7.79-.08.47-.18,1.12-.83,1.15-.62.03-.36-.57-.46-.86Z"/>
  <path class="cls-8" d="m23.91,96.53c-.49-.05-.61-.39-.6-.83,0-.41.03-.88.55-.86.47.02.79.38.77.88-.02.41-.2.77-.72.81Z"/>
  <path class="cls-24" d="m24.84,90.02c.61-.02.71.43.75.87.03.32-.01.69-.45.68-.51,0-.79-.32-.86-.81-.06-.41.1-.7.56-.75Z"/>
  <path class="cls-3" d="m134.95,49.85c.41.13.72.36.6.77-.19.66-.2,1.33-.34,1.98-.12.57-.46.44-.76.1-.38-.43-.31-2.22.11-2.61.11-.11.26-.17.38-.25Z"/>
  <path class="cls-25" d="m136.8,120.66c0-.52-.06-1.24.64-1.18.96.08.65,1.04.76,1.65.08.4.03,1-.61.92-.78-.1-.8-.76-.79-1.38Z"/>
  <path class="cls-2" d="m131.08,33.86c.08-.33.12-.69.27-1,.11-.23.32-.46.66-.34.35.11.65.45.42.68-.58.58.56,1.47-.39,1.88-.31.13-.63-.02-.74-.39-.08-.26-.14-.53-.21-.83Z"/>
  <path class="cls-6" d="m136.97,114.91c-.13.47.23,1.3-.56,1.33-.66.02-.59-.74-.56-1.24.03-.51-.21-1.33.5-1.39.84-.07.51.79.62,1.3Z"/>
  <path class="cls-24" d="m135.27,78.56c-.1.38.1,1.07-.64,1-.61-.06-.75-.61-.72-1.18.02-.54.07-1.16.74-1.1.67.06.6.73.61,1.29Z"/>
  <path class="cls-6" d="m133.56,65.45c-.09-.8.33-1.09.81-1.15.41-.04.8.27.64.75-.19.56-.05,1.49-.88,1.49-.56,0-.44-.82-.57-1.09Z"/>
  <path class="cls-14" d="m137.91,98.71c.41.1.63.28.47.68-.23.6-.09,1.52-.83,1.68-.56.12-.42-.61-.43-1-.02-.62.15-1.16.78-1.37Z"/>
  <path class="cls-11" d="m138.16,106.99c-.02.47.03,1.01-.58,1.01-.5,0-.8-.4-.72-.89.07-.46.24-1.04.79-1.07.68-.04.45.59.52.95Z"/>
  <path class="cls-7" d="m136.79,132.37c-.14.44-.13,1.1-.86,1.03-.45-.04-.68-.44-.59-.89.1-.51.23-1.08.9-1.06.52.02.59.45.55.92Z"/>
  <path class="cls-3" d="m137.44,92.75c-.02.43-.13.75-.59.76-.67,0-.71-.55-.74-.99-.02-.33.14-.74.62-.67.51.07.67.48.71.9Z"/>
  <path class="cls-28" d="m137.27,87.85c.06-.45.21-.8.72-.81.58-.01.62.45.61.83-.01.33-.01.81-.5.82-.51,0-.75-.36-.83-.83Z"/>
  <path class="cls-27" d="m77.31,152.85c1.26-.17,2.39.03,3.23,1.1.31.4.85.83.13,1.25-.62.37-1.4,1.27-2.05.34-.78-1.12-1.59-1.16-2.64-.65-.64.31-1.24.25-1.5-.43-.28-.72.15-1.23.82-1.49.65-.26,1.34-.07,2.01-.12Z"/>
  <path class="cls-30" d="m79.7,147.78c-.21.66.24,1.52-.44,2.18-.27.26-.5.53-.91.33-.31-.15-.55-.43-.47-.76.26-1.06.07-2.13.19-3.19.07-.64.39-1.12,1.03-1.07.59.05.62.62.61,1.12,0,.44,0,.87,0,1.39Z"/>
  <path class="cls-30" d="m64.06,154.84c-.48-.51-1.04-1.11-.67-1.6.58-.78,1.67-.65,2.53-.62,1.04.04,1.86.62,2.2,1.7.1.33.39.71,0,.97-.41.27-.83.16-1.15-.26-.19-.25-.39-.5-.61-.73-1.18-1.17-1.61-1.09-2.31.53Z"/>
  <path class="cls-24" d="m68.18,147.65c-.43-.13-.84-.36-.66-.83.31-.81.61-1.66,1.19-2.33.27-.31.61-.39.96-.14.28.2.48.52.3.83-.46.79-.98,1.55-1.49,2.31-.06.09-.2.11-.3.17Z"/>
  <path class="cls-1" d="m92.69,151.34c.25,0,.45-.03.64,0,.77.14,1.42.65,1.51,1.34.1.78-.76,1.1-1.38,1.23-.8.17-1.65.17-2.43-.27-.42-.24-.82-.45-.8-1.05.02-.55.4-.71.78-.93.54-.32,1.12-.36,1.67-.32Z"/>
  <path class="cls-30" d="m52.99,151.31c-.63.09-.92-.19-.88-.8.05-.78.47-1.36,1.26-1.26,1.04.13,1.83.76,2.23,1.75.24.59-.12.98-.59,1.27-.49.29-.72-.05-.93-.42-.24-.43-.48-.87-1.08-.55Z"/>
  <path class="cls-30" d="m107.06,145.82c-.52-.02-.92.03-1.3-.17-.38-.2-.72-.44-.6-.91.17-.64.57-.09.86-.11.24-.01.48.03.71.02.25-.01.49-.09.51-.39.02-.32-.22-.35-.47-.42-.36-.1-.96-.01-1-.43-.05-.55.5-.88.95-1.12.68-.37,1.33-.38,1.97.21.64.59.49,1.14.2,1.82-.38.92-.81,1.67-1.85,1.51Z"/>
</svg>