<?xml version="1.0" encoding="UTF-8"?>
<svg id="_レイヤー_1" data-name="レイヤー 1" xmlns="http://www.w3.org/2000/svg" viewBox="0 0 182.12 213.12">
  <defs>
    <style>
      .cls-1, .cls-2, .cls-3, .cls-4, .cls-5, .cls-6, .cls-7, .cls-8, .cls-9, .cls-10, .cls-11, .cls-12, .cls-13, .cls-14, .cls-15, .cls-16, .cls-17, .cls-18, .cls-19, .cls-20, .cls-21, .cls-22, .cls-23, .cls-24, .cls-25, .cls-26 {
        stroke-width: 0px;
      }

      .cls-2 {
        fill: #f9bd00;
      }

      .cls-3 {
        fill: #5b2418;
      }

      .cls-4 {
        fill: #405d1f;
      }

      .cls-5 {
        fill: #080807;
      }

      .cls-6 {
        fill: #ce6307;
      }

      .cls-7 {
        fill: #e28d34;
      }

      .cls-8 {
        fill: #ca3211;
      }

      .cls-9 {
        fill: #ae541b;
      }

      .cls-10 {
        fill: #aac00b;
      }

      .cls-11 {
        fill: #b94101;
      }

      .cls-12 {
        fill: #b84000;
      }

      .cls-13 {
        fill: #7c9e1a;
      }

      .cls-14 {
        fill: #fff;
      }

      .cls-15 {
        fill: #e7c58a;
      }

      .cls-16 {
        fill: #e7c488;
      }

      .cls-17 {
        fill: #e7c489;
      }

      .cls-18 {
        fill: #f2984f;
      }

      .cls-19 {
        fill: #f29700;
      }

      .cls-20 {
        fill: #e95404;
      }

      .cls-21 {
        fill: #030302;
      }

      .cls-22 {
        fill: #030303;
      }

      .cls-23 {
        fill: #040404;
      }

      .cls-24 {
        fill: #010101;
      }

      .cls-25 {
        fill: #010100;
      }

      .cls-26 {
        fill: #020201;
      }
    </style>
  </defs>
  <path class="cls-13" d="m125.42,99.21c-1.56-.69-3.08-1.46-4.54-2.36-.95-.59-2.13-.84-3.24-1.13-4.83-1.28-9.21-3.48-13.25-6.38-.93-2.26-3.56-3.87-2.72-6.81.54-1.89,1.44-3.62,3-4.88,1.17-.95,1.62-.85,2.57.31.85,1.04,2.23,1.38,3.15.78.34-.22.69-.43.61-.93-.08-.44-.4-.53-.78-.6-2.08-.39-4.58-3.85-4.41-5.93.31-3.78,4.27-6.56,7.34-5.7,1.94.55,3.84,1.25,5.71,2.03,2.48,1.03,4.95,2.11,7.54,2.91,2.52.78,4.93,1.98,7.17,3.42,1.14.73,2.49.83,3.65,1.44.77.18,1.24.89,1.99,1.11,3.1,1.14,5.84,2.99,8.42,4.92,2.61,1.95,5.39,3.63,7.95,5.61,1.91,1.48,3.73,3.08,5.41,4.84,1.53,1.6,1.32,3.68.31,5.84-.78,1.68-2.34,2.36-3.77,3.16-1.46.81-2,1.94-1.95,3.5.06,1.75-.25,3.33-1.31,4.84-1.53,2.18-4.22,2.92-6.92,1.92-4.54-1.68-8.48-4.38-12.33-7.16-1.88-1.36-3.93-2.16-6.02-2.99-.63-.25-1.24-.54-1.86-.81-.63-.21-1.03-.84-1.72-.94Z"/>
  <path class="cls-13" d="m32.93,136.75c.01-.75-.34-.99-1.1-.97-1.92.05-3.87.25-5.75-.03-4.44-.66-8.96,0-13.37-1.02-1.23-.28-2.49-.42-3.73-.72-2.25-.55-3.08-2.41-3.43-4.66-.31-2,.86-3.54,1.66-5.14.67-1.35.39-2.41-.26-3.58-.66-1.2-1.49-2.28-1.55-3.81-.08-1.98.54-3.57,1.77-5.02.76-.9,1.9-.98,2.9-1.24,4.9-1.25,9.9-.89,14.87-.56,1.74.12,3.37-.11,5.03-.46.78-.16,1.56-.32,2.34-.48.73-.18,1.47-.15,2.21-.06,4.01-.49,8-.9,11.93-2.01,3.99-1.13,8.17-1.27,12.32-.85,1.63,1.72,4.84,1.51,5.47,4.45.4,1.84.64,3.69-.02,5.51-.54,1.49-.91,1.61-2.44,1.08-1.23-.42-2.63.15-3.09,1.23-.13.3-.24.55,0,.88.24.35.53.34.83.24,2.24-.73,4.23.08,5.96,1.27,1.68,1.15,2.08,3.15,1.78,5.03-.46,2.79-2,4.8-4.99,5.41-2.68.55-5.34,1.14-8.06,1.44-.75.08-1.48.29-2.22.46-3.36.79-6.73,1.45-10.23,1.48-1.89.02-3.73.7-5.65.69-.73,0-.29.72-.58.99-.55-.63-1.5-.64-2.13-.02-.16.15-.17.45-.47.46Z"/>
  <path class="cls-9" d="m34.57,78.64c.36.67-.33,1.71.39,2.05.6.28,1.5.05,2.23-.12,3.26-.78,6.63-.71,9.91-1.63,3.47-.97,7.12-1.1,10.61.31,2.62,1.06,4.36,3.15,5.95,5.36,1.38,1.91,2.39,4.01,2.77,6.37.15.36-.06.63-.27.86-2.13,2.3-4.34,4.48-7.41,5.52-1.4.47-2.61,1.42-4.05,1.8-4.27,1.12-8.5,2.36-12.98,2.6-3.08.16-6.19-.2-9.21.26-3.68.56-7.33.24-10.99.39-1.21.05-2.38-.09-3.56-.38-3.18-.79-6.36-1.54-9.43-2.74-1.52-.59-2.88-1.37-4-2.54-.99-1.91-.96-3.96-.9-6.02.17-5.7,3.68-9.4,9.58-9.53,2.55-.06,5.12-.24,7.63-.2,3.06.05,6.22-.22,9.25.66.84.24,1.65,0,2.45-.24,1.08-.28,1.86-.8,1.67-2.11-.04-.25.03-.56.35-.67Z"/>
  <path class="cls-6" d="m30.12,29.48c-2.65.17-5.28.76-7.96.31-.78-.13-1.48.63-2.31.4-.89-.24-1.79-.34-2.72-.34-5.04,0-9.71-1.42-13.86-4.18C-.31,23.27-.9,19.88,1.25,16.36c.69-1.14,2.08-1.9,3.52-2.05,2.61-.28,5.23-.46,7.85-.63,1.1-.07,1.82.61,1.53,1.59-.32,1.1-.03,2.22-.33,3.3-.23.8.22,1.11.88,1.24.78.16,1.16-.31,1.16-.98,0-1.24.29-2.45.35-3.68.05-1.11.72-1.24,1.5-1.18,1.03.08,2.05.28,3.07.46,1.08.19,1.63,1.09,1.44,2.36-.12.83-.34,1.64-.44,2.47-.08.68.12,1.39.88,1.47.78.08.85-.63.95-1.25q.6-3.74,4.34-3.07c.27.05.55.06.83.09.85-.28,1.66-.3,2.4.3.61.36.65.95.68,1.56.03.8.03,1.6.14,2.39.1.67.08,1.56,1.22,1.29,1-.24,1.29-1.05,1.04-1.82-.28-.89-.13-1.71-.15-2.57-.03-1.01.5-1.48,1.29-1.76,1.3-.46,2.62-.91,3.96-1.24,1.72-.42,2.37,0,2.94,1.69.16.49.2,1.03.41,1.5.26.6.76,1.01,1.43.7.59-.27.69-.75.39-1.39-.47-1.01-.44-2.17-.96-3.19-.28-.54.01-1.12.57-1.41,1.55-.81,3.11-1.62,4.69-2.36.56-.26,1.04-.09,1.35.57.49,1.01.92,2.04,1.07,3.15.06.43.21.75.51,1.04.38.37.79.58,1.28.3.48-.27.58-.73.43-1.24-.43-1.4-.84-2.81-1.32-4.19-.2-.57-.23-1,.38-1.3,2.64-1.31,5.28-2.62,8.33-2.67,1.41-.02,3.11.24,3.81,2.18.48,1.33,1.48,2.36,2.16,3.58.5.9.66,1.75.27,2.72-.81,1.99-1.49,4.02-2.85,5.75-.84,1.07-1.9,1.78-3.01,2.5-3.13,2.04-6.45,3.61-10.07,4.57-3.75,1-7.58,1.28-11.41,1.64-1.82.17-3.65.44-5.47.43-1.34,0-2.03.32-1.86,1.75-.33-1.17-1.24-1.44-2.31-1.46Z"/>
  <path class="cls-16" d="m103.08,144.73c3.2,1.49,5.94,3.62,8.66,5.86,2.79,2.3,4.35,5.26,5.55,8.47.93,2.48.88,5.17.93,7.8.05,2.93-.34,5.81-1.11,8.64-.52,1.91-.85,1.99-2.63,1.21-3.75-1.63-7.41-3.45-11.32-4.69-.64-.2-1.25-.54-1.82-.9-1.5-.96-3.22-1.35-4.83-2.02-.84-.35-1.17-.95-1.28-1.83-.25-2.04-1.02-3.85-3.06-4.66-1.92-.76-3.93-1.21-5.74.35-.33.29-.58.24-.96.14-1.68-.43-3.05-1.44-4.33-2.48-1.6-1.29-3.63-1.61-5.29-2.7-.16-.1-.4-.08-.56-.19-2.59-1.68-5.68-2.29-8.31-3.91-.77-.48-.82-.86-.51-1.63.97-2.4,3.02-3.87,4.72-5.65,2.97-3.11,6.57-4.87,10.88-5.47,4.46-.62,8.83-.07,13.22.37,1.35.14,2.45.93,3.6,1.56.7.39,1.41.74,2.21.89.67-.1,1.15.35,1.72.55.11.06.2.14.26.26Z"/>
  <path class="cls-16" d="m34.09,50.52c.11.97.65,1.22,1.58,1.14,2.69-.24,5.27.52,7.9.92,3.91.59,7.01,2.63,9.73,5.22,1.92,1.83,3.19,4.26,4.47,6.62,1.24,2.3,2.08,4.74,2.78,7.24.07.27.11.55.13.82.09,1.66-.04,1.7-1.67,1.82-4.11.29-8.24.48-12.3,1.28-.08.02-.15.06-.23.06-2.44-.1-4.84.24-7.25.52-.65.08-1.1-.13-1.52-.68-.77-1.01-1.68-1.85-2.81-2.52-1.97-1.17-6.61.3-7.21,2.49-.17.62-.55.79-1.15.76-1.98-.11-3.98-.15-5.95-.26-1.67-.09-3.46.26-5.2.3-3.1.06-6.15.82-9.27.65-.76-.04-1.12-.33-1.13-1.05-.02-.88-.18-1.82.06-2.62,1.26-4.13,2.1-8.42,5.09-11.86,1.94-2.23,4.38-3.72,6.82-5.18,2.73-1.63,5.77-2.69,8.71-3.91.21-.09.47-.1.7-.1,1.83,0,3.67.04,5.48-.29.75-.45,1.75-.48,2.24-1.37Z"/>
  <path class="cls-9" d="m81.67,123.81c-.97-1-.83-2.14-.4-3.31.99-2.73,2.61-4.97,5.1-6.53,1.08-.68,2.26-.91,3.52-.92,2.7-.04,5.05,1.05,7.49,2.03,5,2.01,9.66,4.65,14.38,7.19.21.11.43.21.68.12.65.41,1.34.74,1.93,1.24,1.57.95,3.25,1.63,4.94,2.33,2.41,1,4.98,1.65,7.27,2.92,1.1.61,2.34.69,3.46,1.26,1.56.79,2.86,1.88,4.09,3.04.76.72,1.32,1.72.74,2.88-.23.45-.38.96-.03,1.35,1,1.14.94,2.5.81,3.85-.17,1.87-.6,3.68-1.44,5.37-.23.46-.5.91-1.02,1.12-.72-.07-1.39-.36-2.09-.5-1.92-.39-3.81-.71-5.81-.5-2.78.29-5.46-.42-8.15-1.12-5.4-1.4-10.33-3.87-14.97-6.83-3.4-2.17-6.66-4.56-10.31-6.28-2.11-1-3.93-2.3-5.41-4.05-1.01-1.18-1.97-2.41-2.96-3.62-.48-.59-1.04-.97-1.8-1.04Z"/>
  <path class="cls-2" d="m144.29,123.89c-1.35,1.82-2.89,3.43-4.91,4.56-.73.41-1.28.18-1.87-.19-.45,0-.72-.33-1-.6-2.79-2.63-5.84-4.94-9.09-6.98-1.31-.82-2.57-1.75-3.97-2.44-1.62-.78-3.17-1.69-4.42-3.02-.25-.26-.53-.52-.88-.61-3.25-.83-6.13-2.64-9.43-3.41-3.34-.78-6.68-1.56-10.08-2.01-.55-.07-1.12-.11-1.56-.52-1.89-.67-1.92-.67-1.84-2.78.09-2.25.01-4.52.43-6.75.09-.46.14-.94.42-1.34.35-.64.96-.5,1.49-.42,4.22.66,8.4,1.5,12.48,2.85,3.2,1.06,6.08,2.7,8.83,4.5,2.01,1.31,3.98,2.66,6.13,3.71,1.9.92,3.7,1.99,5.54,3,4.94,2.71,9.05,6.4,12.84,10.48.49.53,1.17,1.05.89,1.96Z"/>
  <path class="cls-1" d="m32.93,136.75c.29-.35-.21-1.18.78-1.12.53.03,1.07-.21,1.65-.33.05.34.11.68.16,1.02-.08,1.35-.18,2.67.19,4.03.21.77,0,1.66-.04,2.49-.16,3.21.57,6.41.14,9.63-.09.63-.09,1.26-.37,1.86-.3.63-.4,1.34-.17,1.98.38,1.06.41,2.15.25,3.19-.33,2.14.7,3.34,2.46,4.2,3.76,1.84,5.88,5.2,7.53,8.76,1.16,2.52-.22,4.77-1.96,6.79-2.37,2.75-5.43,4.26-8.8,5.19-1.89.52-3.87.15-5.78-.13-1.08-.16-2.14-.56-3.2-.89-4.25-1.36-5.96-4.79-6.41-8.68-.32-2.75.54-5.47,2.98-7.53,2.94-2.48,6.14-4.23,9.93-4.85.77-.13,1-.39.82-1.26-.45-2.17.03-4.37-.01-6.55-.04-2.49.33-4.95.03-7.47-.29-2.39-.06-4.86.08-7.29.06-1.05-.64-2-.27-3.05Z"/>
  <path class="cls-1" d="m91.09,166.37c-.24.95-.93,1.66-1.38,2.5-2.32,4.29-4.92,8.45-6.9,12.88-1.51,3.37-3,6.73-4.7,10-.65,1.25-.26,2.34.89,3.26,1.67,1.34,3.1,2.91,3.94,4.87.97,2.29.27,4.69-.27,6.92-1.59,6.5-7.13,7.02-11.21,5.8-1.32-.4-2.65-.8-3.92-1.38-2.16-.99-3.8-2.57-5.38-4.26-2.25-2.42-2.44-5.04-1.37-8.14,1.36-3.95,4.28-5.72,8-6.6,1.36-.32,2.77-.12,4.14.19,2.09.46,2.18.49,3.07-1.37,1.67-3.47,3.32-6.95,4.93-10.45.96-2.1,2.42-3.86,3.37-5.94.95-2.06,2.12-4.03,3.28-5.99.59-1,1.16-2,1.69-3.03.92-.5,1.41.05,1.83.75Z"/>
  <path class="cls-4" d="m32.8,33.5c2.32.23,4.57-.64,6.87-.5,4,.23,7.99.58,11.98,1.04,3.34.39,6.48,1.52,9.75,2.14.69.13,1.33.51,1.98.82.89.42,1.59.91,1,2.1-.88,1.79-1.46,2.21-2.77,1.73-.23-.08-.43-.2-.68-.14-.86.55-1.72.11-2.55-.04-3.73-.65-7.4-1.3-11.27-.94-3.44.32-6.93.16-10.41-.06-2.97-.19-6-.39-8.93.51-.35.11-.71.15-1.07.12-4.48-.33-8.71.82-12.92,2.11-2.78.85-5.65,1.49-8.12,3.16-.2.13-.44.19-.69.15-1.62.01-1.9-.19-2.38-1.73-.76-2.44-.68-2.66,1.52-3.96,2.13-1.26,4.41-2.1,6.78-2.83,1.96-.6,3.94-1.12,5.93-1.59,1.6-.38,3.31-.27,4.93-.7,2.47-.67,5-.76,7.53-.83.69-.02.98-.28.98-1.01,0-.74-.21-1.5.14-2.22.45.4.35.95.33,1.45-.04.84.19,1.31,1.14,1.12.31-.06.63.01.94.11Z"/>
  <path class="cls-2" d="m4.96,45.68c2.77-2.22,6.2-2.81,9.45-3.81,2.28-.7,4.58-1.32,6.93-1.75,1.27-.23,2.55-.02,3.82-.15,3.76-.36,7.5-1,11.3-.68,3.31.28,6.62.09,9.92.14.91.01,1.83-.08,2.74-.15,3.54-.26,6.94.66,10.38,1.24.47.08.95.11,1.42.16.15.24.25.48.1.78-.99,2-2.09,3.92-3.38,5.76-.83,1.19-1.8.57-2.74.63-1.03.01-1.88-.61-2.82-.88-2.89-.83-5.87-1.42-8.84-1.36-4.09.08-8.11-.7-12.19-.55-2.99.11-5.95.48-8.91.91-2.57.38-5.11.88-7.57,1.74-2.05.71-4.03,1.54-5.82,2.78-.32.22-.61.53-1.07.45-1.01.02-1.59-.49-1.84-1.45-.33-1.26-1.11-2.42-.88-3.82Z"/>
  <path class="cls-18" d="m126.99,66.78c-3.86-.63-7.29-2.4-10.36-4.63-2.02-1.47-2.91-3.94-2.5-6.59.88-5.7,5.06-8.42,10.23-9.6,2.7-.62,5.37-.42,8.03.23.46.86.45,1.69-.1,2.51-.76.34-1.49-.03-2.23-.12-.44-.05-.97-.15-1.16.34-.23.57.4.68.72.92.89.66,2.07.83,2.88,1.65.03,2.05-.39,4.02-1.13,5.93-.16.41-.42.78-.47,1.22-.32,2.74-1.81,4.99-3.08,7.33-.19.35-.42.68-.83.82Z"/>
  <path class="cls-4" d="m144.29,123.89c-.64-1.66-2.02-2.76-3.24-3.91-3.38-3.2-6.98-6.08-11.08-8.41-3.1-1.77-6.51-3-9.35-5.14-2.34-1.77-4.88-3.12-7.43-4.49-2.14-1.15-4.46-1.84-6.82-2.39-2.91-.67-5.81-1.39-8.77-1.79-.52-.07-1.02-.2-1.52.06-.93-.34-1.05-1.01-.92-1.91.34-2.38.54-2.71,2.9-2.44,3.9.45,7.73,1.17,11.43,2.64,1.96.78,3.87,1.79,6,2.17,1.06.19,1.94.91,2.9,1.4,1.77.9,3.43,2.02,5.29,2.76,1.01.6,1.78.45,2.28-.68.08-.18.27-.28.49-.29,0,.08.04.17,0,.23-.82,1.93-.81,1.92,1.03,2.94,1.31.73,2.65,1.37,3.67,2.59.88,1.05,2.31,1.49,3.4,2.39,2.18,1.79,4.43,3.49,6.61,5.28,2.1,1.72,3.71,3.79,5.18,6,.45.68.49,1.44-.03,2.12-.5.66-1.09,1.19-2.03.88Z"/>
  <path class="cls-3" d="m4.53,96.75c.15,0,.37-.08.45,0,2.72,2.56,6.33,3.01,9.66,4.15,5.1,1.75,10.38,1.42,15.55,1.07,3.18-.22,6.36-.16,9.54-.38,2.57-.18,5.25-.11,7.68-.82,3.64-1.06,7.38-1.78,10.89-3.47,3.24-1.57,5.83-3.67,8.12-6.3.87-.02,1.19.52,1.03,1.24-.8,3.61-2.18,7-5.85,8.46-2.62,1.04-5.34,1.93-8.1,2.65-3.3.85-6.64.83-9.98.87-3.02.04-6.04.04-9.03.53-1.53.52-1.52.52-1.63,2.2-.03.4.12.91-.46,1.1,0-.8-.04-1.6,0-2.39.04-.74-.27-.92-.93-.72-5.09,1.49-10.34,1.4-15.5.99-2.91-.23-5.95-1.08-8.35-3.12-1.28-1.09-2.23-2.48-3.09-3.91-.38-.64-.53-1.42,0-2.13Z"/>
  <path class="cls-3" d="m81.67,123.81c.59-.64,1.05-.31,1.49.19.9,1.06,1.93,2.04,2.68,3.2,1.16,1.8,2.79,3.09,4.49,4.21,1.09.72,2.39,1.23,3.61,1.81,4.02,1.89,7.3,4.97,11.26,6.94,2.24,1.11,4.4,2.33,6.74,3.28,2.62,1.07,5.32,1.75,8,2.53,2.03.59,4.16.61,6.28.37,2.28-.27,4.39.54,6.57.98.16.03.27.28.41.42.01.46-.1.87-.46,1.18-1.74,1.46-3.46,2.95-5.6,3.8-1.07.43-2.2.27-3.3,0-2.55-.62-4.85-1.8-7.06-3.16-2.06-1.27-4.51-1.51-6.57-2.82-1.68-1.07-3.05-2.52-4.84-3.47-1.03-.55-1.4-.56-1.79.47-.13.33-.32.64-.48.96,0,0-.07-.07-.07-.07l-.09-.04c-.11-.23-.08-.49.05-.67.77-1.04.45-1.85-.5-2.54-1.01-1.08-2.35-1.82-3.67-2.15-2.27-.58-4.12-1.9-6.18-2.82-2.64-1.18-5.19-2.56-7.6-4.21-2.79-1.9-4.11-5-3.35-8.4Z"/>
  <path class="cls-20" d="m126.99,66.78c.95-2.09,2.47-3.93,3.05-6.18.79-3.05,2.15-5.96,2.25-9.17.74-.47,1.54-.19,2.31-.18.47,0,1.04.21,1.23-.39.21-.63-.34-.9-.79-1.17-.62-.37-1.24-.7-1.99-.75-.31-.02-.65-.01-.84-.34.24-.79.13-1.6.16-2.41,3.13.7,6.36,1.1,9.14,2.88.3.35.22.75.1,1.12-.23.71-.14,1.38.16,2.05-.83.59-1.43-.54-2.29-.25.35.57.99.68,1.47,1.02.5.35,1.2.46,1.41,1.17-1.46-.06-1.64.97-1.86,2.07-.3,1.49-.8,2.93-1.51,4.28-.34.64-.46,1.36-.63,2.06-.57,2.27-1.86,4.03-3.8,5.33-2.48-.7-5.08-.53-7.57-1.12Z"/>
  <path class="cls-20" d="m151.08,54.85c1.47,1.07,2.7,2.47,4.38,3.25,1,.47,1.6,1.4,2.45,2.04.35,1.28-.31,2.35-.8,3.42-1.62,3.52-3.45,6.93-5.57,10.19-.26.4-.53.81-1.03.97-1.86-1.78-4.28-2.63-6.44-3.93-.32-.19-.64-.31-1.01-.21-.56-.15-1.31.01-1.42-.87.57-1.25,1.46-2.29,2.41-3.25.65-.66,1.21-1.37,1.63-2.19,1.4-2.72,3.18-5.27,3.83-8.34.1-.47.35-.89.75-1.2.3-.18.56-.09.8.11Z"/>
  <path class="cls-18" d="m150.42,54.74c-1.06,3.12-2.38,6.11-3.98,9-1.29,2.33-3.32,4.01-4.77,6.17-.27.1-.52.1-.72-.14-2.08-.78-4.22-1.37-6.39-1.87.99-1.44,2.67-2.43,3.09-4.19.72-2.98,2.4-5.65,2.8-8.72.15-1.12.41-1.65,1.53-.85.08.06.23,0,.35,0,.52-.22.9.17,1.35.28.23.06.51.14.65-.09.18-.29-.01-.53-.23-.72-.27-.24-.62-.34-.95-.47-.55-.21-1.15-.34-1.45-.94-.51-.26-.68-.65-.53-1.23.17-.63.24-1.28.36-1.92,2.57,1.32,5.08,2.74,7.27,4.66.74.03,1.36.24,1.62,1.02Z"/>
  <path class="cls-19" d="m7.68,50.95c2-1.8,4.47-2.68,6.93-3.62,2.93-1.12,6.01-1.64,9.04-1.98,4.47-.5,8.97-1.18,13.54-.25,2.03.42,4.23-.04,6.34.13,3.48.28,6.96.67,10.25,1.96.4.16.75.44,1.13.66.13,1.59-1.09,2.44-2.67,1.69-2.95-1.39-6.09-2.09-9.24-2.73-2.69-.55-5.48-.38-8.22-.13-.48.04-1,.25-1.37.66.05.09.01.2-.03.18-.97-.61-1.61-.15-2.14.65.1-.96-.31-1.02-1.15-.82-4.67,1.12-9.39,1.97-13.97,3.51-2.18.74-4.58.87-6.78,1.72-1.21.47-1.84-.22-1.66-1.64Z"/>
  <path class="cls-8" d="m167.53,95.69c-1.21-.5-1.54-1.54-1.56-2.63-.02-1.71.51-3.37.52-5.1,0-.57.37-1.1.92-1.44,1.77-1.11,2.95-2.61,3.26-4.75.13-.91.68-1.19,1.65-1,1.21.24,2.14.82,3.15,1.5,1.88,1.26,3.48,2.87,5.41,4.04,1.58.96,1.66,2.97.16,4.01-.61.42-1.29.18-1.72-.34-1.06-1.29-2.58-2.14-3.37-3.68-.34-.65-.88-.7-1.52-.41-.68.31-.52.82-.33,1.32.8,2.06,1.51,4.14,1.78,6.35.08.71.15,1.5-.59,1.77-.73.27-1.3-.36-1.63-.93-.74-1.27-1.11-2.71-1.58-4.1-.26-.76-.48-1.52-1-2.15-.31-.38-.66-.58-1.14-.36-.54.24-.59.67-.46,1.19.38,1.54,1.15,2.99.91,4.66-.14.94-.4,1.79-1.33,2.25-.56.28-1.09.15-1.53-.2Z"/>
  <path class="cls-19" d="m97.08,108.68c2.7.45,5.45.56,8.1,1.33,2.24.65,4.55,1.07,6.79,1.71,1.41.4,2.55,1.52,4.02,1.79,1.97.36,3.45,1.47,4.83,2.84.55.54,1.36.82,2.07,1.19,3.26,1.74,6.33,3.8,9.29,5.97,1.9,1.39,3.79,2.89,5.33,4.73-.09.53-.31,1.01-.77,1.3-.57.35-1.17.59-1.66-.13-1.28-1.89-3.05-3.37-4.7-4.87-1.44-1.31-3.08-2.52-4.76-3.55-2.55-1.56-5.26-2.87-7.9-4.29-1.67-.7-2.27.41-2.85,1.64-.39.82-.84,1.62-1.31,2.39-.23.38-.38.91-.99.86.88-1.66,1.76-3.31,2.65-4.97.2-.37.38-.63-.2-.92-2.93-1.46-6-2.52-9.23-3.08-2.28-.39-4.61-.31-6.89-.71-1.63-.29-2.45-1.68-1.82-3.25Z"/>
  <path class="cls-20" d="m158.84,81.45c-1.56-1.31-3.11-2.62-4.67-3.93.74-1.27,1.65-2.42,2.66-3.47.7-.73,1.3-1.49,1.77-2.37,1.02-1.89,1.97-3.81,3.28-5.53.26-.34.43-.78.9-.9,1.5,1.66,2.74,3.54,4.32,5.14.55.56.59,1.44.74,2.21-.03.28-.08.56-.27.78-2.28,2.66-4.45,5.4-7.09,7.73-.45.4-.95.96-1.65.34Z"/>
  <path class="cls-18" d="m162.79,65.25c-1.63,2.5-2.88,5.24-4.58,7.67-1.15,1.64-2.38,3.34-4.03,4.6-1.22-.93-2.43-1.87-3.65-2.8,1.72-2.44,3.03-5.12,4.48-7.72,1.22-2.18,2.36-4.4,2.91-6.86,1.77,1.56,3.48,3.19,4.87,5.11Z"/>
  <path class="cls-18" d="m158.84,81.45c.42.17.73.04,1.06-.26,2.12-1.9,4.1-3.92,5.81-6.2.64-.85,1.42-1.59,2.13-2.38.33.73.56,1.5.57,2.31.01.82.1,1.59.71,2.21.11.11.17.27.22.42.55,1.53-.76,5.87-2.07,6.81-1.32.95-2.61,1.26-4.2.33-1.56-.92-2.95-1.99-4.24-3.23Z"/>
  <path class="cls-24" d="m31.17,16.79c-.8-.09-1.64.11-2.4-.3-.31-1.48-.43-3.05-.36-4.48.12-2.28-.36-4.61.49-6.88.42-1.13.32-2.43.32-3.66,0-.65-.07-1.48.92-1.48.94,0,1.1.7,1.12,1.5.05,3.5-.29,6.98-.57,10.46-.14,1.68.36,3.22.48,4.83Z"/>
  <path class="cls-24" d="m150.42,54.74c-.54-.34-1.08-.68-1.62-1.02,1.03-2.05,2.31-3.98,2.93-6.22.19-.68.71-.79,1.18-.68.56.13,1.15.45,1.07,1.21-.09.82-.19,1.63-.6,2.39-.79,1.47-1.72,2.86-2.31,4.42-.22-.04-.44-.07-.66-.11Z"/>
  <path class="cls-23" d="m112.57,121.61c.87-1.56,1.8-3.08,2.57-4.68.5-1.05,1.01-1.41,1.99-.6.18.15.39.26.59.39-.17,1.05-.71,1.84-1.49,2.61-1.15,1.14-1.07,2.93-1.86,4.3-.8-.18-1.61-.32-1.93-1.24.04-.26.09-.52.13-.78Z"/>
  <path class="cls-21" d="m140.95,69.77c.24.05.48.09.72.14.36.45,1.11.09,1.4.67-.93.62-1.35,1.63-1.9,2.53-.69,1.11-1.32,2.26-1.97,3.39-1.04.3-1.38-.64-1.99-1.11,1.38-1.21,1.81-3.05,2.93-4.44.3-.37.54-.78.81-1.17Z"/>
  <path class="cls-23" d="m31.24,48.18c.12-1.33.96-1.65,2.17-.82.45,1.01.04,2.2.68,3.17.08.8-.08,1.34-1.08,1.21-.37-.05-.77.1-1.16.15-.39-1.21-.02-2.54-.62-3.71Z"/>
  <path class="cls-26" d="m34.57,78.64c-.03.31-.07.62-.07.94-.02,1.76-.07,1.81-1.95,1.85.1-.76-.06-1.48-.27-2.2-.14-.74-.02-1.49-.07-2.24-.03-.45-.09-.93.48-1.05.59-.13,1.26-.34,1.58.48-.11.77.28,1.47.3,2.22Z"/>
  <path class="cls-15" d="m34.27,76.41s-.06-.06-.1-.07q-1.91-.27-1.91,1.58c0,.43,0,.86.01,1.29-.42-.49-.21-1.07-.19-1.6.03-.84-.21-1.23-1.09-.93-.47.16-.97.32-1.22-.28-.24-.55.19-.9.55-1.2,1.51-1.25,3.19-1.22,4.36.02.67.71.57,1.08-.41,1.18Z"/>
  <path class="cls-17" d="m91.09,166.37c-.53-.45-1.13-.73-1.83-.75-.27-.07-.54-.13-.8-.2-.3-.08-.5-.28-.53-.58-.03-.34.16-.59.46-.77,1.3-.8,3.93.2,4.34,1.66.11.38.29.79-.05,1.12-.41.38-.72-.08-1.06-.2-.18-.07-.35-.18-.53-.28Z"/>
  <path class="cls-23" d="m32.8,33.5c-.59.42-1.3.11-1.95.34-.49.17-.39-.35-.4-.63-.03-.79-.04-1.59-.06-2.38,0-.47-.08-.92-.26-1.34.15-.03.3-.09.46-.1q1.7-.15,1.85,1.56c-.24.9-.09,1.75.37,2.56Z"/>
  <path class="cls-22" d="m32.42,108.04c.37-.58.16-1.22.17-1.82.04-1.62.15-1.73,1.92-1.48,0,1.43,0,2.85.01,4.28-.73.43-1.46.36-2.21.06.04-.35.07-.69.11-1.04Z"/>
  <path class="cls-25" d="m126.45,101.46c-.19.29-.39.58-.56.88-.75,1.34-1.08,1.35-2.21.1.58-1.07,1.16-2.15,1.73-3.22.93-.33,1.25.44,1.72.94-.23.43-.46.87-.69,1.3Z"/>
  <path class="cls-5" d="m102.47,141.4c1.44.44,1.67.9,1.04,2.06-.21.38-.4.77-.6,1.16-.69-.01-1.22-.44-1.82-.69.46-.84.91-1.68,1.37-2.52Z"/>
  <path class="cls-10" d="m119.05,89.76c.21.11.41.28.63.33,2.84.68,5.38,1.99,7.91,3.47,5.18,3.01,10.49,5.79,15.77,8.62,1.19.64,2.01,1.67,3.02,2.49.43.35.48.89.5,1.42.02.5-.3.73-.67.88-.37.15-.79.18-1.11-.16-2.01-2.14-4.52-3.56-6.99-5.1-3.39-2.12-6.87-4.09-10.45-5.81-4.92-2.36-9.79-4.94-15.2-6.09-.9-.19-.84-.92-.87-1.48-.04-.63.57-.72,1.06-.63,2.23.41,4.3,1.32,6.42,2.06Z"/>
  <path class="cls-10" d="m136.91,82.55c1.98,1.15,3.5,2.15,4.97,3.25.58.44.84,1.07.73,1.67-.12.66-.87.77-1.46.83-1.8.19-3.45-.07-4.9-1.35-.92-.8-2.02-1.4-3.08-2.03-.88-.52-1.38-1.32-1.74-2.21-.37-.94.01-1.44.99-1.32,1.7.21,3.46.23,4.49,1.16Z"/>
  <path class="cls-10" d="m150.49,93.51c-.79-.52-1.73-.8-2.43-1.49-.53-.52-.63-1.09-.49-1.74.15-.7.73-.89,1.34-1.03.76-.17,1.55-.14,2.25.13,1.61.63,3.42.84,4.72,2.16.11.11.28.16.39.28.58.61.93,1.41.82,2.18-.1.65-.98.55-1.52.71-1.9.57-3.52-.14-5.06-1.19Z"/>
  <path class="cls-10" d="m129.6,88.16c.33.18.47.26.61.33.56.3,1.33.6,1.04,1.37-.31.84-1.21.77-1.86.49-1.38-.61-2.85-1-4.2-1.63-1.27-.59-2.55-1.09-3.88-1.48-1.01-.3-1.55-1.04-1.19-1.78.46-.95,1.27-.87,2.04-.5,1.47.7,2.85,1.58,4.4,2.12,1.08.38,2.29.41,3.04,1.08Z"/>
  <path class="cls-10" d="m30.36,130.85c-4.02,0-7.02-.09-10.02.03-2.03.08-3.95-.31-5.89-.77-1.03-.25-1.54-1.12-1.18-1.95.22-.52.59-.77,1.13-.59,3.89,1.32,7.92,1.15,11.94,1.14,3.2-.01,6.39-.06,9.59.01,3.63.09,7.21-.54,10.81-.79,1.45-.1,2.89-.52,4.28-.97,1.03-.33,1.55.26,1.77.91.2.58-.41.96-1.08,1.12-2.31.56-4.71.73-7.01,1.23-5.13,1.12-10.27.29-14.36.62Z"/>
  <path class="cls-10" d="m35.1,116.93c-1.5,0-2.58.05-3.65-.02-.72-.05-1.47-.28-1.77-1.02-.31-.76.38-1.17.83-1.55,1.05-.87,2.2-1.55,3.66-1.48,1.9.09,3.82-.19,5.71.24.31.07.62.14.9.28.6.3,1.33.57,1.35,1.36.03.91-.89.87-1.43,1.2-1.87,1.13-3.95,1.08-5.6.98Z"/>
  <path class="cls-10" d="m23.93,116.71c-.15,1.14-1.28,1.64-2.35,1.95-1.84.53-3.72,1.11-5.7.68-.19-.04-.39-.07-.57-.15-1.64-.77-1.75-1.4-.44-2.66,1.19-1.15,2.55-1.85,4.27-1.75,1.03.06,2.07-.02,3.11.02,1.04.04,1.66.68,1.67,1.91Z"/>
  <path class="cls-10" d="m36.78,123.91c-.24,0-.48.01-.72,0-.55-.03-1.2.04-1.31-.72-.12-.81.44-1.25,1.11-1.26,1.96-.03,3.8-.81,5.74-.87,1.08-.03,2.15,0,3.18-.37,1.03-.38,1.6.34,1.84,1.05.24.71-.54,1.04-1.11,1.33-.1.05-.23.1-.34.1-2.83-.12-5.63.11-8.39.75Z"/>
  <path class="cls-3" d="m32.06,86.1c0,.36-.29.55-.51.78-.98.99-1.98,1.98-2.96,2.97-.78.79-1.02,1.61-.46,2.69.45.87,1.1,1.69,1.08,2.75,0,.32.03.67-.28.87-.39.24-.68-.07-.95-.27-.57-.44-1.03-.99-1.4-1.62-.43-.74-.91-.78-1.52-.17-.95.95-2.07,1.74-2.69,3-.41.84-1.13.89-1.8.46-.79-.5-.48-1.23,0-1.75,1-1.09,2.07-2.11,3.11-3.16,1.01-1.02,1.05-1.46.26-2.71-.11-.17-.21-.34-.32-.51-.35-.59-.58-1.2.08-1.7.62-.47,1.2-.27,1.68.3.79.94,1.51.78,2.29-.07.89-.97,1.94-1.77,3.08-2.45.61-.36,1.32,0,1.34.6Z"/>
  <path class="cls-3" d="m43.47,95.21c-.41-.16-.7-.49-.93-.86-.34-.54-.06-1.04.29-1.41,1-1.04,1.7-2.31,2.63-3.39.97-1.12,1.35-2.23.33-3.51-.15-.18-.23-.42-.32-.64-.22-.54-.09-1.06.33-1.39.47-.38.87-.04,1.24.31,1.37,1.28,1.38,1.27,2.71-.05.11-.11.23-.22.34-.34.37-.39.76-.8,1.3-.28.52.5.49,1.06.03,1.59-.47.54-.94,1.08-1.44,1.6-.54.56-.51,1.12-.08,1.72.68.93,1.31,1.91,2.05,2.78.47.55.76,1.16.36,1.71-.48.66-1.05.14-1.55-.18-.81-.52-1.6-1.03-2.12-1.88-.58-.93-1.22-.73-1.76.05-.75,1.08-1.46,2.18-2.19,3.27-.3.44-.64.82-1.23.92Z"/>
  <path class="cls-3" d="m42.16,85.27c-.17,1.08-.93,1.92-1.68,2.73-1.17,1.26-1.58,1.6-.44,3.38.49.77,1.02,1.54,1.14,2.48.05.44.11.93-.38,1.17-.47.23-.86-.02-1.15-.39-.49-.63-.92-1.3-1.42-1.91-.54-.66-1.08-.65-1.72-.03-.97.94-1.5,2.15-2.21,3.26-.35.55-.69,1.15-1.49.82-.92-.38-.61-1.07-.33-1.7.68-1.51,1.79-2.74,2.84-3.98.7-.83,1.1-1.54.37-2.52-.13-.18-.2-.44-.22-.67-.05-.44-.06-.88.41-1.16.42-.25.78-.1,1.09.17.86.75,1.44.55,1.98-.41.43-.75.92-1.51,1.7-1.98.72-.43,1.49-.09,1.52.73Z"/>
  <path class="cls-3" d="m13.84,94.2c-.15-.67.46-1.09.81-1.58.39-.56.59-1.11.12-1.62-.6-.64-.76-1.35-.84-2.19-.08-.83.27-1.17.9-1.46.73-.34,1.03.24,1.32.68.89,1.32.87,1.33,1.92.15.82-.92,1.66-1.83,2.49-2.73.4-.43.91-.62,1.36-.2.41.38.4.9.06,1.41-.96,1.44-2.41,2.43-3.42,3.83-.6.83-.81,1.58-.39,2.54.33.76.45,1.6.48,2.44.01.29-.03.58-.32.72-.33.16-.57-.07-.7-.3-.59-1.13-1.3-1.38-2.46-.67-.7.43-1.31-.1-1.33-1.01Z"/>
  <path class="cls-3" d="m53.29,85.9c.36.05.67.23.89.52.81,1.03,1.62,2.05,2.39,3.1.36.48.75,1.1.17,1.59-.53.45-1.1.12-1.56-.36-.8-.83-1.66-1.6-2.42-2.47-.38-.43-.63-1-.36-1.64.17-.4.45-.64.87-.75Z"/>
  <path class="cls-7" d="m3.99,20.73c-.2,0-.4,0-.6,0-.98-.03-1.94-.39-2.29-1.25-.31-.75.56-1.31,1.09-1.81.85-.79,1.79-1.41,3.02-1.56,1.34-.16,2.66-.42,4.02-.42.8,0,1.4.29,1.67,1.08.28.84-.02,1.48-.73,1.95-1.87,1.24-3.95,1.84-6.16,2Z"/>
  <path class="cls-7" d="m57.03,14.26c-.72-.03-1.11-.34-1.18-1.01-.06-.5-.01-1.08.36-1.34,1.77-1.24,3.11-3.19,5.62-3.25.98-.02,1.26.56,1.57,1.16.32.62,0,1.08-.58,1.48-.58.4-1.03.97-1.54,1.47-1.2,1.18-2.88.97-4.25,1.49Z"/>
  <path class="cls-14" d="m99.68,148.44c1.09.93,2.99,1.37,4.62,2.38,2.8,1.74,4.6,4.29,6.22,6.99.98,1.63,2.21,3.14,2.77,5,.66,2.21.47,4.42-.02,6.63-.21.96-1.22,1.59-1.98,1.21-.87-.44-.78-1.19-.44-1.95.99-2.25,1-4.41-.23-6.63-1.42-2.55-2.86-5.07-4.57-7.43-.28-.39-.62-.72-1.07-.94-.79-.39-1.52-.87-2.09-1.57-.23-.28-.52-.52-.89-.58-2.04-.3-3.69-1.5-5.42-2.46-1.57-.87-3.17-1.54-4.96-1.58-3.54-.08-7.07-.72-10.63-.12-2.03.34-3.81,1.1-5.31,2.53-.95.91-1.96,1.76-2.94,2.63-.28.25-.61.48-.96.23-.42-.3-.2-.69-.04-1.07,1.52-3.7,7.32-6.75,10.59-6.51,2.31.17,4.63.23,6.95.25,3.62.03,6.77.74,10.42,3Z"/>
  <path class="cls-14" d="m106.37,164.83c-.21.61-.71.8-1.24.75-.63-.05-.6-.65-.67-1.1-.49-3.4-2.11-6.05-4.94-8.06-2.97-2.11-6.26-3.43-9.8-3.94-3.57-.51-7.1-.23-10.06,2.29-.38.33-.85.6-1.28.17-.44-.45-.21-.86.16-1.34,2.29-2.98,5.49-3.54,8.94-3.45,5.35.14,10.02,2.23,14.19,5.37,2.26,1.7,3.53,4.28,4.46,6.96.26.76.85,1.51.23,2.35Z"/>
  <path class="cls-14" d="m82.64,158.29c1.52-1.5,3.21-2.84,5.46-2.84,4.3,0,8.16,1.17,10.96,4.73,1.22,1.55,1.35,3.46,1.85,5.25.16.56-.39.86-.86.97-.56.13-1.15.12-1.39-.57-.15-.41-.3-.83-.37-1.26-.29-1.91-.96-3.43-2.71-4.64-2.1-1.46-4.28-2.3-6.78-2.44-1.41-.08-2.66.35-3.72,1.33-.38.35-.81.65-1.26.9-.43.24-.87.11-1.16-.3-.25-.35-.33-.73-.02-1.12Z"/>
  <path class="cls-14" d="m31.69,56.51c1.9.25,3.78-.17,5.69-.08,3.54.17,6.51,1.69,9.45,3.41,1.17.68,2.41,1.28,3.5,2.07,2.31,1.69,3.33,4.19,4.04,6.85.19.73-.59,1.85-1.22,1.79-.81-.07-1.24-.65-1.34-1.44-.1-.78-.02-1.57-.37-2.34-.67-1.51-1.62-2.71-3.07-3.54-1.45-.83-2.89-1.71-4.26-2.67-2.31-1.62-4.99-1.94-7.64-2.41-.89-.16-1.67.49-2.57.47-1.32-.03-2.64.11-3.95.01-2.41-.19-4.58.54-6.64,1.65-2.49,1.34-5.2,2.24-7.49,3.97-1.87,1.42-3.27,3.12-3.94,5.4-.34,1.15-.79,2.26-1.2,3.38-.13.35-.32.69-.77.62-.47-.08-.57-.41-.63-.87-.21-1.62.36-3.08.96-4.5,1.17-2.73,2.82-5.08,5.6-6.44,2.12-1.04,4.23-2.08,6.32-3.17,2.99-1.54,6.13-2.42,9.53-2.17Z"/>
  <path class="cls-14" d="m34.01,61.58c4.52-.66,8.09,1.79,11.43,4.8.4.36.71.77.75,1.32.05.65-.32,1.08-.87,1.29-.51.19-.75-.21-1.03-.58-2.07-2.69-4.66-4.39-8.15-4.79-3.33-.37-6.56-.06-9.7.95-3.78,1.21-7.07,3.14-8.6,7.13-.17.44-.43.83-.95.73-.5-.09-.64-.52-.64-1.01,0-.89.21-1.69.65-2.5,2.31-4.22,6.42-5.63,10.62-6.89,2.01-.6,4.1-.5,6.49-.46Z"/>
  <path class="cls-14" d="m41.67,71.22c-.02.62-.39.94-.79,1.2-.44.28-.83.11-1.17-.25-.77-.81-1.56-1.6-2.34-2.4-.67-.68-1.5-.89-2.43-1.11-1.72-.41-3.37-.26-5.05.06-2.36.44-4.43,1.32-5.36,3.8-.15.41-.3.83-.52,1.2-.3.51-.71.89-1.38.56-.7-.34-.67-.88-.45-1.51,1.18-3.54,3.78-5.32,7.28-6.17,2.48-.6,4.86-.52,7.27.25,2.16.69,3.43,2.38,4.79,3.99.1.11.12.29.16.37Z"/>
  <path class="cls-3" d="m126.98,140.02c-.8-.35-1.08-1.04-1.45-1.65-.57-.94-1.33-.63-2.08-.25-.67.34-1.35.65-.75,1.6.34.55.17,1.09-.24,1.54-.49.54-.99.18-1.38-.12-1.04-.78-2.05-.73-3.24-.26-1.53.61-3.18.68-4.82.68-.28,0-.56-.05-.82-.13-.37-.11-.68-.42-.7-.74-.03-.37.45-.39.73-.47,1.65-.49,3.29-1,4.95-1.43.99-.26,1.02-.69.43-1.41-1.21-1.48-2.43-2.95-3.56-4.48-.61-.82-1.2-1.1-2.21-.74-.97.35-1.73.97-2.56,1.53-.49.33-.36.76-.12,1.16.29.48.62.93.95,1.38.49.68.08,1.23-.31,1.73-.4.51-.85.14-1.29-.04-.7-.29-.94-.94-1.26-1.53-.71-1.29-1.35-1.55-2.75-1.14-.57.17-1.14.37-1.72.52-.51.14-1.01.03-1.22-.48-.2-.48.01-.92.44-1.25.5-.38,1.1-.46,1.67-.64,1.18-.38,1.38-.96.56-1.89-.56-.63-1.04-1.28-1.4-2.05-.43-.91-1.21-1.24-2.2-.84-1.11.44-2.22.89-3.32,1.35-.76.31-1.29.13-2.03-.33-1.77-1.1-2.71-2.74-3.48-4.53-.39-.9-.99-1.04-1.81-.92-.16.02-.31.08-.47.1-.71.1-1.51.11-1.7-.69-.2-.84.57-1.09,1.25-1.29,1.72-.5,1.72-.52,1.31-2.32,0-.04-.02-.08-.03-.12-.15-.76-.32-1.71.6-1.93.91-.21,1.49.48,1.75,1.41.5,1.78.81,1.9,2.49,1.1.9-.43,1.8-.86,2.67-1.35.71-.41,1.31-.23,1.63.39.32.63-.07,1.17-.67,1.46-1.22.58-2.45,1.15-3.7,1.67-1.15.48-1.35.87-.87,2.01.42,1,1.08,1.86,1.72,2.73.34.47.81.63,1.38.44.61-.2,1.22-.36,1.8-.64.93-.44,1.51-.94,1.14-2.12-.18-.58-.17-1.33.62-1.61.69-.25,1.18.17,1.5.68.43.69.93.76,1.62.48.74-.3,1.49-.55,2.24-.82.6-.21,1.18-.14,1.43.47.25.62-.22,1.06-.73,1.34-.59.32-1.25.49-1.82.88-.64.44-.82.94-.49,1.63.58,1.24,1.37,2.33,2.26,3.36.48.56,1.02.32,1.53.1.55-.24,1.05-.58,1.59-.81.99-.41,1.67-.93,1.13-2.16-.2-.46.02-.85.42-1.13.41-.29.81-.16,1.09.13.83.88,1.74,1.22,2.99,1.05.93-.13,1.05.73.66,1.32-.82,1.27-.35,2.27.43,3.27.83,1.07,1.66,2.14,2.52,3.19.84,1.03,3.11.68,3.67-.54.18-.39-.06-.61-.24-.86-.18-.26-.43-.47-.61-.74-.4-.6-.38-1.28.13-1.73.5-.45,1.05-.14,1.48.3.14.14.31.27.41.44.64,1.06,1.54,1.27,2.65.87.58-.21,1.14-.15,1.49.4.35.55.22,1.11-.29,1.49-.63.48-.41.95-.09,1.46.23.37.51.72.72,1.1.28.54.08,1.02-.31,1.42-.46.48-.94.29-1.32,0Z"/>
  <path class="cls-12" d="m132.23,48.59c1.26-.11,2.32.39,3.36,1.03.52.32.87.71.64,1.36-.23.65-.69.73-1.32.64-.86-.13-1.73-.13-2.6-.19-1.28-.25-2.29-1.08-3.44-1.6-.34-.15-.65-.37-.6-.8.04-.41.4-.56.71-.74.6-.34,1.16-.02,1.74.06.51.07,1.02.16,1.53.24Z"/>
  <path class="cls-11" d="m141.71,52.22c.74.27,1.48.52,2.21.81.67.27,1.27.74.91,1.51-.35.75-1,.35-1.53.09-.32-.16-.63-.32-.95-.48-.94-.52-1.87-1.04-2.81-1.56-.31-.17-.76-.44-.61-.76.19-.4.72-.42,1.17-.29.56.17.97.71,1.62.68Z"/>
</svg>